%TF.GenerationSoftware,KiCad,Pcbnew,9.0.0*%
%TF.CreationDate,2025-04-29T21:45:17-04:00*%
%TF.ProjectId,Sensor_TCS3200,53656e73-6f72-45f5-9443-53333230302e,Ing. Alan C.*%
%TF.SameCoordinates,Original*%
%TF.FileFunction,Legend,Top*%
%TF.FilePolarity,Positive*%
%FSLAX46Y46*%
G04 Gerber Fmt 4.6, Leading zero omitted, Abs format (unit mm)*
G04 Created by KiCad (PCBNEW 9.0.0) date 2025-04-29 21:45:17*
%MOMM*%
%LPD*%
G01*
G04 APERTURE LIST*
%ADD10C,0.150000*%
%ADD11C,0.200000*%
%ADD12C,0.120000*%
G04 APERTURE END LIST*
D10*
X132168207Y-101092390D02*
X132092017Y-101054295D01*
X132092017Y-101054295D02*
X131977731Y-101054295D01*
X131977731Y-101054295D02*
X131863445Y-101092390D01*
X131863445Y-101092390D02*
X131787255Y-101168580D01*
X131787255Y-101168580D02*
X131749160Y-101244771D01*
X131749160Y-101244771D02*
X131711064Y-101397152D01*
X131711064Y-101397152D02*
X131711064Y-101511438D01*
X131711064Y-101511438D02*
X131749160Y-101663819D01*
X131749160Y-101663819D02*
X131787255Y-101740009D01*
X131787255Y-101740009D02*
X131863445Y-101816200D01*
X131863445Y-101816200D02*
X131977731Y-101854295D01*
X131977731Y-101854295D02*
X132053922Y-101854295D01*
X132053922Y-101854295D02*
X132168207Y-101816200D01*
X132168207Y-101816200D02*
X132206303Y-101778104D01*
X132206303Y-101778104D02*
X132206303Y-101511438D01*
X132206303Y-101511438D02*
X132053922Y-101511438D01*
X132549160Y-101854295D02*
X132549160Y-101054295D01*
X132549160Y-101054295D02*
X133006303Y-101854295D01*
X133006303Y-101854295D02*
X133006303Y-101054295D01*
X133387255Y-101854295D02*
X133387255Y-101054295D01*
X133387255Y-101054295D02*
X133577731Y-101054295D01*
X133577731Y-101054295D02*
X133692017Y-101092390D01*
X133692017Y-101092390D02*
X133768207Y-101168580D01*
X133768207Y-101168580D02*
X133806302Y-101244771D01*
X133806302Y-101244771D02*
X133844398Y-101397152D01*
X133844398Y-101397152D02*
X133844398Y-101511438D01*
X133844398Y-101511438D02*
X133806302Y-101663819D01*
X133806302Y-101663819D02*
X133768207Y-101740009D01*
X133768207Y-101740009D02*
X133692017Y-101816200D01*
X133692017Y-101816200D02*
X133577731Y-101854295D01*
X133577731Y-101854295D02*
X133387255Y-101854295D01*
X160211064Y-99816200D02*
X160325350Y-99854295D01*
X160325350Y-99854295D02*
X160515826Y-99854295D01*
X160515826Y-99854295D02*
X160592017Y-99816200D01*
X160592017Y-99816200D02*
X160630112Y-99778104D01*
X160630112Y-99778104D02*
X160668207Y-99701914D01*
X160668207Y-99701914D02*
X160668207Y-99625723D01*
X160668207Y-99625723D02*
X160630112Y-99549533D01*
X160630112Y-99549533D02*
X160592017Y-99511438D01*
X160592017Y-99511438D02*
X160515826Y-99473342D01*
X160515826Y-99473342D02*
X160363445Y-99435247D01*
X160363445Y-99435247D02*
X160287255Y-99397152D01*
X160287255Y-99397152D02*
X160249160Y-99359057D01*
X160249160Y-99359057D02*
X160211064Y-99282866D01*
X160211064Y-99282866D02*
X160211064Y-99206676D01*
X160211064Y-99206676D02*
X160249160Y-99130485D01*
X160249160Y-99130485D02*
X160287255Y-99092390D01*
X160287255Y-99092390D02*
X160363445Y-99054295D01*
X160363445Y-99054295D02*
X160553922Y-99054295D01*
X160553922Y-99054295D02*
X160668207Y-99092390D01*
X161353922Y-99320961D02*
X161353922Y-99854295D01*
X161163446Y-99016200D02*
X160972969Y-99587628D01*
X160972969Y-99587628D02*
X161468208Y-99587628D01*
X132401541Y-100054295D02*
X132553922Y-100054295D01*
X132553922Y-100054295D02*
X132630112Y-100092390D01*
X132630112Y-100092390D02*
X132706303Y-100168580D01*
X132706303Y-100168580D02*
X132744398Y-100320961D01*
X132744398Y-100320961D02*
X132744398Y-100587628D01*
X132744398Y-100587628D02*
X132706303Y-100740009D01*
X132706303Y-100740009D02*
X132630112Y-100816200D01*
X132630112Y-100816200D02*
X132553922Y-100854295D01*
X132553922Y-100854295D02*
X132401541Y-100854295D01*
X132401541Y-100854295D02*
X132325350Y-100816200D01*
X132325350Y-100816200D02*
X132249160Y-100740009D01*
X132249160Y-100740009D02*
X132211064Y-100587628D01*
X132211064Y-100587628D02*
X132211064Y-100320961D01*
X132211064Y-100320961D02*
X132249160Y-100168580D01*
X132249160Y-100168580D02*
X132325350Y-100092390D01*
X132325350Y-100092390D02*
X132401541Y-100054295D01*
X133087255Y-100435247D02*
X133353921Y-100435247D01*
X133468207Y-100854295D02*
X133087255Y-100854295D01*
X133087255Y-100854295D02*
X133087255Y-100054295D01*
X133087255Y-100054295D02*
X133468207Y-100054295D01*
D11*
X144305863Y-112327219D02*
X143829673Y-112327219D01*
X143829673Y-112327219D02*
X143829673Y-111327219D01*
X145020149Y-112279600D02*
X144924911Y-112327219D01*
X144924911Y-112327219D02*
X144734435Y-112327219D01*
X144734435Y-112327219D02*
X144639197Y-112279600D01*
X144639197Y-112279600D02*
X144591578Y-112184361D01*
X144591578Y-112184361D02*
X144591578Y-111803409D01*
X144591578Y-111803409D02*
X144639197Y-111708171D01*
X144639197Y-111708171D02*
X144734435Y-111660552D01*
X144734435Y-111660552D02*
X144924911Y-111660552D01*
X144924911Y-111660552D02*
X145020149Y-111708171D01*
X145020149Y-111708171D02*
X145067768Y-111803409D01*
X145067768Y-111803409D02*
X145067768Y-111898647D01*
X145067768Y-111898647D02*
X144591578Y-111993885D01*
X145639197Y-112327219D02*
X145543959Y-112279600D01*
X145543959Y-112279600D02*
X145496340Y-112231980D01*
X145496340Y-112231980D02*
X145448721Y-112136742D01*
X145448721Y-112136742D02*
X145448721Y-111851028D01*
X145448721Y-111851028D02*
X145496340Y-111755790D01*
X145496340Y-111755790D02*
X145543959Y-111708171D01*
X145543959Y-111708171D02*
X145639197Y-111660552D01*
X145639197Y-111660552D02*
X145782054Y-111660552D01*
X145782054Y-111660552D02*
X145877292Y-111708171D01*
X145877292Y-111708171D02*
X145924911Y-111755790D01*
X145924911Y-111755790D02*
X145972530Y-111851028D01*
X145972530Y-111851028D02*
X145972530Y-112136742D01*
X145972530Y-112136742D02*
X145924911Y-112231980D01*
X145924911Y-112231980D02*
X145877292Y-112279600D01*
X145877292Y-112279600D02*
X145782054Y-112327219D01*
X145782054Y-112327219D02*
X145639197Y-112327219D01*
X147020150Y-111327219D02*
X147353483Y-112327219D01*
X147353483Y-112327219D02*
X147686816Y-111327219D01*
X148448721Y-112327219D02*
X148448721Y-111803409D01*
X148448721Y-111803409D02*
X148401102Y-111708171D01*
X148401102Y-111708171D02*
X148305864Y-111660552D01*
X148305864Y-111660552D02*
X148115388Y-111660552D01*
X148115388Y-111660552D02*
X148020150Y-111708171D01*
X148448721Y-112279600D02*
X148353483Y-112327219D01*
X148353483Y-112327219D02*
X148115388Y-112327219D01*
X148115388Y-112327219D02*
X148020150Y-112279600D01*
X148020150Y-112279600D02*
X147972531Y-112184361D01*
X147972531Y-112184361D02*
X147972531Y-112089123D01*
X147972531Y-112089123D02*
X148020150Y-111993885D01*
X148020150Y-111993885D02*
X148115388Y-111946266D01*
X148115388Y-111946266D02*
X148353483Y-111946266D01*
X148353483Y-111946266D02*
X148448721Y-111898647D01*
X148924912Y-112327219D02*
X148924912Y-111660552D01*
X148924912Y-111851028D02*
X148972531Y-111755790D01*
X148972531Y-111755790D02*
X149020150Y-111708171D01*
X149020150Y-111708171D02*
X149115388Y-111660552D01*
X149115388Y-111660552D02*
X149210626Y-111660552D01*
X149972531Y-111660552D02*
X149972531Y-112470076D01*
X149972531Y-112470076D02*
X149924912Y-112565314D01*
X149924912Y-112565314D02*
X149877293Y-112612933D01*
X149877293Y-112612933D02*
X149782055Y-112660552D01*
X149782055Y-112660552D02*
X149639198Y-112660552D01*
X149639198Y-112660552D02*
X149543960Y-112612933D01*
X149972531Y-112279600D02*
X149877293Y-112327219D01*
X149877293Y-112327219D02*
X149686817Y-112327219D01*
X149686817Y-112327219D02*
X149591579Y-112279600D01*
X149591579Y-112279600D02*
X149543960Y-112231980D01*
X149543960Y-112231980D02*
X149496341Y-112136742D01*
X149496341Y-112136742D02*
X149496341Y-111851028D01*
X149496341Y-111851028D02*
X149543960Y-111755790D01*
X149543960Y-111755790D02*
X149591579Y-111708171D01*
X149591579Y-111708171D02*
X149686817Y-111660552D01*
X149686817Y-111660552D02*
X149877293Y-111660552D01*
X149877293Y-111660552D02*
X149972531Y-111708171D01*
X150877293Y-112327219D02*
X150877293Y-111803409D01*
X150877293Y-111803409D02*
X150829674Y-111708171D01*
X150829674Y-111708171D02*
X150734436Y-111660552D01*
X150734436Y-111660552D02*
X150543960Y-111660552D01*
X150543960Y-111660552D02*
X150448722Y-111708171D01*
X150877293Y-112279600D02*
X150782055Y-112327219D01*
X150782055Y-112327219D02*
X150543960Y-112327219D01*
X150543960Y-112327219D02*
X150448722Y-112279600D01*
X150448722Y-112279600D02*
X150401103Y-112184361D01*
X150401103Y-112184361D02*
X150401103Y-112089123D01*
X150401103Y-112089123D02*
X150448722Y-111993885D01*
X150448722Y-111993885D02*
X150543960Y-111946266D01*
X150543960Y-111946266D02*
X150782055Y-111946266D01*
X150782055Y-111946266D02*
X150877293Y-111898647D01*
X151305865Y-112279600D02*
X151401103Y-112327219D01*
X151401103Y-112327219D02*
X151591579Y-112327219D01*
X151591579Y-112327219D02*
X151686817Y-112279600D01*
X151686817Y-112279600D02*
X151734436Y-112184361D01*
X151734436Y-112184361D02*
X151734436Y-112136742D01*
X151734436Y-112136742D02*
X151686817Y-112041504D01*
X151686817Y-112041504D02*
X151591579Y-111993885D01*
X151591579Y-111993885D02*
X151448722Y-111993885D01*
X151448722Y-111993885D02*
X151353484Y-111946266D01*
X151353484Y-111946266D02*
X151305865Y-111851028D01*
X151305865Y-111851028D02*
X151305865Y-111803409D01*
X151305865Y-111803409D02*
X151353484Y-111708171D01*
X151353484Y-111708171D02*
X151448722Y-111660552D01*
X151448722Y-111660552D02*
X151591579Y-111660552D01*
X151591579Y-111660552D02*
X151686817Y-111708171D01*
D10*
X132211064Y-98816200D02*
X132325350Y-98854295D01*
X132325350Y-98854295D02*
X132515826Y-98854295D01*
X132515826Y-98854295D02*
X132592017Y-98816200D01*
X132592017Y-98816200D02*
X132630112Y-98778104D01*
X132630112Y-98778104D02*
X132668207Y-98701914D01*
X132668207Y-98701914D02*
X132668207Y-98625723D01*
X132668207Y-98625723D02*
X132630112Y-98549533D01*
X132630112Y-98549533D02*
X132592017Y-98511438D01*
X132592017Y-98511438D02*
X132515826Y-98473342D01*
X132515826Y-98473342D02*
X132363445Y-98435247D01*
X132363445Y-98435247D02*
X132287255Y-98397152D01*
X132287255Y-98397152D02*
X132249160Y-98359057D01*
X132249160Y-98359057D02*
X132211064Y-98282866D01*
X132211064Y-98282866D02*
X132211064Y-98206676D01*
X132211064Y-98206676D02*
X132249160Y-98130485D01*
X132249160Y-98130485D02*
X132287255Y-98092390D01*
X132287255Y-98092390D02*
X132363445Y-98054295D01*
X132363445Y-98054295D02*
X132553922Y-98054295D01*
X132553922Y-98054295D02*
X132668207Y-98092390D01*
X133163446Y-98054295D02*
X133239636Y-98054295D01*
X133239636Y-98054295D02*
X133315827Y-98092390D01*
X133315827Y-98092390D02*
X133353922Y-98130485D01*
X133353922Y-98130485D02*
X133392017Y-98206676D01*
X133392017Y-98206676D02*
X133430112Y-98359057D01*
X133430112Y-98359057D02*
X133430112Y-98549533D01*
X133430112Y-98549533D02*
X133392017Y-98701914D01*
X133392017Y-98701914D02*
X133353922Y-98778104D01*
X133353922Y-98778104D02*
X133315827Y-98816200D01*
X133315827Y-98816200D02*
X133239636Y-98854295D01*
X133239636Y-98854295D02*
X133163446Y-98854295D01*
X133163446Y-98854295D02*
X133087255Y-98816200D01*
X133087255Y-98816200D02*
X133049160Y-98778104D01*
X133049160Y-98778104D02*
X133011065Y-98701914D01*
X133011065Y-98701914D02*
X132972969Y-98549533D01*
X132972969Y-98549533D02*
X132972969Y-98359057D01*
X132972969Y-98359057D02*
X133011065Y-98206676D01*
X133011065Y-98206676D02*
X133049160Y-98130485D01*
X133049160Y-98130485D02*
X133087255Y-98092390D01*
X133087255Y-98092390D02*
X133163446Y-98054295D01*
X132211064Y-99816200D02*
X132325350Y-99854295D01*
X132325350Y-99854295D02*
X132515826Y-99854295D01*
X132515826Y-99854295D02*
X132592017Y-99816200D01*
X132592017Y-99816200D02*
X132630112Y-99778104D01*
X132630112Y-99778104D02*
X132668207Y-99701914D01*
X132668207Y-99701914D02*
X132668207Y-99625723D01*
X132668207Y-99625723D02*
X132630112Y-99549533D01*
X132630112Y-99549533D02*
X132592017Y-99511438D01*
X132592017Y-99511438D02*
X132515826Y-99473342D01*
X132515826Y-99473342D02*
X132363445Y-99435247D01*
X132363445Y-99435247D02*
X132287255Y-99397152D01*
X132287255Y-99397152D02*
X132249160Y-99359057D01*
X132249160Y-99359057D02*
X132211064Y-99282866D01*
X132211064Y-99282866D02*
X132211064Y-99206676D01*
X132211064Y-99206676D02*
X132249160Y-99130485D01*
X132249160Y-99130485D02*
X132287255Y-99092390D01*
X132287255Y-99092390D02*
X132363445Y-99054295D01*
X132363445Y-99054295D02*
X132553922Y-99054295D01*
X132553922Y-99054295D02*
X132668207Y-99092390D01*
X133430112Y-99854295D02*
X132972969Y-99854295D01*
X133201541Y-99854295D02*
X133201541Y-99054295D01*
X133201541Y-99054295D02*
X133125350Y-99168580D01*
X133125350Y-99168580D02*
X133049160Y-99244771D01*
X133049160Y-99244771D02*
X132972969Y-99282866D01*
X160211064Y-98816200D02*
X160325350Y-98854295D01*
X160325350Y-98854295D02*
X160515826Y-98854295D01*
X160515826Y-98854295D02*
X160592017Y-98816200D01*
X160592017Y-98816200D02*
X160630112Y-98778104D01*
X160630112Y-98778104D02*
X160668207Y-98701914D01*
X160668207Y-98701914D02*
X160668207Y-98625723D01*
X160668207Y-98625723D02*
X160630112Y-98549533D01*
X160630112Y-98549533D02*
X160592017Y-98511438D01*
X160592017Y-98511438D02*
X160515826Y-98473342D01*
X160515826Y-98473342D02*
X160363445Y-98435247D01*
X160363445Y-98435247D02*
X160287255Y-98397152D01*
X160287255Y-98397152D02*
X160249160Y-98359057D01*
X160249160Y-98359057D02*
X160211064Y-98282866D01*
X160211064Y-98282866D02*
X160211064Y-98206676D01*
X160211064Y-98206676D02*
X160249160Y-98130485D01*
X160249160Y-98130485D02*
X160287255Y-98092390D01*
X160287255Y-98092390D02*
X160363445Y-98054295D01*
X160363445Y-98054295D02*
X160553922Y-98054295D01*
X160553922Y-98054295D02*
X160668207Y-98092390D01*
X160934874Y-98054295D02*
X161430112Y-98054295D01*
X161430112Y-98054295D02*
X161163446Y-98359057D01*
X161163446Y-98359057D02*
X161277731Y-98359057D01*
X161277731Y-98359057D02*
X161353922Y-98397152D01*
X161353922Y-98397152D02*
X161392017Y-98435247D01*
X161392017Y-98435247D02*
X161430112Y-98511438D01*
X161430112Y-98511438D02*
X161430112Y-98701914D01*
X161430112Y-98701914D02*
X161392017Y-98778104D01*
X161392017Y-98778104D02*
X161353922Y-98816200D01*
X161353922Y-98816200D02*
X161277731Y-98854295D01*
X161277731Y-98854295D02*
X161049160Y-98854295D01*
X161049160Y-98854295D02*
X160972969Y-98816200D01*
X160972969Y-98816200D02*
X160934874Y-98778104D01*
X160401541Y-100054295D02*
X160553922Y-100054295D01*
X160553922Y-100054295D02*
X160630112Y-100092390D01*
X160630112Y-100092390D02*
X160706303Y-100168580D01*
X160706303Y-100168580D02*
X160744398Y-100320961D01*
X160744398Y-100320961D02*
X160744398Y-100587628D01*
X160744398Y-100587628D02*
X160706303Y-100740009D01*
X160706303Y-100740009D02*
X160630112Y-100816200D01*
X160630112Y-100816200D02*
X160553922Y-100854295D01*
X160553922Y-100854295D02*
X160401541Y-100854295D01*
X160401541Y-100854295D02*
X160325350Y-100816200D01*
X160325350Y-100816200D02*
X160249160Y-100740009D01*
X160249160Y-100740009D02*
X160211064Y-100587628D01*
X160211064Y-100587628D02*
X160211064Y-100320961D01*
X160211064Y-100320961D02*
X160249160Y-100168580D01*
X160249160Y-100168580D02*
X160325350Y-100092390D01*
X160325350Y-100092390D02*
X160401541Y-100054295D01*
X161087255Y-100054295D02*
X161087255Y-100701914D01*
X161087255Y-100701914D02*
X161125350Y-100778104D01*
X161125350Y-100778104D02*
X161163445Y-100816200D01*
X161163445Y-100816200D02*
X161239636Y-100854295D01*
X161239636Y-100854295D02*
X161392017Y-100854295D01*
X161392017Y-100854295D02*
X161468207Y-100816200D01*
X161468207Y-100816200D02*
X161506302Y-100778104D01*
X161506302Y-100778104D02*
X161544398Y-100701914D01*
X161544398Y-100701914D02*
X161544398Y-100054295D01*
X161811064Y-100054295D02*
X162268207Y-100054295D01*
X162039635Y-100854295D02*
X162039635Y-100054295D01*
X160134874Y-101054295D02*
X160401541Y-101854295D01*
X160401541Y-101854295D02*
X160668207Y-101054295D01*
X160934874Y-101854295D02*
X160934874Y-101054295D01*
X160934874Y-101054295D02*
X161125350Y-101054295D01*
X161125350Y-101054295D02*
X161239636Y-101092390D01*
X161239636Y-101092390D02*
X161315826Y-101168580D01*
X161315826Y-101168580D02*
X161353921Y-101244771D01*
X161353921Y-101244771D02*
X161392017Y-101397152D01*
X161392017Y-101397152D02*
X161392017Y-101511438D01*
X161392017Y-101511438D02*
X161353921Y-101663819D01*
X161353921Y-101663819D02*
X161315826Y-101740009D01*
X161315826Y-101740009D02*
X161239636Y-101816200D01*
X161239636Y-101816200D02*
X161125350Y-101854295D01*
X161125350Y-101854295D02*
X160934874Y-101854295D01*
X161734874Y-101854295D02*
X161734874Y-101054295D01*
X161734874Y-101054295D02*
X161925350Y-101054295D01*
X161925350Y-101054295D02*
X162039636Y-101092390D01*
X162039636Y-101092390D02*
X162115826Y-101168580D01*
X162115826Y-101168580D02*
X162153921Y-101244771D01*
X162153921Y-101244771D02*
X162192017Y-101397152D01*
X162192017Y-101397152D02*
X162192017Y-101511438D01*
X162192017Y-101511438D02*
X162153921Y-101663819D01*
X162153921Y-101663819D02*
X162115826Y-101740009D01*
X162115826Y-101740009D02*
X162039636Y-101816200D01*
X162039636Y-101816200D02*
X161925350Y-101854295D01*
X161925350Y-101854295D02*
X161734874Y-101854295D01*
X146697831Y-96206493D02*
X146697831Y-97016297D01*
X146697831Y-97016297D02*
X146745467Y-97111568D01*
X146745467Y-97111568D02*
X146793102Y-97159204D01*
X146793102Y-97159204D02*
X146888373Y-97206839D01*
X146888373Y-97206839D02*
X147078915Y-97206839D01*
X147078915Y-97206839D02*
X147174186Y-97159204D01*
X147174186Y-97159204D02*
X147221822Y-97111568D01*
X147221822Y-97111568D02*
X147269457Y-97016297D01*
X147269457Y-97016297D02*
X147269457Y-96206493D01*
X148269804Y-97206839D02*
X147698178Y-97206839D01*
X147983991Y-97206839D02*
X147983991Y-96206493D01*
X147983991Y-96206493D02*
X147888720Y-96349400D01*
X147888720Y-96349400D02*
X147793449Y-96444671D01*
X147793449Y-96444671D02*
X147698178Y-96492306D01*
X150326667Y-95822295D02*
X150060000Y-95441342D01*
X149869524Y-95822295D02*
X149869524Y-95022295D01*
X149869524Y-95022295D02*
X150174286Y-95022295D01*
X150174286Y-95022295D02*
X150250476Y-95060390D01*
X150250476Y-95060390D02*
X150288571Y-95098485D01*
X150288571Y-95098485D02*
X150326667Y-95174676D01*
X150326667Y-95174676D02*
X150326667Y-95288961D01*
X150326667Y-95288961D02*
X150288571Y-95365152D01*
X150288571Y-95365152D02*
X150250476Y-95403247D01*
X150250476Y-95403247D02*
X150174286Y-95441342D01*
X150174286Y-95441342D02*
X149869524Y-95441342D01*
X151088571Y-95822295D02*
X150631428Y-95822295D01*
X150860000Y-95822295D02*
X150860000Y-95022295D01*
X150860000Y-95022295D02*
X150783809Y-95136580D01*
X150783809Y-95136580D02*
X150707619Y-95212771D01*
X150707619Y-95212771D02*
X150631428Y-95250866D01*
X151326667Y-107822295D02*
X151060000Y-107441342D01*
X150869524Y-107822295D02*
X150869524Y-107022295D01*
X150869524Y-107022295D02*
X151174286Y-107022295D01*
X151174286Y-107022295D02*
X151250476Y-107060390D01*
X151250476Y-107060390D02*
X151288571Y-107098485D01*
X151288571Y-107098485D02*
X151326667Y-107174676D01*
X151326667Y-107174676D02*
X151326667Y-107288961D01*
X151326667Y-107288961D02*
X151288571Y-107365152D01*
X151288571Y-107365152D02*
X151250476Y-107403247D01*
X151250476Y-107403247D02*
X151174286Y-107441342D01*
X151174286Y-107441342D02*
X150869524Y-107441342D01*
X152012381Y-107288961D02*
X152012381Y-107822295D01*
X151821905Y-106984200D02*
X151631428Y-107555628D01*
X151631428Y-107555628D02*
X152126667Y-107555628D01*
X143826667Y-95977295D02*
X143560000Y-95596342D01*
X143369524Y-95977295D02*
X143369524Y-95177295D01*
X143369524Y-95177295D02*
X143674286Y-95177295D01*
X143674286Y-95177295D02*
X143750476Y-95215390D01*
X143750476Y-95215390D02*
X143788571Y-95253485D01*
X143788571Y-95253485D02*
X143826667Y-95329676D01*
X143826667Y-95329676D02*
X143826667Y-95443961D01*
X143826667Y-95443961D02*
X143788571Y-95520152D01*
X143788571Y-95520152D02*
X143750476Y-95558247D01*
X143750476Y-95558247D02*
X143674286Y-95596342D01*
X143674286Y-95596342D02*
X143369524Y-95596342D01*
X144131428Y-95253485D02*
X144169524Y-95215390D01*
X144169524Y-95215390D02*
X144245714Y-95177295D01*
X144245714Y-95177295D02*
X144436190Y-95177295D01*
X144436190Y-95177295D02*
X144512381Y-95215390D01*
X144512381Y-95215390D02*
X144550476Y-95253485D01*
X144550476Y-95253485D02*
X144588571Y-95329676D01*
X144588571Y-95329676D02*
X144588571Y-95405866D01*
X144588571Y-95405866D02*
X144550476Y-95520152D01*
X144550476Y-95520152D02*
X144093333Y-95977295D01*
X144093333Y-95977295D02*
X144588571Y-95977295D01*
X137951905Y-92954819D02*
X137951905Y-91954819D01*
X137951905Y-91954819D02*
X138190000Y-91954819D01*
X138190000Y-91954819D02*
X138332857Y-92002438D01*
X138332857Y-92002438D02*
X138428095Y-92097676D01*
X138428095Y-92097676D02*
X138475714Y-92192914D01*
X138475714Y-92192914D02*
X138523333Y-92383390D01*
X138523333Y-92383390D02*
X138523333Y-92526247D01*
X138523333Y-92526247D02*
X138475714Y-92716723D01*
X138475714Y-92716723D02*
X138428095Y-92811961D01*
X138428095Y-92811961D02*
X138332857Y-92907200D01*
X138332857Y-92907200D02*
X138190000Y-92954819D01*
X138190000Y-92954819D02*
X137951905Y-92954819D01*
X139475714Y-92954819D02*
X138904286Y-92954819D01*
X139190000Y-92954819D02*
X139190000Y-91954819D01*
X139190000Y-91954819D02*
X139094762Y-92097676D01*
X139094762Y-92097676D02*
X138999524Y-92192914D01*
X138999524Y-92192914D02*
X138904286Y-92240533D01*
X154671667Y-101872295D02*
X154405000Y-101491342D01*
X154214524Y-101872295D02*
X154214524Y-101072295D01*
X154214524Y-101072295D02*
X154519286Y-101072295D01*
X154519286Y-101072295D02*
X154595476Y-101110390D01*
X154595476Y-101110390D02*
X154633571Y-101148485D01*
X154633571Y-101148485D02*
X154671667Y-101224676D01*
X154671667Y-101224676D02*
X154671667Y-101338961D01*
X154671667Y-101338961D02*
X154633571Y-101415152D01*
X154633571Y-101415152D02*
X154595476Y-101453247D01*
X154595476Y-101453247D02*
X154519286Y-101491342D01*
X154519286Y-101491342D02*
X154214524Y-101491342D01*
X155052619Y-101872295D02*
X155205000Y-101872295D01*
X155205000Y-101872295D02*
X155281190Y-101834200D01*
X155281190Y-101834200D02*
X155319286Y-101796104D01*
X155319286Y-101796104D02*
X155395476Y-101681819D01*
X155395476Y-101681819D02*
X155433571Y-101529438D01*
X155433571Y-101529438D02*
X155433571Y-101224676D01*
X155433571Y-101224676D02*
X155395476Y-101148485D01*
X155395476Y-101148485D02*
X155357381Y-101110390D01*
X155357381Y-101110390D02*
X155281190Y-101072295D01*
X155281190Y-101072295D02*
X155128809Y-101072295D01*
X155128809Y-101072295D02*
X155052619Y-101110390D01*
X155052619Y-101110390D02*
X155014524Y-101148485D01*
X155014524Y-101148485D02*
X154976428Y-101224676D01*
X154976428Y-101224676D02*
X154976428Y-101415152D01*
X154976428Y-101415152D02*
X155014524Y-101491342D01*
X155014524Y-101491342D02*
X155052619Y-101529438D01*
X155052619Y-101529438D02*
X155128809Y-101567533D01*
X155128809Y-101567533D02*
X155281190Y-101567533D01*
X155281190Y-101567533D02*
X155357381Y-101529438D01*
X155357381Y-101529438D02*
X155395476Y-101491342D01*
X155395476Y-101491342D02*
X155433571Y-101415152D01*
X139826667Y-103372295D02*
X139560000Y-102991342D01*
X139369524Y-103372295D02*
X139369524Y-102572295D01*
X139369524Y-102572295D02*
X139674286Y-102572295D01*
X139674286Y-102572295D02*
X139750476Y-102610390D01*
X139750476Y-102610390D02*
X139788571Y-102648485D01*
X139788571Y-102648485D02*
X139826667Y-102724676D01*
X139826667Y-102724676D02*
X139826667Y-102838961D01*
X139826667Y-102838961D02*
X139788571Y-102915152D01*
X139788571Y-102915152D02*
X139750476Y-102953247D01*
X139750476Y-102953247D02*
X139674286Y-102991342D01*
X139674286Y-102991342D02*
X139369524Y-102991342D01*
X140283809Y-102915152D02*
X140207619Y-102877057D01*
X140207619Y-102877057D02*
X140169524Y-102838961D01*
X140169524Y-102838961D02*
X140131428Y-102762771D01*
X140131428Y-102762771D02*
X140131428Y-102724676D01*
X140131428Y-102724676D02*
X140169524Y-102648485D01*
X140169524Y-102648485D02*
X140207619Y-102610390D01*
X140207619Y-102610390D02*
X140283809Y-102572295D01*
X140283809Y-102572295D02*
X140436190Y-102572295D01*
X140436190Y-102572295D02*
X140512381Y-102610390D01*
X140512381Y-102610390D02*
X140550476Y-102648485D01*
X140550476Y-102648485D02*
X140588571Y-102724676D01*
X140588571Y-102724676D02*
X140588571Y-102762771D01*
X140588571Y-102762771D02*
X140550476Y-102838961D01*
X140550476Y-102838961D02*
X140512381Y-102877057D01*
X140512381Y-102877057D02*
X140436190Y-102915152D01*
X140436190Y-102915152D02*
X140283809Y-102915152D01*
X140283809Y-102915152D02*
X140207619Y-102953247D01*
X140207619Y-102953247D02*
X140169524Y-102991342D01*
X140169524Y-102991342D02*
X140131428Y-103067533D01*
X140131428Y-103067533D02*
X140131428Y-103219914D01*
X140131428Y-103219914D02*
X140169524Y-103296104D01*
X140169524Y-103296104D02*
X140207619Y-103334200D01*
X140207619Y-103334200D02*
X140283809Y-103372295D01*
X140283809Y-103372295D02*
X140436190Y-103372295D01*
X140436190Y-103372295D02*
X140512381Y-103334200D01*
X140512381Y-103334200D02*
X140550476Y-103296104D01*
X140550476Y-103296104D02*
X140588571Y-103219914D01*
X140588571Y-103219914D02*
X140588571Y-103067533D01*
X140588571Y-103067533D02*
X140550476Y-102991342D01*
X140550476Y-102991342D02*
X140512381Y-102953247D01*
X140512381Y-102953247D02*
X140436190Y-102915152D01*
X146981667Y-93246104D02*
X146943571Y-93284200D01*
X146943571Y-93284200D02*
X146829286Y-93322295D01*
X146829286Y-93322295D02*
X146753095Y-93322295D01*
X146753095Y-93322295D02*
X146638809Y-93284200D01*
X146638809Y-93284200D02*
X146562619Y-93208009D01*
X146562619Y-93208009D02*
X146524524Y-93131819D01*
X146524524Y-93131819D02*
X146486428Y-92979438D01*
X146486428Y-92979438D02*
X146486428Y-92865152D01*
X146486428Y-92865152D02*
X146524524Y-92712771D01*
X146524524Y-92712771D02*
X146562619Y-92636580D01*
X146562619Y-92636580D02*
X146638809Y-92560390D01*
X146638809Y-92560390D02*
X146753095Y-92522295D01*
X146753095Y-92522295D02*
X146829286Y-92522295D01*
X146829286Y-92522295D02*
X146943571Y-92560390D01*
X146943571Y-92560390D02*
X146981667Y-92598485D01*
X147743571Y-93322295D02*
X147286428Y-93322295D01*
X147515000Y-93322295D02*
X147515000Y-92522295D01*
X147515000Y-92522295D02*
X147438809Y-92636580D01*
X147438809Y-92636580D02*
X147362619Y-92712771D01*
X147362619Y-92712771D02*
X147286428Y-92750866D01*
X154671667Y-104372295D02*
X154405000Y-103991342D01*
X154214524Y-104372295D02*
X154214524Y-103572295D01*
X154214524Y-103572295D02*
X154519286Y-103572295D01*
X154519286Y-103572295D02*
X154595476Y-103610390D01*
X154595476Y-103610390D02*
X154633571Y-103648485D01*
X154633571Y-103648485D02*
X154671667Y-103724676D01*
X154671667Y-103724676D02*
X154671667Y-103838961D01*
X154671667Y-103838961D02*
X154633571Y-103915152D01*
X154633571Y-103915152D02*
X154595476Y-103953247D01*
X154595476Y-103953247D02*
X154519286Y-103991342D01*
X154519286Y-103991342D02*
X154214524Y-103991342D01*
X155357381Y-103572295D02*
X155205000Y-103572295D01*
X155205000Y-103572295D02*
X155128809Y-103610390D01*
X155128809Y-103610390D02*
X155090714Y-103648485D01*
X155090714Y-103648485D02*
X155014524Y-103762771D01*
X155014524Y-103762771D02*
X154976428Y-103915152D01*
X154976428Y-103915152D02*
X154976428Y-104219914D01*
X154976428Y-104219914D02*
X155014524Y-104296104D01*
X155014524Y-104296104D02*
X155052619Y-104334200D01*
X155052619Y-104334200D02*
X155128809Y-104372295D01*
X155128809Y-104372295D02*
X155281190Y-104372295D01*
X155281190Y-104372295D02*
X155357381Y-104334200D01*
X155357381Y-104334200D02*
X155395476Y-104296104D01*
X155395476Y-104296104D02*
X155433571Y-104219914D01*
X155433571Y-104219914D02*
X155433571Y-104029438D01*
X155433571Y-104029438D02*
X155395476Y-103953247D01*
X155395476Y-103953247D02*
X155357381Y-103915152D01*
X155357381Y-103915152D02*
X155281190Y-103877057D01*
X155281190Y-103877057D02*
X155128809Y-103877057D01*
X155128809Y-103877057D02*
X155052619Y-103915152D01*
X155052619Y-103915152D02*
X155014524Y-103953247D01*
X155014524Y-103953247D02*
X154976428Y-104029438D01*
X139826667Y-105372295D02*
X139560000Y-104991342D01*
X139369524Y-105372295D02*
X139369524Y-104572295D01*
X139369524Y-104572295D02*
X139674286Y-104572295D01*
X139674286Y-104572295D02*
X139750476Y-104610390D01*
X139750476Y-104610390D02*
X139788571Y-104648485D01*
X139788571Y-104648485D02*
X139826667Y-104724676D01*
X139826667Y-104724676D02*
X139826667Y-104838961D01*
X139826667Y-104838961D02*
X139788571Y-104915152D01*
X139788571Y-104915152D02*
X139750476Y-104953247D01*
X139750476Y-104953247D02*
X139674286Y-104991342D01*
X139674286Y-104991342D02*
X139369524Y-104991342D01*
X140093333Y-104572295D02*
X140626667Y-104572295D01*
X140626667Y-104572295D02*
X140283809Y-105372295D01*
X154491905Y-92954819D02*
X154491905Y-91954819D01*
X154491905Y-91954819D02*
X154730000Y-91954819D01*
X154730000Y-91954819D02*
X154872857Y-92002438D01*
X154872857Y-92002438D02*
X154968095Y-92097676D01*
X154968095Y-92097676D02*
X155015714Y-92192914D01*
X155015714Y-92192914D02*
X155063333Y-92383390D01*
X155063333Y-92383390D02*
X155063333Y-92526247D01*
X155063333Y-92526247D02*
X155015714Y-92716723D01*
X155015714Y-92716723D02*
X154968095Y-92811961D01*
X154968095Y-92811961D02*
X154872857Y-92907200D01*
X154872857Y-92907200D02*
X154730000Y-92954819D01*
X154730000Y-92954819D02*
X154491905Y-92954819D01*
X155444286Y-92050057D02*
X155491905Y-92002438D01*
X155491905Y-92002438D02*
X155587143Y-91954819D01*
X155587143Y-91954819D02*
X155825238Y-91954819D01*
X155825238Y-91954819D02*
X155920476Y-92002438D01*
X155920476Y-92002438D02*
X155968095Y-92050057D01*
X155968095Y-92050057D02*
X156015714Y-92145295D01*
X156015714Y-92145295D02*
X156015714Y-92240533D01*
X156015714Y-92240533D02*
X155968095Y-92383390D01*
X155968095Y-92383390D02*
X155396667Y-92954819D01*
X155396667Y-92954819D02*
X156015714Y-92954819D01*
X146876667Y-90066104D02*
X146838571Y-90104200D01*
X146838571Y-90104200D02*
X146724286Y-90142295D01*
X146724286Y-90142295D02*
X146648095Y-90142295D01*
X146648095Y-90142295D02*
X146533809Y-90104200D01*
X146533809Y-90104200D02*
X146457619Y-90028009D01*
X146457619Y-90028009D02*
X146419524Y-89951819D01*
X146419524Y-89951819D02*
X146381428Y-89799438D01*
X146381428Y-89799438D02*
X146381428Y-89685152D01*
X146381428Y-89685152D02*
X146419524Y-89532771D01*
X146419524Y-89532771D02*
X146457619Y-89456580D01*
X146457619Y-89456580D02*
X146533809Y-89380390D01*
X146533809Y-89380390D02*
X146648095Y-89342295D01*
X146648095Y-89342295D02*
X146724286Y-89342295D01*
X146724286Y-89342295D02*
X146838571Y-89380390D01*
X146838571Y-89380390D02*
X146876667Y-89418485D01*
X147181428Y-89418485D02*
X147219524Y-89380390D01*
X147219524Y-89380390D02*
X147295714Y-89342295D01*
X147295714Y-89342295D02*
X147486190Y-89342295D01*
X147486190Y-89342295D02*
X147562381Y-89380390D01*
X147562381Y-89380390D02*
X147600476Y-89418485D01*
X147600476Y-89418485D02*
X147638571Y-89494676D01*
X147638571Y-89494676D02*
X147638571Y-89570866D01*
X147638571Y-89570866D02*
X147600476Y-89685152D01*
X147600476Y-89685152D02*
X147143333Y-90142295D01*
X147143333Y-90142295D02*
X147638571Y-90142295D01*
X147826667Y-110822295D02*
X147560000Y-110441342D01*
X147369524Y-110822295D02*
X147369524Y-110022295D01*
X147369524Y-110022295D02*
X147674286Y-110022295D01*
X147674286Y-110022295D02*
X147750476Y-110060390D01*
X147750476Y-110060390D02*
X147788571Y-110098485D01*
X147788571Y-110098485D02*
X147826667Y-110174676D01*
X147826667Y-110174676D02*
X147826667Y-110288961D01*
X147826667Y-110288961D02*
X147788571Y-110365152D01*
X147788571Y-110365152D02*
X147750476Y-110403247D01*
X147750476Y-110403247D02*
X147674286Y-110441342D01*
X147674286Y-110441342D02*
X147369524Y-110441342D01*
X148550476Y-110022295D02*
X148169524Y-110022295D01*
X148169524Y-110022295D02*
X148131428Y-110403247D01*
X148131428Y-110403247D02*
X148169524Y-110365152D01*
X148169524Y-110365152D02*
X148245714Y-110327057D01*
X148245714Y-110327057D02*
X148436190Y-110327057D01*
X148436190Y-110327057D02*
X148512381Y-110365152D01*
X148512381Y-110365152D02*
X148550476Y-110403247D01*
X148550476Y-110403247D02*
X148588571Y-110479438D01*
X148588571Y-110479438D02*
X148588571Y-110669914D01*
X148588571Y-110669914D02*
X148550476Y-110746104D01*
X148550476Y-110746104D02*
X148512381Y-110784200D01*
X148512381Y-110784200D02*
X148436190Y-110822295D01*
X148436190Y-110822295D02*
X148245714Y-110822295D01*
X148245714Y-110822295D02*
X148169524Y-110784200D01*
X148169524Y-110784200D02*
X148131428Y-110746104D01*
X143326667Y-107822295D02*
X143060000Y-107441342D01*
X142869524Y-107822295D02*
X142869524Y-107022295D01*
X142869524Y-107022295D02*
X143174286Y-107022295D01*
X143174286Y-107022295D02*
X143250476Y-107060390D01*
X143250476Y-107060390D02*
X143288571Y-107098485D01*
X143288571Y-107098485D02*
X143326667Y-107174676D01*
X143326667Y-107174676D02*
X143326667Y-107288961D01*
X143326667Y-107288961D02*
X143288571Y-107365152D01*
X143288571Y-107365152D02*
X143250476Y-107403247D01*
X143250476Y-107403247D02*
X143174286Y-107441342D01*
X143174286Y-107441342D02*
X142869524Y-107441342D01*
X143593333Y-107022295D02*
X144088571Y-107022295D01*
X144088571Y-107022295D02*
X143821905Y-107327057D01*
X143821905Y-107327057D02*
X143936190Y-107327057D01*
X143936190Y-107327057D02*
X144012381Y-107365152D01*
X144012381Y-107365152D02*
X144050476Y-107403247D01*
X144050476Y-107403247D02*
X144088571Y-107479438D01*
X144088571Y-107479438D02*
X144088571Y-107669914D01*
X144088571Y-107669914D02*
X144050476Y-107746104D01*
X144050476Y-107746104D02*
X144012381Y-107784200D01*
X144012381Y-107784200D02*
X143936190Y-107822295D01*
X143936190Y-107822295D02*
X143707619Y-107822295D01*
X143707619Y-107822295D02*
X143631428Y-107784200D01*
X143631428Y-107784200D02*
X143593333Y-107746104D01*
X154587529Y-111454819D02*
X154587529Y-110454819D01*
X154587529Y-110454819D02*
X154825624Y-110454819D01*
X154825624Y-110454819D02*
X154968481Y-110502438D01*
X154968481Y-110502438D02*
X155063719Y-110597676D01*
X155063719Y-110597676D02*
X155111338Y-110692914D01*
X155111338Y-110692914D02*
X155158957Y-110883390D01*
X155158957Y-110883390D02*
X155158957Y-111026247D01*
X155158957Y-111026247D02*
X155111338Y-111216723D01*
X155111338Y-111216723D02*
X155063719Y-111311961D01*
X155063719Y-111311961D02*
X154968481Y-111407200D01*
X154968481Y-111407200D02*
X154825624Y-111454819D01*
X154825624Y-111454819D02*
X154587529Y-111454819D01*
X156016100Y-110788152D02*
X156016100Y-111454819D01*
X155778005Y-110407200D02*
X155539910Y-111121485D01*
X155539910Y-111121485D02*
X156158957Y-111121485D01*
X138261905Y-111454819D02*
X138261905Y-110454819D01*
X138261905Y-110454819D02*
X138500000Y-110454819D01*
X138500000Y-110454819D02*
X138642857Y-110502438D01*
X138642857Y-110502438D02*
X138738095Y-110597676D01*
X138738095Y-110597676D02*
X138785714Y-110692914D01*
X138785714Y-110692914D02*
X138833333Y-110883390D01*
X138833333Y-110883390D02*
X138833333Y-111026247D01*
X138833333Y-111026247D02*
X138785714Y-111216723D01*
X138785714Y-111216723D02*
X138738095Y-111311961D01*
X138738095Y-111311961D02*
X138642857Y-111407200D01*
X138642857Y-111407200D02*
X138500000Y-111454819D01*
X138500000Y-111454819D02*
X138261905Y-111454819D01*
X139166667Y-110454819D02*
X139785714Y-110454819D01*
X139785714Y-110454819D02*
X139452381Y-110835771D01*
X139452381Y-110835771D02*
X139595238Y-110835771D01*
X139595238Y-110835771D02*
X139690476Y-110883390D01*
X139690476Y-110883390D02*
X139738095Y-110931009D01*
X139738095Y-110931009D02*
X139785714Y-111026247D01*
X139785714Y-111026247D02*
X139785714Y-111264342D01*
X139785714Y-111264342D02*
X139738095Y-111359580D01*
X139738095Y-111359580D02*
X139690476Y-111407200D01*
X139690476Y-111407200D02*
X139595238Y-111454819D01*
X139595238Y-111454819D02*
X139309524Y-111454819D01*
X139309524Y-111454819D02*
X139214286Y-111407200D01*
X139214286Y-111407200D02*
X139166667Y-111359580D01*
D12*
%TO.C,D1*%
X137130000Y-94224000D02*
X137130000Y-94380000D01*
X137130000Y-96540000D02*
X137130000Y-96696000D01*
X137130000Y-94224484D02*
G75*
G02*
X140361397Y-94379939I1560000J-1235516D01*
G01*
X137649039Y-94380000D02*
G75*
G02*
X139730910Y-94379951I1040961J-1080000D01*
G01*
X139730910Y-96540049D02*
G75*
G02*
X137649039Y-96540000I-1040910J1080049D01*
G01*
X140361397Y-96540061D02*
G75*
G02*
X137130000Y-96695516I-1671397J1080061D01*
G01*
%TO.C,D2*%
X153670000Y-94224000D02*
X153670000Y-94380000D01*
X153670000Y-96540000D02*
X153670000Y-96696000D01*
X153670000Y-94224484D02*
G75*
G02*
X156901397Y-94379939I1560000J-1235516D01*
G01*
X154189039Y-94380000D02*
G75*
G02*
X156270910Y-94379951I1040961J-1080000D01*
G01*
X156270910Y-96540049D02*
G75*
G02*
X154189039Y-96540000I-1040910J1080049D01*
G01*
X156901397Y-96540061D02*
G75*
G02*
X153670000Y-96695516I-1671397J1080061D01*
G01*
%TO.C,C2*%
X146748748Y-90725000D02*
X147271252Y-90725000D01*
X146748748Y-92195000D02*
X147271252Y-92195000D01*
%TO.C,D4*%
X153670000Y-106224000D02*
X153670000Y-106380000D01*
X153670000Y-108540000D02*
X153670000Y-108696000D01*
X153670000Y-106224484D02*
G75*
G02*
X156901397Y-106379939I1560000J-1235516D01*
G01*
X154189039Y-106380000D02*
G75*
G02*
X156270910Y-106379951I1040961J-1080000D01*
G01*
X156270910Y-108540049D02*
G75*
G02*
X154189039Y-108540000I-1040910J1080049D01*
G01*
X156901397Y-108540061D02*
G75*
G02*
X153670000Y-108695516I-1671397J1080061D01*
G01*
%TO.C,D3*%
X137400000Y-106724000D02*
X137400000Y-106880000D01*
X137400000Y-109040000D02*
X137400000Y-109196000D01*
X137400000Y-106724484D02*
G75*
G02*
X140631397Y-106879939I1560000J-1235516D01*
G01*
X137919039Y-106880000D02*
G75*
G02*
X140000910Y-106879951I1040961J-1080000D01*
G01*
X140000910Y-109040049D02*
G75*
G02*
X137919039Y-109040000I-1040910J1080049D01*
G01*
X140631397Y-109040061D02*
G75*
G02*
X137400000Y-109195516I-1671397J1080061D01*
G01*
%TD*%
M02*
