%TF.GenerationSoftware,KiCad,Pcbnew,9.0.0*%
%TF.CreationDate,2025-04-29T21:45:17-04:00*%
%TF.ProjectId,Sensor_TCS3200,53656e73-6f72-45f5-9443-53333230302e,Ing. Alan C.*%
%TF.SameCoordinates,Original*%
%TF.FileFunction,Legend,Bot*%
%TF.FilePolarity,Positive*%
%FSLAX46Y46*%
G04 Gerber Fmt 4.6, Leading zero omitted, Abs format (unit mm)*
G04 Created by KiCad (PCBNEW 9.0.0) date 2025-04-29 21:45:17*
%MOMM*%
%LPD*%
G01*
G04 APERTURE LIST*
%ADD10C,0.150000*%
%ADD11C,0.010000*%
%ADD12C,0.120000*%
G04 APERTURE END LIST*
D10*
X159293333Y-96414819D02*
X159293333Y-97129104D01*
X159293333Y-97129104D02*
X159340952Y-97271961D01*
X159340952Y-97271961D02*
X159436190Y-97367200D01*
X159436190Y-97367200D02*
X159579047Y-97414819D01*
X159579047Y-97414819D02*
X159674285Y-97414819D01*
X158864761Y-96510057D02*
X158817142Y-96462438D01*
X158817142Y-96462438D02*
X158721904Y-96414819D01*
X158721904Y-96414819D02*
X158483809Y-96414819D01*
X158483809Y-96414819D02*
X158388571Y-96462438D01*
X158388571Y-96462438D02*
X158340952Y-96510057D01*
X158340952Y-96510057D02*
X158293333Y-96605295D01*
X158293333Y-96605295D02*
X158293333Y-96700533D01*
X158293333Y-96700533D02*
X158340952Y-96843390D01*
X158340952Y-96843390D02*
X158912380Y-97414819D01*
X158912380Y-97414819D02*
X158293333Y-97414819D01*
X135293333Y-96354819D02*
X135293333Y-97069104D01*
X135293333Y-97069104D02*
X135340952Y-97211961D01*
X135340952Y-97211961D02*
X135436190Y-97307200D01*
X135436190Y-97307200D02*
X135579047Y-97354819D01*
X135579047Y-97354819D02*
X135674285Y-97354819D01*
X134293333Y-97354819D02*
X134864761Y-97354819D01*
X134579047Y-97354819D02*
X134579047Y-96354819D01*
X134579047Y-96354819D02*
X134674285Y-96497676D01*
X134674285Y-96497676D02*
X134769523Y-96592914D01*
X134769523Y-96592914D02*
X134864761Y-96640533D01*
D11*
%TO.C,REF\u002A\u002A*%
X147547275Y-88928931D02*
X147631095Y-89373555D01*
X148249667Y-89628551D01*
X148620707Y-89376246D01*
X148694144Y-89326506D01*
X148791499Y-89261218D01*
X148875787Y-89205454D01*
X148942631Y-89162078D01*
X148987654Y-89133953D01*
X149006478Y-89123942D01*
X149018039Y-89131061D01*
X149052596Y-89160894D01*
X149104894Y-89209852D01*
X149170500Y-89273440D01*
X149244983Y-89347163D01*
X149323913Y-89426525D01*
X149402856Y-89507031D01*
X149477384Y-89584185D01*
X149543063Y-89653493D01*
X149595463Y-89710457D01*
X149630153Y-89750584D01*
X149642701Y-89769377D01*
X149639782Y-89777451D01*
X149619571Y-89813469D01*
X149582663Y-89872744D01*
X149532050Y-89950630D01*
X149470725Y-90042481D01*
X149401679Y-90143650D01*
X149363787Y-90198826D01*
X149298606Y-90294884D01*
X149242723Y-90378717D01*
X149199117Y-90445777D01*
X149170769Y-90491519D01*
X149160657Y-90511396D01*
X149160823Y-90512497D01*
X149169743Y-90537694D01*
X149190206Y-90589147D01*
X149219360Y-90660135D01*
X149254353Y-90743935D01*
X149292332Y-90833828D01*
X149330445Y-90923091D01*
X149365839Y-91005003D01*
X149395662Y-91072843D01*
X149417061Y-91119890D01*
X149427184Y-91139422D01*
X149433174Y-91141155D01*
X149469566Y-91148969D01*
X149534427Y-91161915D01*
X149622565Y-91178979D01*
X149728787Y-91199151D01*
X149847902Y-91221418D01*
X149910683Y-91233223D01*
X150025912Y-91255748D01*
X150126662Y-91276550D01*
X150207426Y-91294435D01*
X150262698Y-91308208D01*
X150286971Y-91316674D01*
X150291331Y-91325066D01*
X150298563Y-91366072D01*
X150304246Y-91434368D01*
X150308382Y-91523529D01*
X150310977Y-91627128D01*
X150312036Y-91738740D01*
X150311561Y-91851938D01*
X150309559Y-91960296D01*
X150306033Y-92057389D01*
X150300987Y-92136790D01*
X150294427Y-92192072D01*
X150286356Y-92216810D01*
X150281458Y-92219600D01*
X150244930Y-92231569D01*
X150181565Y-92247405D01*
X150098686Y-92265374D01*
X150003618Y-92283741D01*
X149971542Y-92289591D01*
X149823393Y-92316798D01*
X149706961Y-92338663D01*
X149618209Y-92356093D01*
X149553103Y-92369996D01*
X149507606Y-92381277D01*
X149477682Y-92390843D01*
X149459294Y-92399601D01*
X149448407Y-92408457D01*
X149447142Y-92409943D01*
X149429338Y-92440931D01*
X149402994Y-92497634D01*
X149370661Y-92573399D01*
X149334893Y-92661574D01*
X149298244Y-92755507D01*
X149263266Y-92848547D01*
X149232513Y-92934041D01*
X149208538Y-93005336D01*
X149193895Y-93055782D01*
X149191136Y-93078726D01*
X149192981Y-93081703D01*
X149212075Y-93110493D01*
X149247984Y-93163595D01*
X149297378Y-93236117D01*
X149356927Y-93323167D01*
X149423303Y-93419854D01*
X149441520Y-93446456D01*
X149505577Y-93541875D01*
X149560937Y-93627212D01*
X149604439Y-93697405D01*
X149632924Y-93747394D01*
X149643232Y-93772116D01*
X149641011Y-93778616D01*
X149617858Y-93810644D01*
X149572177Y-93862945D01*
X149507241Y-93931999D01*
X149426319Y-94014286D01*
X149332685Y-94106286D01*
X149279165Y-94157781D01*
X149194542Y-94237983D01*
X149120475Y-94306678D01*
X149060941Y-94360252D01*
X149019917Y-94395085D01*
X149001381Y-94407563D01*
X148988646Y-94402938D01*
X148949436Y-94381057D01*
X148892495Y-94345273D01*
X148825250Y-94300117D01*
X148777438Y-94267165D01*
X148681985Y-94201727D01*
X148580125Y-94132228D01*
X148487088Y-94069075D01*
X148304832Y-93945800D01*
X148151841Y-94028520D01*
X148115817Y-94047613D01*
X148050303Y-94080272D01*
X147999640Y-94102819D01*
X147972564Y-94111226D01*
X147963703Y-94100430D01*
X147941699Y-94059323D01*
X147909199Y-93991549D01*
X147868010Y-93901409D01*
X147819942Y-93793205D01*
X147766802Y-93671237D01*
X147710399Y-93539808D01*
X147652542Y-93403218D01*
X147595038Y-93265767D01*
X147539697Y-93131758D01*
X147488326Y-93005491D01*
X147442735Y-92891268D01*
X147404732Y-92793390D01*
X147376124Y-92716157D01*
X147358721Y-92663871D01*
X147354331Y-92640833D01*
X147354628Y-92640160D01*
X147375077Y-92618863D01*
X147417850Y-92585508D01*
X147474117Y-92547011D01*
X147491877Y-92535256D01*
X147627014Y-92423735D01*
X147738856Y-92290906D01*
X147824755Y-92142298D01*
X147882062Y-91983440D01*
X147908131Y-91819860D01*
X147900313Y-91657088D01*
X147868644Y-91512315D01*
X147811782Y-91366124D01*
X147728888Y-91235703D01*
X147615131Y-91111813D01*
X147570433Y-91072235D01*
X147425935Y-90974723D01*
X147269838Y-90909050D01*
X147106667Y-90874630D01*
X146940943Y-90870874D01*
X146777192Y-90897194D01*
X146619936Y-90953003D01*
X146473698Y-91037714D01*
X146343004Y-91150737D01*
X146232374Y-91291487D01*
X146211105Y-91326342D01*
X146138810Y-91485655D01*
X146100415Y-91651552D01*
X146094914Y-91819737D01*
X146121301Y-91985913D01*
X146178570Y-92145784D01*
X146265717Y-92295053D01*
X146381736Y-92429423D01*
X146525622Y-92544599D01*
X146530294Y-92547702D01*
X146585964Y-92586933D01*
X146627689Y-92620286D01*
X146646746Y-92640833D01*
X146644342Y-92656941D01*
X146629391Y-92703844D01*
X146602881Y-92776539D01*
X146566620Y-92870725D01*
X146522416Y-92982098D01*
X146472076Y-93106358D01*
X146417407Y-93239202D01*
X146360218Y-93376327D01*
X146302316Y-93513432D01*
X146245510Y-93646215D01*
X146191606Y-93770374D01*
X146142412Y-93881606D01*
X146099737Y-93975609D01*
X146065387Y-94048082D01*
X146041171Y-94094722D01*
X146028897Y-94111226D01*
X146018689Y-94108991D01*
X145978586Y-94092926D01*
X145919318Y-94064759D01*
X145849619Y-94028520D01*
X145696629Y-93945800D01*
X145514373Y-94069075D01*
X145460527Y-94105579D01*
X145360374Y-94173784D01*
X145260525Y-94242098D01*
X145176211Y-94300117D01*
X145129679Y-94331736D01*
X145069200Y-94371020D01*
X145024357Y-94397912D01*
X145002455Y-94407883D01*
X144993045Y-94403650D01*
X144959031Y-94377721D01*
X144906595Y-94332070D01*
X144840301Y-94271186D01*
X144764713Y-94199561D01*
X144684396Y-94121683D01*
X144603913Y-94042045D01*
X144527829Y-93965135D01*
X144460707Y-93895445D01*
X144407112Y-93837464D01*
X144371608Y-93795684D01*
X144358759Y-93774593D01*
X144359500Y-93770581D01*
X144374793Y-93737920D01*
X144407462Y-93681412D01*
X144454350Y-93606163D01*
X144512301Y-93517275D01*
X144578157Y-93419854D01*
X144596627Y-93392982D01*
X144661482Y-93298423D01*
X144718609Y-93214827D01*
X144764678Y-93147084D01*
X144796359Y-93100086D01*
X144810324Y-93078726D01*
X144810668Y-93077811D01*
X144806546Y-93051678D01*
X144790807Y-92998740D01*
X144766004Y-92925647D01*
X144734689Y-92839052D01*
X144699417Y-92745608D01*
X144662740Y-92651965D01*
X144627212Y-92564777D01*
X144595386Y-92490695D01*
X144569816Y-92436371D01*
X144553053Y-92408457D01*
X144551374Y-92406724D01*
X144539372Y-92397956D01*
X144519103Y-92389115D01*
X144486529Y-92379292D01*
X144437616Y-92367583D01*
X144368327Y-92353080D01*
X144274625Y-92334876D01*
X144152476Y-92312066D01*
X143997842Y-92283741D01*
X143965770Y-92277780D01*
X143873893Y-92259352D01*
X143796607Y-92241892D01*
X143741236Y-92227133D01*
X143715105Y-92216810D01*
X143710733Y-92208197D01*
X143703445Y-92166826D01*
X143697669Y-92098241D01*
X143693410Y-92008868D01*
X143690673Y-91905135D01*
X143689462Y-91793465D01*
X143689782Y-91680287D01*
X143691636Y-91572026D01*
X143695030Y-91475108D01*
X143699967Y-91395959D01*
X143706452Y-91341006D01*
X143714489Y-91316674D01*
X143722696Y-91313079D01*
X143763519Y-91301748D01*
X143832524Y-91285722D01*
X143924203Y-91266195D01*
X144033050Y-91244362D01*
X144153558Y-91221418D01*
X144219357Y-91209159D01*
X144332135Y-91187901D01*
X144429207Y-91169287D01*
X144505382Y-91154328D01*
X144555469Y-91144036D01*
X144574276Y-91139422D01*
X144574983Y-91138471D01*
X144586961Y-91114310D01*
X144609794Y-91063694D01*
X144640630Y-90993338D01*
X144676613Y-90909958D01*
X144714891Y-90820270D01*
X144752609Y-90730989D01*
X144786913Y-90648832D01*
X144814949Y-90580513D01*
X144833864Y-90532748D01*
X144840803Y-90512254D01*
X144837742Y-90505043D01*
X144817372Y-90470728D01*
X144780422Y-90412970D01*
X144729860Y-90336299D01*
X144668657Y-90245248D01*
X144599781Y-90144350D01*
X144561994Y-90089093D01*
X144496782Y-89992215D01*
X144440871Y-89907193D01*
X144397241Y-89838662D01*
X144368877Y-89791260D01*
X144358759Y-89769623D01*
X144365790Y-89757887D01*
X144395197Y-89722818D01*
X144443441Y-89669745D01*
X144506093Y-89603164D01*
X144578725Y-89527574D01*
X144656908Y-89447472D01*
X144736214Y-89367354D01*
X144812213Y-89291718D01*
X144880478Y-89225062D01*
X144936580Y-89171882D01*
X144976090Y-89136676D01*
X144994579Y-89123942D01*
X145004843Y-89128893D01*
X145042530Y-89151857D01*
X145103348Y-89190938D01*
X145182913Y-89243272D01*
X145276843Y-89305996D01*
X145380754Y-89376246D01*
X145751794Y-89628551D01*
X146061080Y-89501053D01*
X146370365Y-89373555D01*
X146454186Y-88928931D01*
X146538006Y-88484307D01*
X147463454Y-88484307D01*
X147547275Y-88928931D01*
G36*
X147547275Y-88928931D02*
G01*
X147631095Y-89373555D01*
X148249667Y-89628551D01*
X148620707Y-89376246D01*
X148694144Y-89326506D01*
X148791499Y-89261218D01*
X148875787Y-89205454D01*
X148942631Y-89162078D01*
X148987654Y-89133953D01*
X149006478Y-89123942D01*
X149018039Y-89131061D01*
X149052596Y-89160894D01*
X149104894Y-89209852D01*
X149170500Y-89273440D01*
X149244983Y-89347163D01*
X149323913Y-89426525D01*
X149402856Y-89507031D01*
X149477384Y-89584185D01*
X149543063Y-89653493D01*
X149595463Y-89710457D01*
X149630153Y-89750584D01*
X149642701Y-89769377D01*
X149639782Y-89777451D01*
X149619571Y-89813469D01*
X149582663Y-89872744D01*
X149532050Y-89950630D01*
X149470725Y-90042481D01*
X149401679Y-90143650D01*
X149363787Y-90198826D01*
X149298606Y-90294884D01*
X149242723Y-90378717D01*
X149199117Y-90445777D01*
X149170769Y-90491519D01*
X149160657Y-90511396D01*
X149160823Y-90512497D01*
X149169743Y-90537694D01*
X149190206Y-90589147D01*
X149219360Y-90660135D01*
X149254353Y-90743935D01*
X149292332Y-90833828D01*
X149330445Y-90923091D01*
X149365839Y-91005003D01*
X149395662Y-91072843D01*
X149417061Y-91119890D01*
X149427184Y-91139422D01*
X149433174Y-91141155D01*
X149469566Y-91148969D01*
X149534427Y-91161915D01*
X149622565Y-91178979D01*
X149728787Y-91199151D01*
X149847902Y-91221418D01*
X149910683Y-91233223D01*
X150025912Y-91255748D01*
X150126662Y-91276550D01*
X150207426Y-91294435D01*
X150262698Y-91308208D01*
X150286971Y-91316674D01*
X150291331Y-91325066D01*
X150298563Y-91366072D01*
X150304246Y-91434368D01*
X150308382Y-91523529D01*
X150310977Y-91627128D01*
X150312036Y-91738740D01*
X150311561Y-91851938D01*
X150309559Y-91960296D01*
X150306033Y-92057389D01*
X150300987Y-92136790D01*
X150294427Y-92192072D01*
X150286356Y-92216810D01*
X150281458Y-92219600D01*
X150244930Y-92231569D01*
X150181565Y-92247405D01*
X150098686Y-92265374D01*
X150003618Y-92283741D01*
X149971542Y-92289591D01*
X149823393Y-92316798D01*
X149706961Y-92338663D01*
X149618209Y-92356093D01*
X149553103Y-92369996D01*
X149507606Y-92381277D01*
X149477682Y-92390843D01*
X149459294Y-92399601D01*
X149448407Y-92408457D01*
X149447142Y-92409943D01*
X149429338Y-92440931D01*
X149402994Y-92497634D01*
X149370661Y-92573399D01*
X149334893Y-92661574D01*
X149298244Y-92755507D01*
X149263266Y-92848547D01*
X149232513Y-92934041D01*
X149208538Y-93005336D01*
X149193895Y-93055782D01*
X149191136Y-93078726D01*
X149192981Y-93081703D01*
X149212075Y-93110493D01*
X149247984Y-93163595D01*
X149297378Y-93236117D01*
X149356927Y-93323167D01*
X149423303Y-93419854D01*
X149441520Y-93446456D01*
X149505577Y-93541875D01*
X149560937Y-93627212D01*
X149604439Y-93697405D01*
X149632924Y-93747394D01*
X149643232Y-93772116D01*
X149641011Y-93778616D01*
X149617858Y-93810644D01*
X149572177Y-93862945D01*
X149507241Y-93931999D01*
X149426319Y-94014286D01*
X149332685Y-94106286D01*
X149279165Y-94157781D01*
X149194542Y-94237983D01*
X149120475Y-94306678D01*
X149060941Y-94360252D01*
X149019917Y-94395085D01*
X149001381Y-94407563D01*
X148988646Y-94402938D01*
X148949436Y-94381057D01*
X148892495Y-94345273D01*
X148825250Y-94300117D01*
X148777438Y-94267165D01*
X148681985Y-94201727D01*
X148580125Y-94132228D01*
X148487088Y-94069075D01*
X148304832Y-93945800D01*
X148151841Y-94028520D01*
X148115817Y-94047613D01*
X148050303Y-94080272D01*
X147999640Y-94102819D01*
X147972564Y-94111226D01*
X147963703Y-94100430D01*
X147941699Y-94059323D01*
X147909199Y-93991549D01*
X147868010Y-93901409D01*
X147819942Y-93793205D01*
X147766802Y-93671237D01*
X147710399Y-93539808D01*
X147652542Y-93403218D01*
X147595038Y-93265767D01*
X147539697Y-93131758D01*
X147488326Y-93005491D01*
X147442735Y-92891268D01*
X147404732Y-92793390D01*
X147376124Y-92716157D01*
X147358721Y-92663871D01*
X147354331Y-92640833D01*
X147354628Y-92640160D01*
X147375077Y-92618863D01*
X147417850Y-92585508D01*
X147474117Y-92547011D01*
X147491877Y-92535256D01*
X147627014Y-92423735D01*
X147738856Y-92290906D01*
X147824755Y-92142298D01*
X147882062Y-91983440D01*
X147908131Y-91819860D01*
X147900313Y-91657088D01*
X147868644Y-91512315D01*
X147811782Y-91366124D01*
X147728888Y-91235703D01*
X147615131Y-91111813D01*
X147570433Y-91072235D01*
X147425935Y-90974723D01*
X147269838Y-90909050D01*
X147106667Y-90874630D01*
X146940943Y-90870874D01*
X146777192Y-90897194D01*
X146619936Y-90953003D01*
X146473698Y-91037714D01*
X146343004Y-91150737D01*
X146232374Y-91291487D01*
X146211105Y-91326342D01*
X146138810Y-91485655D01*
X146100415Y-91651552D01*
X146094914Y-91819737D01*
X146121301Y-91985913D01*
X146178570Y-92145784D01*
X146265717Y-92295053D01*
X146381736Y-92429423D01*
X146525622Y-92544599D01*
X146530294Y-92547702D01*
X146585964Y-92586933D01*
X146627689Y-92620286D01*
X146646746Y-92640833D01*
X146644342Y-92656941D01*
X146629391Y-92703844D01*
X146602881Y-92776539D01*
X146566620Y-92870725D01*
X146522416Y-92982098D01*
X146472076Y-93106358D01*
X146417407Y-93239202D01*
X146360218Y-93376327D01*
X146302316Y-93513432D01*
X146245510Y-93646215D01*
X146191606Y-93770374D01*
X146142412Y-93881606D01*
X146099737Y-93975609D01*
X146065387Y-94048082D01*
X146041171Y-94094722D01*
X146028897Y-94111226D01*
X146018689Y-94108991D01*
X145978586Y-94092926D01*
X145919318Y-94064759D01*
X145849619Y-94028520D01*
X145696629Y-93945800D01*
X145514373Y-94069075D01*
X145460527Y-94105579D01*
X145360374Y-94173784D01*
X145260525Y-94242098D01*
X145176211Y-94300117D01*
X145129679Y-94331736D01*
X145069200Y-94371020D01*
X145024357Y-94397912D01*
X145002455Y-94407883D01*
X144993045Y-94403650D01*
X144959031Y-94377721D01*
X144906595Y-94332070D01*
X144840301Y-94271186D01*
X144764713Y-94199561D01*
X144684396Y-94121683D01*
X144603913Y-94042045D01*
X144527829Y-93965135D01*
X144460707Y-93895445D01*
X144407112Y-93837464D01*
X144371608Y-93795684D01*
X144358759Y-93774593D01*
X144359500Y-93770581D01*
X144374793Y-93737920D01*
X144407462Y-93681412D01*
X144454350Y-93606163D01*
X144512301Y-93517275D01*
X144578157Y-93419854D01*
X144596627Y-93392982D01*
X144661482Y-93298423D01*
X144718609Y-93214827D01*
X144764678Y-93147084D01*
X144796359Y-93100086D01*
X144810324Y-93078726D01*
X144810668Y-93077811D01*
X144806546Y-93051678D01*
X144790807Y-92998740D01*
X144766004Y-92925647D01*
X144734689Y-92839052D01*
X144699417Y-92745608D01*
X144662740Y-92651965D01*
X144627212Y-92564777D01*
X144595386Y-92490695D01*
X144569816Y-92436371D01*
X144553053Y-92408457D01*
X144551374Y-92406724D01*
X144539372Y-92397956D01*
X144519103Y-92389115D01*
X144486529Y-92379292D01*
X144437616Y-92367583D01*
X144368327Y-92353080D01*
X144274625Y-92334876D01*
X144152476Y-92312066D01*
X143997842Y-92283741D01*
X143965770Y-92277780D01*
X143873893Y-92259352D01*
X143796607Y-92241892D01*
X143741236Y-92227133D01*
X143715105Y-92216810D01*
X143710733Y-92208197D01*
X143703445Y-92166826D01*
X143697669Y-92098241D01*
X143693410Y-92008868D01*
X143690673Y-91905135D01*
X143689462Y-91793465D01*
X143689782Y-91680287D01*
X143691636Y-91572026D01*
X143695030Y-91475108D01*
X143699967Y-91395959D01*
X143706452Y-91341006D01*
X143714489Y-91316674D01*
X143722696Y-91313079D01*
X143763519Y-91301748D01*
X143832524Y-91285722D01*
X143924203Y-91266195D01*
X144033050Y-91244362D01*
X144153558Y-91221418D01*
X144219357Y-91209159D01*
X144332135Y-91187901D01*
X144429207Y-91169287D01*
X144505382Y-91154328D01*
X144555469Y-91144036D01*
X144574276Y-91139422D01*
X144574983Y-91138471D01*
X144586961Y-91114310D01*
X144609794Y-91063694D01*
X144640630Y-90993338D01*
X144676613Y-90909958D01*
X144714891Y-90820270D01*
X144752609Y-90730989D01*
X144786913Y-90648832D01*
X144814949Y-90580513D01*
X144833864Y-90532748D01*
X144840803Y-90512254D01*
X144837742Y-90505043D01*
X144817372Y-90470728D01*
X144780422Y-90412970D01*
X144729860Y-90336299D01*
X144668657Y-90245248D01*
X144599781Y-90144350D01*
X144561994Y-90089093D01*
X144496782Y-89992215D01*
X144440871Y-89907193D01*
X144397241Y-89838662D01*
X144368877Y-89791260D01*
X144358759Y-89769623D01*
X144365790Y-89757887D01*
X144395197Y-89722818D01*
X144443441Y-89669745D01*
X144506093Y-89603164D01*
X144578725Y-89527574D01*
X144656908Y-89447472D01*
X144736214Y-89367354D01*
X144812213Y-89291718D01*
X144880478Y-89225062D01*
X144936580Y-89171882D01*
X144976090Y-89136676D01*
X144994579Y-89123942D01*
X145004843Y-89128893D01*
X145042530Y-89151857D01*
X145103348Y-89190938D01*
X145182913Y-89243272D01*
X145276843Y-89305996D01*
X145380754Y-89376246D01*
X145751794Y-89628551D01*
X146061080Y-89501053D01*
X146370365Y-89373555D01*
X146454186Y-88928931D01*
X146538006Y-88484307D01*
X147463454Y-88484307D01*
X147547275Y-88928931D01*
G37*
D12*
%TO.C,J2*%
X158265000Y-97900000D02*
X158565507Y-97900000D01*
X158265000Y-100775000D02*
X158265000Y-97900000D01*
X158265000Y-100775000D02*
X158351724Y-100775000D01*
X158265000Y-101460000D02*
X158265000Y-102145000D01*
X158265000Y-102145000D02*
X158960000Y-102145000D01*
X159354493Y-97900000D02*
X159655000Y-97900000D01*
X159568276Y-100775000D02*
X159655000Y-100775000D01*
X159655000Y-100775000D02*
X159655000Y-97900000D01*
%TO.C,J1*%
X134265000Y-99145000D02*
X134265000Y-102020000D01*
X134351724Y-99145000D02*
X134265000Y-99145000D01*
X134565507Y-102020000D02*
X134265000Y-102020000D01*
X135655000Y-97775000D02*
X134960000Y-97775000D01*
X135655000Y-98460000D02*
X135655000Y-97775000D01*
X135655000Y-99145000D02*
X135568276Y-99145000D01*
X135655000Y-99145000D02*
X135655000Y-102020000D01*
X135655000Y-102020000D02*
X135354493Y-102020000D01*
%TD*%
M02*
