%TF.GenerationSoftware,KiCad,Pcbnew,9.0.0*%
%TF.CreationDate,2025-04-29T21:45:17-04:00*%
%TF.ProjectId,Sensor_TCS3200,53656e73-6f72-45f5-9443-53333230302e,Ing. Alan C.*%
%TF.SameCoordinates,Original*%
%TF.FileFunction,Copper,L2,Bot*%
%TF.FilePolarity,Positive*%
%FSLAX46Y46*%
G04 Gerber Fmt 4.6, Leading zero omitted, Abs format (unit mm)*
G04 Created by KiCad (PCBNEW 9.0.0) date 2025-04-29 21:45:17*
%MOMM*%
%LPD*%
G01*
G04 APERTURE LIST*
%TA.AperFunction,ComponentPad*%
%ADD10R,1.800000X1.800000*%
%TD*%
%TA.AperFunction,ComponentPad*%
%ADD11C,1.800000*%
%TD*%
%TA.AperFunction,ComponentPad*%
%ADD12C,0.800000*%
%TD*%
%TA.AperFunction,ViaPad*%
%ADD13C,2.000000*%
%TD*%
%TA.AperFunction,ViaPad*%
%ADD14C,0.600000*%
%TD*%
%TA.AperFunction,Conductor*%
%ADD15C,0.330000*%
%TD*%
%TA.AperFunction,Conductor*%
%ADD16C,0.200000*%
%TD*%
G04 APERTURE END LIST*
D10*
%TO.P,D1,1,K*%
%TO.N,GND*%
X137420000Y-95460000D03*
D11*
%TO.P,D1,2,A*%
%TO.N,Net-(D1-A)*%
X139960000Y-95460000D03*
%TD*%
D10*
%TO.P,D2,1,K*%
%TO.N,GND*%
X153960000Y-95460000D03*
D11*
%TO.P,D2,2,A*%
%TO.N,Net-(D2-A)*%
X156500000Y-95460000D03*
%TD*%
D10*
%TO.P,D4,1,K*%
%TO.N,GND*%
X153960000Y-107460000D03*
D11*
%TO.P,D4,2,A*%
%TO.N,Net-(D4-A)*%
X156500000Y-107460000D03*
%TD*%
D10*
%TO.P,D3,1,K*%
%TO.N,GND*%
X137690000Y-107960000D03*
D11*
%TO.P,D3,2,A*%
%TO.N,Net-(D3-A)*%
X140230000Y-107960000D03*
%TD*%
D12*
%TO.P,J2,1,Pin_1*%
%TO.N,Net-(J2-Pin_1)*%
X158960000Y-101460000D03*
%TO.P,J2,2,Pin_2*%
%TO.N,Net-(J2-Pin_2)*%
X158960000Y-100460000D03*
%TO.P,J2,3,Pin_3*%
%TO.N,Net-(J2-Pin_3)*%
X158960000Y-99460000D03*
%TO.P,J2,4,Pin_4*%
%TO.N,Net-(J2-Pin_4)*%
X158960000Y-98460000D03*
%TD*%
%TO.P,J1,1,Pin_1*%
%TO.N,Net-(J1-Pin_1)*%
X134960000Y-98460000D03*
%TO.P,J1,2,Pin_2*%
%TO.N,Net-(J1-Pin_2)*%
X134960000Y-99460000D03*
%TO.P,J1,3,Pin_3*%
%TO.N,Net-(J1-Pin_3)*%
X134960000Y-100460000D03*
%TO.P,J1,4,Pin_4*%
%TO.N,GND*%
X134960000Y-101460000D03*
%TD*%
D13*
%TO.N,*%
X133460000Y-110960000D03*
X160960000Y-110960000D03*
X160960000Y-89960000D03*
X133460000Y-89960000D03*
D14*
%TO.N,GND*%
X153500000Y-102560000D03*
X144861416Y-93998802D03*
X149000000Y-93000000D03*
X139000000Y-101060000D03*
X153500000Y-97500000D03*
X139000000Y-97400000D03*
%TO.N,Net-(D1-A)*%
X142500000Y-97400000D03*
X142500000Y-102500000D03*
%TO.N,Net-(D2-A)*%
X150560000Y-103500000D03*
X156500000Y-97500000D03*
%TO.N,Net-(J1-Pin_2)*%
X145500000Y-97000000D03*
X147000000Y-99500000D03*
%TD*%
D15*
%TO.N,GND*%
X139000000Y-97400000D02*
X139000000Y-101060000D01*
X153500000Y-102560000D02*
X153500000Y-97500000D01*
X144861416Y-93998802D02*
X144861416Y-93638584D01*
X144861416Y-93638584D02*
X145500000Y-93000000D01*
X145500000Y-93000000D02*
X149000000Y-93000000D01*
D16*
%TO.N,Net-(D1-A)*%
X142500000Y-102500000D02*
X142500000Y-97400000D01*
%TO.N,Net-(D2-A)*%
X156960000Y-95920000D02*
X156500000Y-95460000D01*
X156500000Y-97500000D02*
X156500000Y-103500000D01*
X156500000Y-103500000D02*
X150560000Y-103500000D01*
%TO.N,Net-(J1-Pin_2)*%
X145500000Y-97000000D02*
X147000000Y-97000000D01*
X147000000Y-97000000D02*
X147000000Y-99500000D01*
%TD*%
%TA.AperFunction,NonConductor*%
G36*
X132602121Y-88519685D02*
G01*
X132647876Y-88572489D01*
X132657820Y-88641647D01*
X132628795Y-88705203D01*
X132607970Y-88724316D01*
X132482490Y-88815483D01*
X132482488Y-88815485D01*
X132482487Y-88815485D01*
X132315484Y-88982488D01*
X132224318Y-89107967D01*
X132168987Y-89150632D01*
X132099374Y-89156611D01*
X132037579Y-89124005D01*
X132003222Y-89063166D01*
X132000000Y-89035081D01*
X132000000Y-88624000D01*
X132019685Y-88556961D01*
X132072489Y-88511206D01*
X132124000Y-88500000D01*
X132535082Y-88500000D01*
X132602121Y-88519685D01*
G37*
%TD.AperFunction*%
%TA.AperFunction,NonConductor*%
G36*
X162402539Y-88519685D02*
G01*
X162448294Y-88572489D01*
X162459500Y-88624000D01*
X162459500Y-89089448D01*
X162439815Y-89156487D01*
X162387011Y-89202242D01*
X162317853Y-89212186D01*
X162254297Y-89183161D01*
X162235182Y-89162334D01*
X162207334Y-89124005D01*
X162104517Y-88982490D01*
X161937510Y-88815483D01*
X161812031Y-88724317D01*
X161769367Y-88668988D01*
X161763388Y-88599374D01*
X161795994Y-88537579D01*
X161856833Y-88503222D01*
X161884918Y-88500000D01*
X162335500Y-88500000D01*
X162402539Y-88519685D01*
G37*
%TD.AperFunction*%
%TA.AperFunction,NonConductor*%
G36*
X162421920Y-111741627D02*
G01*
X162456278Y-111802466D01*
X162459500Y-111830551D01*
X162459500Y-112335500D01*
X162439815Y-112402539D01*
X162387011Y-112448294D01*
X162335500Y-112459500D01*
X161830551Y-112459500D01*
X161763512Y-112439815D01*
X161717757Y-112387011D01*
X161707813Y-112317853D01*
X161736838Y-112254297D01*
X161757662Y-112235184D01*
X161937510Y-112104517D01*
X162104517Y-111937510D01*
X162235183Y-111757664D01*
X162290512Y-111715000D01*
X162360126Y-111709021D01*
X162421920Y-111741627D01*
G37*
%TD.AperFunction*%
%TA.AperFunction,NonConductor*%
G36*
X160102121Y-88519685D02*
G01*
X160147876Y-88572489D01*
X160157820Y-88641647D01*
X160128795Y-88705203D01*
X160107970Y-88724316D01*
X159982490Y-88815483D01*
X159982488Y-88815485D01*
X159982487Y-88815485D01*
X159815485Y-88982487D01*
X159815485Y-88982488D01*
X159815483Y-88982490D01*
X159777273Y-89035081D01*
X159676657Y-89173566D01*
X159569433Y-89384003D01*
X159496446Y-89608631D01*
X159459500Y-89841902D01*
X159459500Y-90078097D01*
X159496446Y-90311368D01*
X159569433Y-90535996D01*
X159660641Y-90715000D01*
X159676657Y-90746433D01*
X159815483Y-90937510D01*
X159982490Y-91104517D01*
X160173567Y-91243343D01*
X160272991Y-91294002D01*
X160384003Y-91350566D01*
X160384005Y-91350566D01*
X160384008Y-91350568D01*
X160504412Y-91389689D01*
X160608631Y-91423553D01*
X160841903Y-91460500D01*
X160841908Y-91460500D01*
X161078097Y-91460500D01*
X161311368Y-91423553D01*
X161535992Y-91350568D01*
X161746433Y-91243343D01*
X161937510Y-91104517D01*
X162104517Y-90937510D01*
X162235183Y-90757664D01*
X162290512Y-90715000D01*
X162360126Y-90709021D01*
X162421920Y-90741627D01*
X162456278Y-90802466D01*
X162459500Y-90830551D01*
X162459500Y-110089448D01*
X162439815Y-110156487D01*
X162387011Y-110202242D01*
X162317853Y-110212186D01*
X162254297Y-110183161D01*
X162235182Y-110162334D01*
X162207334Y-110124005D01*
X162104517Y-109982490D01*
X161937510Y-109815483D01*
X161746433Y-109676657D01*
X161535996Y-109569433D01*
X161311368Y-109496446D01*
X161078097Y-109459500D01*
X161078092Y-109459500D01*
X160841908Y-109459500D01*
X160841903Y-109459500D01*
X160608631Y-109496446D01*
X160384003Y-109569433D01*
X160173566Y-109676657D01*
X160064550Y-109755862D01*
X159982490Y-109815483D01*
X159982488Y-109815485D01*
X159982487Y-109815485D01*
X159815485Y-109982487D01*
X159815485Y-109982488D01*
X159815483Y-109982490D01*
X159777273Y-110035081D01*
X159676657Y-110173566D01*
X159569433Y-110384003D01*
X159496446Y-110608631D01*
X159459500Y-110841902D01*
X159459500Y-111078097D01*
X159496446Y-111311368D01*
X159569433Y-111535996D01*
X159660641Y-111715000D01*
X159676657Y-111746433D01*
X159815483Y-111937510D01*
X159982490Y-112104517D01*
X160162335Y-112235183D01*
X160205000Y-112290512D01*
X160210979Y-112360126D01*
X160178373Y-112421920D01*
X160117534Y-112456278D01*
X160089449Y-112459500D01*
X134330551Y-112459500D01*
X134263512Y-112439815D01*
X134217757Y-112387011D01*
X134207813Y-112317853D01*
X134236838Y-112254297D01*
X134257662Y-112235184D01*
X134437510Y-112104517D01*
X134604517Y-111937510D01*
X134743343Y-111746433D01*
X134850568Y-111535992D01*
X134923553Y-111311368D01*
X134960500Y-111078097D01*
X134960500Y-110841902D01*
X134923553Y-110608631D01*
X134850566Y-110384003D01*
X134763020Y-110212186D01*
X134743343Y-110173567D01*
X134604517Y-109982490D01*
X134437510Y-109815483D01*
X134246433Y-109676657D01*
X134035996Y-109569433D01*
X133811368Y-109496446D01*
X133578097Y-109459500D01*
X133578092Y-109459500D01*
X133341908Y-109459500D01*
X133341903Y-109459500D01*
X133108631Y-109496446D01*
X132884003Y-109569433D01*
X132673566Y-109676657D01*
X132564550Y-109755862D01*
X132482490Y-109815483D01*
X132482488Y-109815485D01*
X132482487Y-109815485D01*
X132315484Y-109982488D01*
X132224318Y-110107967D01*
X132168987Y-110150632D01*
X132099374Y-110156611D01*
X132037579Y-110124005D01*
X132003222Y-110063166D01*
X132000000Y-110035081D01*
X132000000Y-107012135D01*
X136289500Y-107012135D01*
X136289500Y-108907870D01*
X136289501Y-108907876D01*
X136295908Y-108967483D01*
X136346202Y-109102328D01*
X136346206Y-109102335D01*
X136432452Y-109217544D01*
X136432455Y-109217547D01*
X136547664Y-109303793D01*
X136547671Y-109303797D01*
X136682517Y-109354091D01*
X136682516Y-109354091D01*
X136689444Y-109354835D01*
X136742127Y-109360500D01*
X138637872Y-109360499D01*
X138697483Y-109354091D01*
X138832331Y-109303796D01*
X138947546Y-109217546D01*
X139033796Y-109102331D01*
X139061429Y-109028243D01*
X139063601Y-109022420D01*
X139105471Y-108966486D01*
X139170936Y-108942068D01*
X139239209Y-108956919D01*
X139267464Y-108978071D01*
X139317636Y-109028243D01*
X139317641Y-109028247D01*
X139419603Y-109102326D01*
X139495978Y-109157815D01*
X139624375Y-109223237D01*
X139692393Y-109257895D01*
X139692396Y-109257896D01*
X139797221Y-109291955D01*
X139902049Y-109326015D01*
X140119778Y-109360500D01*
X140119779Y-109360500D01*
X140340221Y-109360500D01*
X140340222Y-109360500D01*
X140557951Y-109326015D01*
X140767606Y-109257895D01*
X140964022Y-109157815D01*
X141142365Y-109028242D01*
X141298242Y-108872365D01*
X141427815Y-108694022D01*
X141527895Y-108497606D01*
X141596015Y-108287951D01*
X141630500Y-108070222D01*
X141630500Y-107849778D01*
X141596015Y-107632049D01*
X141527895Y-107422394D01*
X141527895Y-107422393D01*
X141490895Y-107349778D01*
X141427815Y-107225978D01*
X141359571Y-107132047D01*
X141298247Y-107047641D01*
X141298243Y-107047636D01*
X141142363Y-106891756D01*
X141142358Y-106891752D01*
X140964025Y-106762187D01*
X140964024Y-106762186D01*
X140964022Y-106762185D01*
X140846791Y-106702452D01*
X140767606Y-106662104D01*
X140767603Y-106662103D01*
X140658754Y-106626737D01*
X140557952Y-106593985D01*
X140449086Y-106576742D01*
X140340222Y-106559500D01*
X140119778Y-106559500D01*
X140047201Y-106570995D01*
X139902047Y-106593985D01*
X139692396Y-106662103D01*
X139692393Y-106662104D01*
X139495974Y-106762187D01*
X139317641Y-106891752D01*
X139317636Y-106891756D01*
X139267463Y-106941929D01*
X139206140Y-106975413D01*
X139136448Y-106970428D01*
X139080515Y-106928557D01*
X139063601Y-106897580D01*
X139033797Y-106817671D01*
X139033793Y-106817664D01*
X138947547Y-106702455D01*
X138947544Y-106702452D01*
X138832335Y-106616206D01*
X138832328Y-106616202D01*
X138697482Y-106565908D01*
X138697483Y-106565908D01*
X138637883Y-106559501D01*
X138637881Y-106559500D01*
X138637873Y-106559500D01*
X138637864Y-106559500D01*
X136742129Y-106559500D01*
X136742123Y-106559501D01*
X136682516Y-106565908D01*
X136547671Y-106616202D01*
X136547664Y-106616206D01*
X136432455Y-106702452D01*
X136432452Y-106702455D01*
X136346206Y-106817664D01*
X136346202Y-106817671D01*
X136295908Y-106952517D01*
X136289501Y-107012116D01*
X136289500Y-107012135D01*
X132000000Y-107012135D01*
X132000000Y-106512135D01*
X152559500Y-106512135D01*
X152559500Y-108407870D01*
X152559501Y-108407876D01*
X152565908Y-108467483D01*
X152616202Y-108602328D01*
X152616206Y-108602335D01*
X152702452Y-108717544D01*
X152702455Y-108717547D01*
X152817664Y-108803793D01*
X152817671Y-108803797D01*
X152952517Y-108854091D01*
X152952516Y-108854091D01*
X152959444Y-108854835D01*
X153012127Y-108860500D01*
X154907872Y-108860499D01*
X154967483Y-108854091D01*
X155102331Y-108803796D01*
X155217546Y-108717546D01*
X155303796Y-108602331D01*
X155331429Y-108528243D01*
X155333601Y-108522420D01*
X155375471Y-108466486D01*
X155440936Y-108442068D01*
X155509209Y-108456919D01*
X155537464Y-108478071D01*
X155587636Y-108528243D01*
X155587641Y-108528247D01*
X155689603Y-108602326D01*
X155765978Y-108657815D01*
X155894375Y-108723237D01*
X155962393Y-108757895D01*
X155962396Y-108757896D01*
X156012841Y-108774286D01*
X156172049Y-108826015D01*
X156389778Y-108860500D01*
X156389779Y-108860500D01*
X156610221Y-108860500D01*
X156610222Y-108860500D01*
X156827951Y-108826015D01*
X157037606Y-108757895D01*
X157234022Y-108657815D01*
X157412365Y-108528242D01*
X157568242Y-108372365D01*
X157697815Y-108194022D01*
X157797895Y-107997606D01*
X157866015Y-107787951D01*
X157900500Y-107570222D01*
X157900500Y-107349778D01*
X157866015Y-107132049D01*
X157813502Y-106970428D01*
X157797896Y-106922396D01*
X157797895Y-106922393D01*
X157744532Y-106817664D01*
X157697815Y-106725978D01*
X157651408Y-106662104D01*
X157568247Y-106547641D01*
X157568243Y-106547636D01*
X157412363Y-106391756D01*
X157412358Y-106391752D01*
X157234025Y-106262187D01*
X157234024Y-106262186D01*
X157234022Y-106262185D01*
X157116791Y-106202452D01*
X157037606Y-106162104D01*
X157037603Y-106162103D01*
X156827952Y-106093985D01*
X156719086Y-106076742D01*
X156610222Y-106059500D01*
X156389778Y-106059500D01*
X156317201Y-106070995D01*
X156172047Y-106093985D01*
X155962396Y-106162103D01*
X155962393Y-106162104D01*
X155765974Y-106262187D01*
X155587641Y-106391752D01*
X155587636Y-106391756D01*
X155537463Y-106441929D01*
X155476140Y-106475413D01*
X155406448Y-106470428D01*
X155350515Y-106428557D01*
X155333601Y-106397580D01*
X155303797Y-106317671D01*
X155303793Y-106317664D01*
X155217547Y-106202455D01*
X155217544Y-106202452D01*
X155102335Y-106116206D01*
X155102328Y-106116202D01*
X154967482Y-106065908D01*
X154967483Y-106065908D01*
X154907883Y-106059501D01*
X154907881Y-106059500D01*
X154907873Y-106059500D01*
X154907864Y-106059500D01*
X153012129Y-106059500D01*
X153012123Y-106059501D01*
X152952516Y-106065908D01*
X152817671Y-106116202D01*
X152817664Y-106116206D01*
X152702455Y-106202452D01*
X152702452Y-106202455D01*
X152616206Y-106317664D01*
X152616202Y-106317671D01*
X152565908Y-106452517D01*
X152559501Y-106512116D01*
X152559500Y-106512135D01*
X132000000Y-106512135D01*
X132000000Y-103421153D01*
X149759500Y-103421153D01*
X149759500Y-103578846D01*
X149790261Y-103733489D01*
X149790264Y-103733501D01*
X149850602Y-103879172D01*
X149850609Y-103879185D01*
X149938210Y-104010288D01*
X149938213Y-104010292D01*
X150049707Y-104121786D01*
X150049711Y-104121789D01*
X150180814Y-104209390D01*
X150180827Y-104209397D01*
X150326498Y-104269735D01*
X150326503Y-104269737D01*
X150481153Y-104300499D01*
X150481156Y-104300500D01*
X150481158Y-104300500D01*
X150638844Y-104300500D01*
X150638845Y-104300499D01*
X150793497Y-104269737D01*
X150939179Y-104209394D01*
X150939185Y-104209390D01*
X151070875Y-104121398D01*
X151137553Y-104100520D01*
X151139766Y-104100500D01*
X156579055Y-104100500D01*
X156579057Y-104100500D01*
X156731784Y-104059577D01*
X156868716Y-103980520D01*
X156980520Y-103868716D01*
X157059577Y-103731784D01*
X157100500Y-103579057D01*
X157100500Y-98371304D01*
X158059500Y-98371304D01*
X158059500Y-98548695D01*
X158094103Y-98722658D01*
X158094106Y-98722667D01*
X158161983Y-98886540D01*
X158161990Y-98886553D01*
X158165037Y-98891113D01*
X158185912Y-98957792D01*
X158167425Y-99025171D01*
X158165037Y-99028887D01*
X158161990Y-99033446D01*
X158161983Y-99033459D01*
X158094106Y-99197332D01*
X158094103Y-99197341D01*
X158059500Y-99371304D01*
X158059500Y-99548695D01*
X158094103Y-99722658D01*
X158094106Y-99722667D01*
X158161983Y-99886540D01*
X158161990Y-99886553D01*
X158165037Y-99891113D01*
X158185912Y-99957792D01*
X158167425Y-100025171D01*
X158165037Y-100028887D01*
X158161990Y-100033446D01*
X158161983Y-100033459D01*
X158094106Y-100197332D01*
X158094103Y-100197341D01*
X158059500Y-100371304D01*
X158059500Y-100548695D01*
X158094103Y-100722658D01*
X158094106Y-100722667D01*
X158161983Y-100886540D01*
X158161990Y-100886553D01*
X158165037Y-100891113D01*
X158185912Y-100957792D01*
X158167425Y-101025171D01*
X158165037Y-101028887D01*
X158161990Y-101033446D01*
X158161983Y-101033459D01*
X158094106Y-101197332D01*
X158094103Y-101197341D01*
X158059500Y-101371304D01*
X158059500Y-101548695D01*
X158094103Y-101722658D01*
X158094106Y-101722667D01*
X158161983Y-101886540D01*
X158161990Y-101886553D01*
X158260535Y-102034034D01*
X158260538Y-102034038D01*
X158385961Y-102159461D01*
X158385965Y-102159464D01*
X158533446Y-102258009D01*
X158533459Y-102258016D01*
X158656363Y-102308923D01*
X158697334Y-102325894D01*
X158697336Y-102325894D01*
X158697341Y-102325896D01*
X158871304Y-102360499D01*
X158871307Y-102360500D01*
X158871309Y-102360500D01*
X159048693Y-102360500D01*
X159048694Y-102360499D01*
X159106682Y-102348964D01*
X159222658Y-102325896D01*
X159222661Y-102325894D01*
X159222666Y-102325894D01*
X159386547Y-102258013D01*
X159534035Y-102159464D01*
X159659464Y-102034035D01*
X159758013Y-101886547D01*
X159825894Y-101722666D01*
X159860500Y-101548691D01*
X159860500Y-101371309D01*
X159860500Y-101371306D01*
X159860499Y-101371304D01*
X159825896Y-101197341D01*
X159825893Y-101197332D01*
X159758015Y-101033457D01*
X159758014Y-101033455D01*
X159758013Y-101033453D01*
X159754965Y-101028892D01*
X159734086Y-100962217D01*
X159752569Y-100894837D01*
X159754962Y-100891113D01*
X159758013Y-100886547D01*
X159825894Y-100722666D01*
X159834217Y-100680827D01*
X159860499Y-100548695D01*
X159860500Y-100548693D01*
X159860500Y-100371306D01*
X159860499Y-100371304D01*
X159825896Y-100197341D01*
X159825893Y-100197332D01*
X159758015Y-100033457D01*
X159758014Y-100033455D01*
X159758013Y-100033453D01*
X159754965Y-100028892D01*
X159734086Y-99962217D01*
X159752569Y-99894837D01*
X159754962Y-99891113D01*
X159758013Y-99886547D01*
X159825894Y-99722666D01*
X159860500Y-99548691D01*
X159860500Y-99371309D01*
X159860500Y-99371306D01*
X159860499Y-99371304D01*
X159825896Y-99197341D01*
X159825893Y-99197332D01*
X159758015Y-99033457D01*
X159758014Y-99033455D01*
X159758013Y-99033453D01*
X159754965Y-99028892D01*
X159734086Y-98962217D01*
X159752569Y-98894837D01*
X159754962Y-98891113D01*
X159758013Y-98886547D01*
X159825894Y-98722666D01*
X159860500Y-98548691D01*
X159860500Y-98371309D01*
X159860500Y-98371306D01*
X159860499Y-98371304D01*
X159825896Y-98197341D01*
X159825893Y-98197332D01*
X159758016Y-98033459D01*
X159758009Y-98033446D01*
X159659464Y-97885965D01*
X159659461Y-97885961D01*
X159534038Y-97760538D01*
X159534034Y-97760535D01*
X159386553Y-97661990D01*
X159386540Y-97661983D01*
X159222667Y-97594106D01*
X159222658Y-97594103D01*
X159048694Y-97559500D01*
X159048691Y-97559500D01*
X158871309Y-97559500D01*
X158871306Y-97559500D01*
X158697341Y-97594103D01*
X158697332Y-97594106D01*
X158533459Y-97661983D01*
X158533446Y-97661990D01*
X158385965Y-97760535D01*
X158385961Y-97760538D01*
X158260538Y-97885961D01*
X158260535Y-97885965D01*
X158161990Y-98033446D01*
X158161983Y-98033459D01*
X158094106Y-98197332D01*
X158094103Y-98197341D01*
X158059500Y-98371304D01*
X157100500Y-98371304D01*
X157100500Y-98079765D01*
X157120185Y-98012726D01*
X157121398Y-98010874D01*
X157142185Y-97979765D01*
X157209394Y-97879179D01*
X157269737Y-97733497D01*
X157300500Y-97578842D01*
X157300500Y-97421158D01*
X157300500Y-97421155D01*
X157300499Y-97421153D01*
X157292148Y-97379172D01*
X157269737Y-97266503D01*
X157228314Y-97166498D01*
X157209397Y-97120827D01*
X157209390Y-97120814D01*
X157121789Y-96989711D01*
X157121786Y-96989707D01*
X157060488Y-96928409D01*
X157027003Y-96867086D01*
X157031987Y-96797394D01*
X157073859Y-96741461D01*
X157091867Y-96730247D01*
X157234022Y-96657815D01*
X157412365Y-96528242D01*
X157568242Y-96372365D01*
X157697815Y-96194022D01*
X157797895Y-95997606D01*
X157866015Y-95787951D01*
X157900500Y-95570222D01*
X157900500Y-95349778D01*
X157866015Y-95132049D01*
X157797895Y-94922394D01*
X157797895Y-94922393D01*
X157763237Y-94854375D01*
X157697815Y-94725978D01*
X157639501Y-94645715D01*
X157568247Y-94547641D01*
X157568243Y-94547636D01*
X157412363Y-94391756D01*
X157412358Y-94391752D01*
X157234025Y-94262187D01*
X157234024Y-94262186D01*
X157234022Y-94262185D01*
X157116791Y-94202452D01*
X157037606Y-94162104D01*
X157037603Y-94162103D01*
X156827952Y-94093985D01*
X156719086Y-94076742D01*
X156610222Y-94059500D01*
X156389778Y-94059500D01*
X156317201Y-94070995D01*
X156172047Y-94093985D01*
X155962396Y-94162103D01*
X155962393Y-94162104D01*
X155765974Y-94262187D01*
X155587641Y-94391752D01*
X155587636Y-94391756D01*
X155537463Y-94441929D01*
X155476140Y-94475413D01*
X155406448Y-94470428D01*
X155350515Y-94428557D01*
X155333601Y-94397580D01*
X155303797Y-94317671D01*
X155303793Y-94317664D01*
X155217547Y-94202455D01*
X155217544Y-94202452D01*
X155102335Y-94116206D01*
X155102328Y-94116202D01*
X154967482Y-94065908D01*
X154967483Y-94065908D01*
X154907883Y-94059501D01*
X154907881Y-94059500D01*
X154907873Y-94059500D01*
X154907864Y-94059500D01*
X153012129Y-94059500D01*
X153012123Y-94059501D01*
X152952516Y-94065908D01*
X152817671Y-94116202D01*
X152817664Y-94116206D01*
X152702455Y-94202452D01*
X152702452Y-94202455D01*
X152616206Y-94317664D01*
X152616202Y-94317671D01*
X152565908Y-94452517D01*
X152559501Y-94512116D01*
X152559500Y-94512135D01*
X152559500Y-96407870D01*
X152559501Y-96407876D01*
X152565908Y-96467483D01*
X152616202Y-96602328D01*
X152616206Y-96602335D01*
X152702452Y-96717544D01*
X152702455Y-96717547D01*
X152817664Y-96803793D01*
X152817667Y-96803795D01*
X152817668Y-96803795D01*
X152817669Y-96803796D01*
X152818729Y-96804191D01*
X152819636Y-96804870D01*
X152825454Y-96808047D01*
X152824997Y-96808882D01*
X152874665Y-96846058D01*
X152899087Y-96911521D01*
X152884241Y-96979795D01*
X152878507Y-96989266D01*
X152790608Y-97120816D01*
X152790602Y-97120827D01*
X152730264Y-97266498D01*
X152730261Y-97266510D01*
X152699500Y-97421153D01*
X152699500Y-97578846D01*
X152730261Y-97733489D01*
X152730264Y-97733501D01*
X152790603Y-97879174D01*
X152790604Y-97879175D01*
X152790606Y-97879179D01*
X152813022Y-97912726D01*
X152813602Y-97913594D01*
X152834480Y-97980271D01*
X152834500Y-97982485D01*
X152834500Y-102077513D01*
X152814815Y-102144552D01*
X152813602Y-102146404D01*
X152790609Y-102180814D01*
X152790602Y-102180827D01*
X152730264Y-102326498D01*
X152730261Y-102326510D01*
X152699500Y-102481153D01*
X152699500Y-102481158D01*
X152699500Y-102638842D01*
X152699500Y-102638844D01*
X152699499Y-102638844D01*
X152721871Y-102751308D01*
X152715644Y-102820900D01*
X152672781Y-102876077D01*
X152606892Y-102899322D01*
X152600254Y-102899500D01*
X151139766Y-102899500D01*
X151072727Y-102879815D01*
X151070875Y-102878602D01*
X150939185Y-102790609D01*
X150939172Y-102790602D01*
X150793501Y-102730264D01*
X150793489Y-102730261D01*
X150638845Y-102699500D01*
X150638842Y-102699500D01*
X150481158Y-102699500D01*
X150481155Y-102699500D01*
X150326510Y-102730261D01*
X150326498Y-102730264D01*
X150180827Y-102790602D01*
X150180814Y-102790609D01*
X150049711Y-102878210D01*
X150049707Y-102878213D01*
X149938213Y-102989707D01*
X149938210Y-102989711D01*
X149850609Y-103120814D01*
X149850602Y-103120827D01*
X149790264Y-103266498D01*
X149790261Y-103266510D01*
X149759500Y-103421153D01*
X132000000Y-103421153D01*
X132000000Y-98371304D01*
X134059500Y-98371304D01*
X134059500Y-98548695D01*
X134094103Y-98722658D01*
X134094106Y-98722667D01*
X134161983Y-98886540D01*
X134161990Y-98886553D01*
X134165037Y-98891113D01*
X134185912Y-98957792D01*
X134167425Y-99025171D01*
X134165037Y-99028887D01*
X134161990Y-99033446D01*
X134161983Y-99033459D01*
X134094106Y-99197332D01*
X134094103Y-99197341D01*
X134059500Y-99371304D01*
X134059500Y-99548695D01*
X134094103Y-99722658D01*
X134094106Y-99722667D01*
X134161983Y-99886540D01*
X134161990Y-99886553D01*
X134165037Y-99891113D01*
X134185912Y-99957792D01*
X134167425Y-100025171D01*
X134165037Y-100028887D01*
X134161990Y-100033446D01*
X134161983Y-100033459D01*
X134094106Y-100197332D01*
X134094103Y-100197341D01*
X134059500Y-100371304D01*
X134059500Y-100548695D01*
X134094103Y-100722658D01*
X134094106Y-100722667D01*
X134161983Y-100886540D01*
X134161990Y-100886553D01*
X134165037Y-100891113D01*
X134185912Y-100957792D01*
X134167425Y-101025171D01*
X134165037Y-101028887D01*
X134161990Y-101033446D01*
X134161983Y-101033459D01*
X134094106Y-101197332D01*
X134094103Y-101197341D01*
X134059500Y-101371304D01*
X134059500Y-101548695D01*
X134094103Y-101722658D01*
X134094106Y-101722667D01*
X134161983Y-101886540D01*
X134161990Y-101886553D01*
X134260535Y-102034034D01*
X134260538Y-102034038D01*
X134385961Y-102159461D01*
X134385965Y-102159464D01*
X134533446Y-102258009D01*
X134533459Y-102258016D01*
X134656363Y-102308923D01*
X134697334Y-102325894D01*
X134697336Y-102325894D01*
X134697341Y-102325896D01*
X134871304Y-102360499D01*
X134871307Y-102360500D01*
X134871309Y-102360500D01*
X135048693Y-102360500D01*
X135048694Y-102360499D01*
X135106682Y-102348964D01*
X135222658Y-102325896D01*
X135222661Y-102325894D01*
X135222666Y-102325894D01*
X135386547Y-102258013D01*
X135534035Y-102159464D01*
X135659464Y-102034035D01*
X135758013Y-101886547D01*
X135825894Y-101722666D01*
X135860500Y-101548691D01*
X135860500Y-101371309D01*
X135860500Y-101371306D01*
X135860499Y-101371304D01*
X135825896Y-101197341D01*
X135825893Y-101197332D01*
X135758015Y-101033457D01*
X135758014Y-101033455D01*
X135758013Y-101033453D01*
X135754965Y-101028892D01*
X135734086Y-100962217D01*
X135752569Y-100894837D01*
X135754962Y-100891113D01*
X135758013Y-100886547D01*
X135825894Y-100722666D01*
X135834217Y-100680827D01*
X135860499Y-100548695D01*
X135860500Y-100548693D01*
X135860500Y-100371306D01*
X135860499Y-100371304D01*
X135825896Y-100197341D01*
X135825893Y-100197332D01*
X135758015Y-100033457D01*
X135758014Y-100033455D01*
X135758013Y-100033453D01*
X135754965Y-100028892D01*
X135734086Y-99962217D01*
X135752569Y-99894837D01*
X135754962Y-99891113D01*
X135758013Y-99886547D01*
X135825894Y-99722666D01*
X135860500Y-99548691D01*
X135860500Y-99371309D01*
X135860500Y-99371306D01*
X135860499Y-99371304D01*
X135825896Y-99197341D01*
X135825893Y-99197332D01*
X135758015Y-99033457D01*
X135758014Y-99033455D01*
X135758013Y-99033453D01*
X135754965Y-99028892D01*
X135734086Y-98962217D01*
X135752569Y-98894837D01*
X135754962Y-98891113D01*
X135758013Y-98886547D01*
X135825894Y-98722666D01*
X135860500Y-98548691D01*
X135860500Y-98371309D01*
X135860500Y-98371306D01*
X135860499Y-98371304D01*
X135825896Y-98197341D01*
X135825893Y-98197332D01*
X135758016Y-98033459D01*
X135758009Y-98033446D01*
X135659464Y-97885965D01*
X135659461Y-97885961D01*
X135534038Y-97760538D01*
X135534034Y-97760535D01*
X135386553Y-97661990D01*
X135386540Y-97661983D01*
X135222667Y-97594106D01*
X135222658Y-97594103D01*
X135048694Y-97559500D01*
X135048691Y-97559500D01*
X134871309Y-97559500D01*
X134871306Y-97559500D01*
X134697341Y-97594103D01*
X134697332Y-97594106D01*
X134533459Y-97661983D01*
X134533446Y-97661990D01*
X134385965Y-97760535D01*
X134385961Y-97760538D01*
X134260538Y-97885961D01*
X134260535Y-97885965D01*
X134161990Y-98033446D01*
X134161983Y-98033459D01*
X134094106Y-98197332D01*
X134094103Y-98197341D01*
X134059500Y-98371304D01*
X132000000Y-98371304D01*
X132000000Y-94512135D01*
X136019500Y-94512135D01*
X136019500Y-96407870D01*
X136019501Y-96407876D01*
X136025908Y-96467483D01*
X136076202Y-96602328D01*
X136076206Y-96602335D01*
X136162452Y-96717544D01*
X136162455Y-96717547D01*
X136277664Y-96803793D01*
X136277671Y-96803797D01*
X136412517Y-96854091D01*
X136412516Y-96854091D01*
X136419444Y-96854835D01*
X136472127Y-96860500D01*
X138171434Y-96860499D01*
X138238473Y-96880184D01*
X138284228Y-96932987D01*
X138294172Y-97002146D01*
X138285995Y-97031951D01*
X138230264Y-97166498D01*
X138230261Y-97166510D01*
X138199500Y-97321153D01*
X138199500Y-97478846D01*
X138230261Y-97633489D01*
X138230264Y-97633501D01*
X138290603Y-97779174D01*
X138290604Y-97779175D01*
X138290606Y-97779179D01*
X138313602Y-97813594D01*
X138334480Y-97880271D01*
X138334500Y-97882485D01*
X138334500Y-100577513D01*
X138314815Y-100644552D01*
X138313602Y-100646404D01*
X138290609Y-100680814D01*
X138290602Y-100680827D01*
X138230264Y-100826498D01*
X138230261Y-100826510D01*
X138199500Y-100981153D01*
X138199500Y-101138846D01*
X138230261Y-101293489D01*
X138230264Y-101293501D01*
X138290602Y-101439172D01*
X138290609Y-101439185D01*
X138378210Y-101570288D01*
X138378213Y-101570292D01*
X138489707Y-101681786D01*
X138489711Y-101681789D01*
X138620814Y-101769390D01*
X138620827Y-101769397D01*
X138766498Y-101829735D01*
X138766503Y-101829737D01*
X138921153Y-101860499D01*
X138921156Y-101860500D01*
X138921158Y-101860500D01*
X139078844Y-101860500D01*
X139078845Y-101860499D01*
X139233497Y-101829737D01*
X139379179Y-101769394D01*
X139510289Y-101681789D01*
X139621789Y-101570289D01*
X139709394Y-101439179D01*
X139769737Y-101293497D01*
X139800500Y-101138842D01*
X139800500Y-100981158D01*
X139800500Y-100981155D01*
X139800499Y-100981153D01*
X139795852Y-100957792D01*
X139769737Y-100826503D01*
X139726727Y-100722666D01*
X139709397Y-100680827D01*
X139709390Y-100680814D01*
X139686398Y-100646404D01*
X139665520Y-100579726D01*
X139665500Y-100577513D01*
X139665500Y-97882485D01*
X139685185Y-97815446D01*
X139686398Y-97813594D01*
X139709394Y-97779179D01*
X139769737Y-97633497D01*
X139800500Y-97478842D01*
X139800500Y-97321158D01*
X139800500Y-97321155D01*
X139800499Y-97321153D01*
X141699500Y-97321153D01*
X141699500Y-97478846D01*
X141730261Y-97633489D01*
X141730264Y-97633501D01*
X141790602Y-97779172D01*
X141790609Y-97779185D01*
X141878602Y-97910874D01*
X141899480Y-97977551D01*
X141899500Y-97979765D01*
X141899500Y-101920234D01*
X141879815Y-101987273D01*
X141878602Y-101989125D01*
X141790609Y-102120814D01*
X141790602Y-102120827D01*
X141730264Y-102266498D01*
X141730261Y-102266510D01*
X141699500Y-102421153D01*
X141699500Y-102578846D01*
X141730261Y-102733489D01*
X141730264Y-102733501D01*
X141790602Y-102879172D01*
X141790609Y-102879185D01*
X141878210Y-103010288D01*
X141878213Y-103010292D01*
X141989707Y-103121786D01*
X141989711Y-103121789D01*
X142120814Y-103209390D01*
X142120827Y-103209397D01*
X142258683Y-103266498D01*
X142266503Y-103269737D01*
X142421153Y-103300499D01*
X142421156Y-103300500D01*
X142421158Y-103300500D01*
X142578844Y-103300500D01*
X142578845Y-103300499D01*
X142589179Y-103298443D01*
X142614287Y-103293450D01*
X142614292Y-103293449D01*
X142699800Y-103276439D01*
X142733497Y-103269737D01*
X142879179Y-103209394D01*
X143010289Y-103121789D01*
X143121789Y-103010289D01*
X143209394Y-102879179D01*
X143269737Y-102733497D01*
X143300500Y-102578842D01*
X143300500Y-102421158D01*
X143300500Y-102421155D01*
X143300499Y-102421153D01*
X143281551Y-102325896D01*
X143269737Y-102266503D01*
X143234244Y-102180814D01*
X143209397Y-102120827D01*
X143209390Y-102120814D01*
X143121398Y-101989125D01*
X143100520Y-101922447D01*
X143100500Y-101920234D01*
X143100500Y-97979765D01*
X143120185Y-97912726D01*
X143121398Y-97910874D01*
X143209390Y-97779185D01*
X143209390Y-97779184D01*
X143209394Y-97779179D01*
X143269737Y-97633497D01*
X143300500Y-97478842D01*
X143300500Y-97321158D01*
X143300500Y-97321155D01*
X143300499Y-97321153D01*
X143269738Y-97166510D01*
X143269737Y-97166503D01*
X143233427Y-97078842D01*
X143209397Y-97020827D01*
X143209390Y-97020814D01*
X143184763Y-96983957D01*
X143142798Y-96921153D01*
X144699500Y-96921153D01*
X144699500Y-97078846D01*
X144730261Y-97233489D01*
X144730264Y-97233501D01*
X144790602Y-97379172D01*
X144790609Y-97379185D01*
X144878210Y-97510288D01*
X144878213Y-97510292D01*
X144989707Y-97621786D01*
X144989711Y-97621789D01*
X145120814Y-97709390D01*
X145120827Y-97709397D01*
X145244294Y-97760538D01*
X145266503Y-97769737D01*
X145421153Y-97800499D01*
X145421156Y-97800500D01*
X145421158Y-97800500D01*
X145578844Y-97800500D01*
X145578845Y-97800499D01*
X145733497Y-97769737D01*
X145879179Y-97709394D01*
X145950129Y-97661987D01*
X146010875Y-97621398D01*
X146028921Y-97615747D01*
X146044831Y-97605523D01*
X146075792Y-97601071D01*
X146077553Y-97600520D01*
X146079766Y-97600500D01*
X146275500Y-97600500D01*
X146342539Y-97620185D01*
X146388294Y-97672989D01*
X146399500Y-97724500D01*
X146399500Y-98920234D01*
X146379815Y-98987273D01*
X146378602Y-98989125D01*
X146290609Y-99120814D01*
X146290602Y-99120827D01*
X146230264Y-99266498D01*
X146230261Y-99266510D01*
X146199500Y-99421153D01*
X146199500Y-99578846D01*
X146230261Y-99733489D01*
X146230264Y-99733501D01*
X146290602Y-99879172D01*
X146290609Y-99879185D01*
X146378210Y-100010288D01*
X146378213Y-100010292D01*
X146489707Y-100121786D01*
X146489711Y-100121789D01*
X146620814Y-100209390D01*
X146620827Y-100209397D01*
X146766498Y-100269735D01*
X146766503Y-100269737D01*
X146921153Y-100300499D01*
X146921156Y-100300500D01*
X146921158Y-100300500D01*
X147078844Y-100300500D01*
X147078845Y-100300499D01*
X147233497Y-100269737D01*
X147379179Y-100209394D01*
X147510289Y-100121789D01*
X147621789Y-100010289D01*
X147709394Y-99879179D01*
X147769737Y-99733497D01*
X147800500Y-99578842D01*
X147800500Y-99421158D01*
X147800500Y-99421155D01*
X147800499Y-99421153D01*
X147769738Y-99266510D01*
X147769737Y-99266503D01*
X147769735Y-99266498D01*
X147709397Y-99120827D01*
X147709390Y-99120814D01*
X147621398Y-98989125D01*
X147600520Y-98922447D01*
X147600500Y-98920234D01*
X147600500Y-96920945D01*
X147600500Y-96920943D01*
X147559577Y-96768216D01*
X147544130Y-96741461D01*
X147480524Y-96631290D01*
X147480518Y-96631282D01*
X147368717Y-96519481D01*
X147368709Y-96519475D01*
X147231790Y-96440426D01*
X147231786Y-96440424D01*
X147231784Y-96440423D01*
X147079057Y-96399500D01*
X147079056Y-96399500D01*
X146079766Y-96399500D01*
X146012727Y-96379815D01*
X146010875Y-96378602D01*
X145879185Y-96290609D01*
X145879172Y-96290602D01*
X145733501Y-96230264D01*
X145733489Y-96230261D01*
X145578845Y-96199500D01*
X145578842Y-96199500D01*
X145421158Y-96199500D01*
X145421155Y-96199500D01*
X145266510Y-96230261D01*
X145266498Y-96230264D01*
X145120827Y-96290602D01*
X145120814Y-96290609D01*
X144989711Y-96378210D01*
X144989707Y-96378213D01*
X144878213Y-96489707D01*
X144878210Y-96489711D01*
X144790609Y-96620814D01*
X144790602Y-96620827D01*
X144730264Y-96766498D01*
X144730261Y-96766510D01*
X144699500Y-96921153D01*
X143142798Y-96921153D01*
X143121789Y-96889711D01*
X143121786Y-96889707D01*
X143010292Y-96778213D01*
X143010288Y-96778210D01*
X142879185Y-96690609D01*
X142879172Y-96690602D01*
X142733501Y-96630264D01*
X142733489Y-96630261D01*
X142578845Y-96599500D01*
X142578842Y-96599500D01*
X142421158Y-96599500D01*
X142421155Y-96599500D01*
X142266510Y-96630261D01*
X142266498Y-96630264D01*
X142120827Y-96690602D01*
X142120814Y-96690609D01*
X141989711Y-96778210D01*
X141989707Y-96778213D01*
X141878213Y-96889707D01*
X141878210Y-96889711D01*
X141790609Y-97020814D01*
X141790602Y-97020827D01*
X141730264Y-97166498D01*
X141730261Y-97166510D01*
X141699500Y-97321153D01*
X139800499Y-97321153D01*
X139769738Y-97166510D01*
X139769737Y-97166503D01*
X139713199Y-97030009D01*
X139705731Y-96960541D01*
X139737006Y-96898062D01*
X139797095Y-96862410D01*
X139844921Y-96860188D01*
X139844927Y-96860118D01*
X139845491Y-96860162D01*
X139847158Y-96860085D01*
X139849778Y-96860500D01*
X139849780Y-96860500D01*
X140070221Y-96860500D01*
X140070222Y-96860500D01*
X140287951Y-96826015D01*
X140497606Y-96757895D01*
X140694022Y-96657815D01*
X140872365Y-96528242D01*
X141028242Y-96372365D01*
X141157815Y-96194022D01*
X141257895Y-95997606D01*
X141326015Y-95787951D01*
X141360500Y-95570222D01*
X141360500Y-95349778D01*
X141326015Y-95132049D01*
X141257895Y-94922394D01*
X141257895Y-94922393D01*
X141223237Y-94854375D01*
X141157815Y-94725978D01*
X141099501Y-94645715D01*
X141028247Y-94547641D01*
X141028243Y-94547636D01*
X140872363Y-94391756D01*
X140872358Y-94391752D01*
X140694025Y-94262187D01*
X140694024Y-94262186D01*
X140694022Y-94262185D01*
X140576791Y-94202452D01*
X140497606Y-94162104D01*
X140497603Y-94162103D01*
X140287952Y-94093985D01*
X140179086Y-94076742D01*
X140070222Y-94059500D01*
X139849778Y-94059500D01*
X139777201Y-94070995D01*
X139632047Y-94093985D01*
X139422396Y-94162103D01*
X139422393Y-94162104D01*
X139225974Y-94262187D01*
X139047641Y-94391752D01*
X139047636Y-94391756D01*
X138997463Y-94441929D01*
X138936140Y-94475413D01*
X138866448Y-94470428D01*
X138810515Y-94428557D01*
X138793601Y-94397580D01*
X138763797Y-94317671D01*
X138763793Y-94317664D01*
X138677547Y-94202455D01*
X138677544Y-94202452D01*
X138562335Y-94116206D01*
X138562328Y-94116202D01*
X138427482Y-94065908D01*
X138427483Y-94065908D01*
X138367883Y-94059501D01*
X138367881Y-94059500D01*
X138367873Y-94059500D01*
X138367864Y-94059500D01*
X136472129Y-94059500D01*
X136472123Y-94059501D01*
X136412516Y-94065908D01*
X136277671Y-94116202D01*
X136277664Y-94116206D01*
X136162455Y-94202452D01*
X136162452Y-94202455D01*
X136076206Y-94317664D01*
X136076202Y-94317671D01*
X136025908Y-94452517D01*
X136019501Y-94512116D01*
X136019500Y-94512135D01*
X132000000Y-94512135D01*
X132000000Y-93919955D01*
X144060916Y-93919955D01*
X144060916Y-94077648D01*
X144091677Y-94232291D01*
X144091680Y-94232303D01*
X144152018Y-94377974D01*
X144152025Y-94377987D01*
X144239626Y-94509090D01*
X144239629Y-94509094D01*
X144351123Y-94620588D01*
X144351127Y-94620591D01*
X144482230Y-94708192D01*
X144482243Y-94708199D01*
X144627914Y-94768537D01*
X144627919Y-94768539D01*
X144782569Y-94799301D01*
X144782572Y-94799302D01*
X144782574Y-94799302D01*
X144940260Y-94799302D01*
X144940261Y-94799301D01*
X145094913Y-94768539D01*
X145240595Y-94708196D01*
X145371705Y-94620591D01*
X145483205Y-94509091D01*
X145570810Y-94377981D01*
X145631153Y-94232299D01*
X145661916Y-94077644D01*
X145661916Y-93919960D01*
X145661916Y-93919957D01*
X145651500Y-93867595D01*
X145652207Y-93859687D01*
X145649433Y-93852248D01*
X145655277Y-93825383D01*
X145657727Y-93798003D01*
X145662975Y-93789994D01*
X145664285Y-93783975D01*
X145685434Y-93755724D01*
X145739341Y-93701818D01*
X145800664Y-93668334D01*
X145827021Y-93665500D01*
X148517514Y-93665500D01*
X148584553Y-93685185D01*
X148586406Y-93686399D01*
X148620812Y-93709389D01*
X148620827Y-93709397D01*
X148732665Y-93755721D01*
X148766503Y-93769737D01*
X148908605Y-93798003D01*
X148921153Y-93800499D01*
X148921156Y-93800500D01*
X148921158Y-93800500D01*
X149078844Y-93800500D01*
X149078845Y-93800499D01*
X149233497Y-93769737D01*
X149379179Y-93709394D01*
X149510289Y-93621789D01*
X149621789Y-93510289D01*
X149709394Y-93379179D01*
X149769737Y-93233497D01*
X149800500Y-93078842D01*
X149800500Y-92921158D01*
X149800500Y-92921155D01*
X149800499Y-92921153D01*
X149769738Y-92766510D01*
X149769737Y-92766503D01*
X149769735Y-92766498D01*
X149709397Y-92620827D01*
X149709390Y-92620814D01*
X149621789Y-92489711D01*
X149621786Y-92489707D01*
X149510292Y-92378213D01*
X149510288Y-92378210D01*
X149379185Y-92290609D01*
X149379172Y-92290602D01*
X149233501Y-92230264D01*
X149233489Y-92230261D01*
X149078845Y-92199500D01*
X149078842Y-92199500D01*
X148921158Y-92199500D01*
X148921155Y-92199500D01*
X148766510Y-92230261D01*
X148766498Y-92230264D01*
X148620827Y-92290602D01*
X148620812Y-92290610D01*
X148586406Y-92313601D01*
X148519729Y-92334480D01*
X148517514Y-92334500D01*
X145434452Y-92334500D01*
X145423787Y-92336621D01*
X145413121Y-92338743D01*
X145305888Y-92360072D01*
X145305884Y-92360074D01*
X145305882Y-92360074D01*
X145305881Y-92360075D01*
X145220240Y-92395548D01*
X145220238Y-92395549D01*
X145220237Y-92395548D01*
X145184766Y-92410242D01*
X145184764Y-92410243D01*
X145075772Y-92483069D01*
X145075764Y-92483075D01*
X144344492Y-93214346D01*
X144344489Y-93214349D01*
X144294337Y-93289409D01*
X144271658Y-93323350D01*
X144221490Y-93444466D01*
X144221489Y-93444469D01*
X144206138Y-93521641D01*
X144187625Y-93566336D01*
X144152026Y-93619616D01*
X144152018Y-93619630D01*
X144091680Y-93765300D01*
X144091677Y-93765312D01*
X144060916Y-93919955D01*
X132000000Y-93919955D01*
X132000000Y-90884918D01*
X132019685Y-90817879D01*
X132072489Y-90772124D01*
X132141647Y-90762180D01*
X132205203Y-90791205D01*
X132224316Y-90812029D01*
X132315483Y-90937510D01*
X132482490Y-91104517D01*
X132673567Y-91243343D01*
X132772991Y-91294002D01*
X132884003Y-91350566D01*
X132884005Y-91350566D01*
X132884008Y-91350568D01*
X133004412Y-91389689D01*
X133108631Y-91423553D01*
X133341903Y-91460500D01*
X133341908Y-91460500D01*
X133578097Y-91460500D01*
X133811368Y-91423553D01*
X134035992Y-91350568D01*
X134246433Y-91243343D01*
X134437510Y-91104517D01*
X134604517Y-90937510D01*
X134743343Y-90746433D01*
X134850568Y-90535992D01*
X134923553Y-90311368D01*
X134960500Y-90078097D01*
X134960500Y-89841902D01*
X134923553Y-89608631D01*
X134850566Y-89384003D01*
X134763020Y-89212186D01*
X134743343Y-89173567D01*
X134604517Y-88982490D01*
X134437510Y-88815483D01*
X134312031Y-88724317D01*
X134269367Y-88668988D01*
X134263388Y-88599374D01*
X134295994Y-88537579D01*
X134356833Y-88503222D01*
X134384918Y-88500000D01*
X160035082Y-88500000D01*
X160102121Y-88519685D01*
G37*
%TD.AperFunction*%
%TA.AperFunction,NonConductor*%
G36*
X155455788Y-96445298D02*
G01*
X155509209Y-96456919D01*
X155537464Y-96478071D01*
X155587636Y-96528243D01*
X155587641Y-96528247D01*
X155689603Y-96602326D01*
X155765978Y-96657815D01*
X155908125Y-96730243D01*
X155958921Y-96778218D01*
X155975716Y-96846039D01*
X155953178Y-96912174D01*
X155939512Y-96928409D01*
X155878210Y-96989711D01*
X155790609Y-97120814D01*
X155790602Y-97120827D01*
X155730264Y-97266498D01*
X155730261Y-97266510D01*
X155699500Y-97421153D01*
X155699500Y-97578846D01*
X155730261Y-97733489D01*
X155730264Y-97733501D01*
X155790602Y-97879172D01*
X155790609Y-97879185D01*
X155878602Y-98010874D01*
X155899480Y-98077551D01*
X155899500Y-98079765D01*
X155899500Y-102775500D01*
X155879815Y-102842539D01*
X155827011Y-102888294D01*
X155775500Y-102899500D01*
X154399746Y-102899500D01*
X154332707Y-102879815D01*
X154286952Y-102827011D01*
X154277008Y-102757853D01*
X154278129Y-102751308D01*
X154300500Y-102638844D01*
X154300500Y-102481155D01*
X154300499Y-102481153D01*
X154288565Y-102421158D01*
X154269737Y-102326503D01*
X154269484Y-102325893D01*
X154209397Y-102180827D01*
X154209390Y-102180814D01*
X154186398Y-102146404D01*
X154165520Y-102079726D01*
X154165500Y-102077513D01*
X154165500Y-97982485D01*
X154185185Y-97915446D01*
X154186398Y-97913594D01*
X154186978Y-97912726D01*
X154209394Y-97879179D01*
X154269737Y-97733497D01*
X154300500Y-97578842D01*
X154300500Y-97421158D01*
X154300500Y-97421155D01*
X154300499Y-97421153D01*
X154292148Y-97379172D01*
X154269737Y-97266503D01*
X154228314Y-97166498D01*
X154209397Y-97120827D01*
X154209395Y-97120823D01*
X154209394Y-97120821D01*
X154181344Y-97078842D01*
X154164338Y-97053390D01*
X154143460Y-96986713D01*
X154161944Y-96919333D01*
X154213923Y-96872642D01*
X154267440Y-96860499D01*
X154907871Y-96860499D01*
X154907872Y-96860499D01*
X154967483Y-96854091D01*
X155102331Y-96803796D01*
X155217546Y-96717546D01*
X155303796Y-96602331D01*
X155331429Y-96528243D01*
X155333601Y-96522420D01*
X155333601Y-96522419D01*
X155333602Y-96522416D01*
X155356408Y-96491951D01*
X155375471Y-96466486D01*
X155375472Y-96466485D01*
X155375473Y-96466485D01*
X155401993Y-96456593D01*
X155440936Y-96442068D01*
X155440937Y-96442068D01*
X155455788Y-96445298D01*
G37*
%TD.AperFunction*%
%TA.AperFunction,NonConductor*%
G36*
X132205203Y-111791205D02*
G01*
X132224316Y-111812029D01*
X132315483Y-111937510D01*
X132482490Y-112104517D01*
X132662335Y-112235183D01*
X132705000Y-112290512D01*
X132710979Y-112360126D01*
X132678373Y-112421920D01*
X132617534Y-112456278D01*
X132589449Y-112459500D01*
X132124000Y-112459500D01*
X132056961Y-112439815D01*
X132011206Y-112387011D01*
X132000000Y-112335500D01*
X132000000Y-111884918D01*
X132019685Y-111817879D01*
X132072489Y-111772124D01*
X132141647Y-111762180D01*
X132205203Y-111791205D01*
G37*
%TD.AperFunction*%
M02*
