M48
; DRILL file {KiCad 9.0.0} date 2025-04-29T21:46:41-0400
; FORMAT={-:-/ absolute / metric / decimal}
; #@! TF.CreationDate,2025-04-29T21:46:41-04:00
; #@! TF.GenerationSoftware,Kicad,Pcbnew,9.0.0
; #@! TF.FileFunction,Plated,1,2,PTH
FMAT,2
METRIC
; #@! TA.AperFunction,Plated,PTH,ViaDrill
T1C0.300
; #@! TA.AperFunction,Plated,PTH,ComponentDrill
T2C0.500
; #@! TA.AperFunction,Plated,PTH,ComponentDrill
T3C0.900
; #@! TA.AperFunction,Plated,PTH,ViaDrill
T4C1.700
%
G90
G05
T1
X139.0Y-97.4
X139.0Y-101.06
X142.5Y-97.4
X142.5Y-102.5
X144.861Y-93.999
X145.5Y-97.0
X147.0Y-99.5
X149.0Y-93.0
X150.56Y-103.5
X153.5Y-97.5
X153.5Y-102.56
X156.5Y-97.5
T2
X134.96Y-98.46
X134.96Y-99.46
X134.96Y-100.46
X134.96Y-101.46
X158.96Y-98.46
X158.96Y-99.46
X158.96Y-100.46
X158.96Y-101.46
T3
X137.42Y-95.46
X137.69Y-107.96
X139.96Y-95.46
X140.23Y-107.96
X153.96Y-95.46
X153.96Y-107.46
X156.5Y-95.46
X156.5Y-107.46
T4
X133.46Y-89.96
X133.46Y-110.96
X160.96Y-89.96
X160.96Y-110.96
M30
