%TF.GenerationSoftware,KiCad,Pcbnew,9.0.0*%
%TF.CreationDate,2025-04-29T21:45:17-04:00*%
%TF.ProjectId,Sensor_TCS3200,53656e73-6f72-45f5-9443-53333230302e,Ing. Alan C.*%
%TF.SameCoordinates,Original*%
%TF.FileFunction,Copper,L1,Top*%
%TF.FilePolarity,Positive*%
%FSLAX46Y46*%
G04 Gerber Fmt 4.6, Leading zero omitted, Abs format (unit mm)*
G04 Created by KiCad (PCBNEW 9.0.0) date 2025-04-29 21:45:17*
%MOMM*%
%LPD*%
G01*
G04 APERTURE LIST*
G04 Aperture macros list*
%AMRoundRect*
0 Rectangle with rounded corners*
0 $1 Rounding radius*
0 $2 $3 $4 $5 $6 $7 $8 $9 X,Y pos of 4 corners*
0 Add a 4 corners polygon primitive as box body*
4,1,4,$2,$3,$4,$5,$6,$7,$8,$9,$2,$3,0*
0 Add four circle primitives for the rounded corners*
1,1,$1+$1,$2,$3*
1,1,$1+$1,$4,$5*
1,1,$1+$1,$6,$7*
1,1,$1+$1,$8,$9*
0 Add four rect primitives between the rounded corners*
20,1,$1+$1,$2,$3,$4,$5,0*
20,1,$1+$1,$4,$5,$6,$7,0*
20,1,$1+$1,$6,$7,$8,$9,0*
20,1,$1+$1,$8,$9,$2,$3,0*%
G04 Aperture macros list end*
%TA.AperFunction,SMDPad,CuDef*%
%ADD10R,2.200000X0.600000*%
%TD*%
%TA.AperFunction,SMDPad,CuDef*%
%ADD11RoundRect,0.087500X0.087500X-0.087500X0.087500X0.087500X-0.087500X0.087500X-0.087500X-0.087500X0*%
%TD*%
%TA.AperFunction,SMDPad,CuDef*%
%ADD12RoundRect,0.075000X-0.075000X-0.075000X0.075000X-0.075000X0.075000X0.075000X-0.075000X0.075000X0*%
%TD*%
%TA.AperFunction,SMDPad,CuDef*%
%ADD13RoundRect,0.087500X-0.087500X0.087500X-0.087500X-0.087500X0.087500X-0.087500X0.087500X0.087500X0*%
%TD*%
%TA.AperFunction,ComponentPad*%
%ADD14R,1.800000X1.800000*%
%TD*%
%TA.AperFunction,ComponentPad*%
%ADD15C,1.800000*%
%TD*%
%TA.AperFunction,SMDPad,CuDef*%
%ADD16RoundRect,0.087500X0.087500X0.087500X-0.087500X0.087500X-0.087500X-0.087500X0.087500X-0.087500X0*%
%TD*%
%TA.AperFunction,SMDPad,CuDef*%
%ADD17RoundRect,0.087500X-0.087500X-0.087500X0.087500X-0.087500X0.087500X0.087500X-0.087500X0.087500X0*%
%TD*%
%TA.AperFunction,SMDPad,CuDef*%
%ADD18RoundRect,0.250000X-0.250000X-0.475000X0.250000X-0.475000X0.250000X0.475000X-0.250000X0.475000X0*%
%TD*%
%TA.AperFunction,ComponentPad*%
%ADD19C,0.800000*%
%TD*%
%TA.AperFunction,ViaPad*%
%ADD20C,2.000000*%
%TD*%
%TA.AperFunction,ViaPad*%
%ADD21C,0.600000*%
%TD*%
%TA.AperFunction,Conductor*%
%ADD22C,0.330000*%
%TD*%
%TA.AperFunction,Conductor*%
%ADD23C,0.400000*%
%TD*%
%TA.AperFunction,Conductor*%
%ADD24C,0.200000*%
%TD*%
%TA.AperFunction,Conductor*%
%ADD25C,0.180000*%
%TD*%
G04 APERTURE END LIST*
D10*
%TO.P,U1,1,S0*%
%TO.N,Net-(J1-Pin_1)*%
X144760000Y-98150000D03*
%TO.P,U1,2,S1*%
%TO.N,Net-(J1-Pin_2)*%
X144760000Y-99420000D03*
%TO.P,U1,3,OE*%
%TO.N,Net-(J1-Pin_3)*%
X144760000Y-100690000D03*
%TO.P,U1,4,GND*%
%TO.N,Net-(U1-GND)*%
X144760000Y-101960000D03*
%TO.P,U1,5,VDD*%
%TO.N,Net-(J2-Pin_1)*%
X149960000Y-101960000D03*
%TO.P,U1,6,OUT*%
%TO.N,Net-(U1-OUT)*%
X149960000Y-100690000D03*
%TO.P,U1,7,S2*%
%TO.N,Net-(J2-Pin_3)*%
X149960000Y-99420000D03*
%TO.P,U1,8,S3*%
%TO.N,Net-(J2-Pin_4)*%
X149960000Y-98150000D03*
%TD*%
D11*
%TO.P,R1,1*%
%TO.N,Net-(J2-Pin_1)*%
X148960000Y-95780000D03*
%TO.P,R1,2*%
%TO.N,Net-(J1-Pin_1)*%
X148960000Y-95140000D03*
%TD*%
D12*
%TO.P,R4,1*%
%TO.N,Net-(J2-Pin_1)*%
X149485000Y-107460000D03*
%TO.P,R4,2*%
%TO.N,Net-(D2-A)*%
X150125000Y-107460000D03*
%TD*%
D13*
%TO.P,R2,1*%
%TO.N,Net-(J2-Pin_1)*%
X145460000Y-95295000D03*
%TO.P,R2,2*%
%TO.N,Net-(J1-Pin_2)*%
X145460000Y-95935000D03*
%TD*%
D14*
%TO.P,D1,1,K*%
%TO.N,GND*%
X137420000Y-95460000D03*
D15*
%TO.P,D1,2,A*%
%TO.N,Net-(D1-A)*%
X139960000Y-95460000D03*
%TD*%
D16*
%TO.P,R9,1*%
%TO.N,Net-(J2-Pin_2)*%
X155125000Y-100460000D03*
%TO.P,R9,2*%
%TO.N,Net-(U1-OUT)*%
X154485000Y-100460000D03*
%TD*%
%TO.P,R8,1*%
%TO.N,Net-(U1-GND)*%
X140280000Y-101960000D03*
%TO.P,R8,2*%
%TO.N,GND*%
X139640000Y-101960000D03*
%TD*%
D17*
%TO.P,C1,1*%
%TO.N,Net-(J2-Pin_1)*%
X146795000Y-93960000D03*
%TO.P,C1,2*%
%TO.N,GND*%
X147435000Y-93960000D03*
%TD*%
D16*
%TO.P,R6,1*%
%TO.N,Net-(J2-Pin_1)*%
X155125000Y-102960000D03*
%TO.P,R6,2*%
%TO.N,Net-(D4-A)*%
X154485000Y-102960000D03*
%TD*%
%TO.P,R7,1*%
%TO.N,GND*%
X140280000Y-103960000D03*
%TO.P,R7,2*%
X139640000Y-103960000D03*
%TD*%
D14*
%TO.P,D2,1,K*%
%TO.N,GND*%
X153960000Y-95460000D03*
D15*
%TO.P,D2,2,A*%
%TO.N,Net-(D2-A)*%
X156500000Y-95460000D03*
%TD*%
D18*
%TO.P,C2,1*%
%TO.N,Net-(J2-Pin_1)*%
X146060000Y-91460000D03*
%TO.P,C2,2*%
%TO.N,GND*%
X147960000Y-91460000D03*
%TD*%
D16*
%TO.P,R5,1*%
%TO.N,Net-(J2-Pin_1)*%
X148280000Y-108960000D03*
%TO.P,R5,2*%
%TO.N,Net-(D3-A)*%
X147640000Y-108960000D03*
%TD*%
D17*
%TO.P,R3,1*%
%TO.N,Net-(J2-Pin_1)*%
X144795000Y-107460000D03*
%TO.P,R3,2*%
%TO.N,Net-(D1-A)*%
X145435000Y-107460000D03*
%TD*%
D14*
%TO.P,D4,1,K*%
%TO.N,GND*%
X153960000Y-107460000D03*
D15*
%TO.P,D4,2,A*%
%TO.N,Net-(D4-A)*%
X156500000Y-107460000D03*
%TD*%
D14*
%TO.P,D3,1,K*%
%TO.N,GND*%
X137690000Y-107960000D03*
D15*
%TO.P,D3,2,A*%
%TO.N,Net-(D3-A)*%
X140230000Y-107960000D03*
%TD*%
D19*
%TO.P,J2,1,Pin_1*%
%TO.N,Net-(J2-Pin_1)*%
X158960000Y-101460000D03*
%TO.P,J2,2,Pin_2*%
%TO.N,Net-(J2-Pin_2)*%
X158960000Y-100460000D03*
%TO.P,J2,3,Pin_3*%
%TO.N,Net-(J2-Pin_3)*%
X158960000Y-99460000D03*
%TO.P,J2,4,Pin_4*%
%TO.N,Net-(J2-Pin_4)*%
X158960000Y-98460000D03*
%TD*%
%TO.P,J1,1,Pin_1*%
%TO.N,Net-(J1-Pin_1)*%
X134960000Y-98460000D03*
%TO.P,J1,2,Pin_2*%
%TO.N,Net-(J1-Pin_2)*%
X134960000Y-99460000D03*
%TO.P,J1,3,Pin_3*%
%TO.N,Net-(J1-Pin_3)*%
X134960000Y-100460000D03*
%TO.P,J1,4,Pin_4*%
%TO.N,GND*%
X134960000Y-101460000D03*
%TD*%
D20*
%TO.N,*%
X133460000Y-110960000D03*
X160960000Y-110960000D03*
X160960000Y-89960000D03*
X133460000Y-89960000D03*
D21*
%TO.N,GND*%
X153500000Y-102560000D03*
X144861416Y-93998802D03*
X149000000Y-93000000D03*
X139000000Y-101060000D03*
X153500000Y-97500000D03*
X139000000Y-97400000D03*
%TO.N,Net-(D1-A)*%
X142500000Y-97400000D03*
X142500000Y-102500000D03*
%TO.N,Net-(D2-A)*%
X150560000Y-103500000D03*
X156500000Y-97500000D03*
%TO.N,Net-(J1-Pin_2)*%
X145500000Y-97000000D03*
X147000000Y-99500000D03*
%TD*%
D22*
%TO.N,GND*%
X138694000Y-94935605D02*
X139630803Y-93998802D01*
X153960000Y-94460000D02*
X153460000Y-93960000D01*
X149000000Y-93000000D02*
X149000000Y-93960000D01*
X139000000Y-97400000D02*
X138694000Y-97094000D01*
X139640000Y-103960000D02*
X139040000Y-103960000D01*
X139000000Y-101320000D02*
X139640000Y-101960000D01*
D23*
X153960000Y-95460000D02*
X153960000Y-94960000D01*
D22*
X153500000Y-97500000D02*
X153500000Y-95920000D01*
X153500000Y-107000000D02*
X153500000Y-102560000D01*
X147960000Y-93435000D02*
X147435000Y-93960000D01*
X138960000Y-101460000D02*
X139460000Y-101960000D01*
X137420000Y-95460000D02*
X137420000Y-95820000D01*
X153500000Y-95920000D02*
X153960000Y-95460000D01*
X153460000Y-93960000D02*
X149000000Y-93960000D01*
X139640000Y-101960000D02*
X139640000Y-103960000D01*
X139630803Y-93998802D02*
X144861416Y-93998802D01*
X147960000Y-91460000D02*
X147960000Y-93435000D01*
X153960000Y-95460000D02*
X153960000Y-94460000D01*
X139000000Y-101060000D02*
X139000000Y-101320000D01*
X137690000Y-105310000D02*
X137690000Y-107960000D01*
X139040000Y-103960000D02*
X137690000Y-105310000D01*
X140280000Y-103960000D02*
X139640000Y-103960000D01*
X134960000Y-101460000D02*
X138960000Y-101460000D01*
X139460000Y-101960000D02*
X139640000Y-101960000D01*
X138694000Y-97094000D02*
X138694000Y-94935605D01*
X149000000Y-93960000D02*
X147435000Y-93960000D01*
X137420000Y-95820000D02*
X139000000Y-97400000D01*
X153960000Y-107460000D02*
X153500000Y-107000000D01*
D23*
X137690000Y-107960000D02*
X137690000Y-107230000D01*
D24*
%TO.N,Net-(J2-Pin_1)*%
X149485000Y-107015000D02*
X149960000Y-106540000D01*
X146795000Y-93960000D02*
X146000000Y-93960000D01*
D22*
X155125000Y-102375000D02*
X155125000Y-102960000D01*
D24*
X149960000Y-106540000D02*
X149960000Y-101960000D01*
D22*
X158960000Y-101460000D02*
X156040000Y-101460000D01*
D24*
X147000000Y-94500000D02*
X146795000Y-94295000D01*
X149485000Y-108985000D02*
X149485000Y-107460000D01*
X145460000Y-94040000D02*
X145460000Y-95295000D01*
X149960000Y-101960000D02*
X148960000Y-101960000D01*
X149460000Y-108960000D02*
X149485000Y-108985000D01*
X148960000Y-95780000D02*
X149220000Y-95780000D01*
D22*
X156040000Y-101460000D02*
X155125000Y-102375000D01*
D24*
X148960000Y-97040000D02*
X148960000Y-95780000D01*
X147890848Y-108484000D02*
X146516000Y-108484000D01*
X146060000Y-93900000D02*
X146000000Y-93960000D01*
X148960000Y-101960000D02*
X148500000Y-101500000D01*
X145660001Y-108500000D02*
X144795000Y-107634999D01*
X150000000Y-94500000D02*
X147000000Y-94500000D01*
X155125000Y-102960000D02*
X155125000Y-102785001D01*
X145540000Y-93960000D02*
X145460000Y-94040000D01*
X146500000Y-108500000D02*
X145660001Y-108500000D01*
X148280000Y-108873152D02*
X147890848Y-108484000D01*
X149220000Y-95780000D02*
X150000000Y-95000000D01*
X148500000Y-101500000D02*
X148500000Y-97500000D01*
X144795000Y-107634999D02*
X144795000Y-107460000D01*
X149485000Y-107460000D02*
X149485000Y-107015000D01*
X148280000Y-108960000D02*
X148280000Y-108873152D01*
X155125000Y-102785001D02*
X154299999Y-101960000D01*
X148500000Y-97500000D02*
X148960000Y-97040000D01*
X146060000Y-91460000D02*
X146060000Y-93900000D01*
X148280000Y-108960000D02*
X149460000Y-108960000D01*
X146795000Y-94295000D02*
X146795000Y-93960000D01*
X146516000Y-108484000D02*
X146500000Y-108500000D01*
X154299999Y-101960000D02*
X149960000Y-101960000D01*
X146000000Y-93960000D02*
X145540000Y-93960000D01*
X150000000Y-95000000D02*
X150000000Y-94500000D01*
%TO.N,Net-(D1-A)*%
X142500000Y-97400000D02*
X142500000Y-96500000D01*
X142500000Y-104000000D02*
X145435000Y-106935000D01*
X145435000Y-106935000D02*
X145435000Y-107460000D01*
X142500000Y-96500000D02*
X141460000Y-95460000D01*
X142500000Y-102500000D02*
X142500000Y-104000000D01*
X141460000Y-95460000D02*
X139960000Y-95460000D01*
%TO.N,Net-(D2-A)*%
X150560000Y-103500000D02*
X150560000Y-107025000D01*
X150560000Y-107025000D02*
X150125000Y-107460000D01*
X156500000Y-95460000D02*
X156500000Y-97500000D01*
%TO.N,Net-(D3-A)*%
X145460000Y-108960000D02*
X144460000Y-107960000D01*
X147640000Y-108960000D02*
X145460000Y-108960000D01*
X140460000Y-108190000D02*
X140230000Y-107960000D01*
X144460000Y-107960000D02*
X140230000Y-107960000D01*
%TO.N,Net-(D4-A)*%
X154485000Y-102960000D02*
X154485000Y-103134999D01*
X154485000Y-103134999D02*
X154850001Y-103500000D01*
X154850001Y-103500000D02*
X155000000Y-103500000D01*
X156500000Y-105000000D02*
X156500000Y-107460000D01*
X155000000Y-103500000D02*
X156500000Y-105000000D01*
%TO.N,Net-(J1-Pin_1)*%
X134960000Y-98460000D02*
X135420000Y-98000000D01*
X148960000Y-95140000D02*
X148873152Y-95140000D01*
X148466450Y-95546702D02*
X148466450Y-96966450D01*
X148000000Y-97432900D02*
X148000000Y-98000000D01*
X144610000Y-98000000D02*
X144760000Y-98150000D01*
X148466450Y-96966450D02*
X148000000Y-97432900D01*
X147850000Y-98150000D02*
X144760000Y-98150000D01*
X135420000Y-98000000D02*
X144610000Y-98000000D01*
X148873152Y-95140000D02*
X148466450Y-95546702D01*
X148000000Y-98000000D02*
X147850000Y-98150000D01*
%TO.N,Net-(J1-Pin_3)*%
X144530000Y-100460000D02*
X144760000Y-100690000D01*
X134960000Y-100460000D02*
X144530000Y-100460000D01*
%TO.N,Net-(J1-Pin_2)*%
X144720000Y-99460000D02*
X144760000Y-99420000D01*
X145460000Y-96960000D02*
X145500000Y-97000000D01*
X147000000Y-99500000D02*
X144840000Y-99500000D01*
X145460000Y-95935000D02*
X145460000Y-96960000D01*
X134960000Y-99460000D02*
X144720000Y-99460000D01*
X144840000Y-99500000D02*
X144760000Y-99420000D01*
%TO.N,Net-(J2-Pin_2)*%
X158960000Y-100460000D02*
X155125000Y-100460000D01*
%TO.N,Net-(J2-Pin_4)*%
X158350000Y-98150000D02*
X149960000Y-98150000D01*
X158960000Y-98460000D02*
X158500000Y-98000000D01*
X158500000Y-98000000D02*
X158350000Y-98150000D01*
D25*
%TO.N,Net-(J2-Pin_3)*%
X150000000Y-99460000D02*
X149960000Y-99420000D01*
X158960000Y-99460000D02*
X150000000Y-99460000D01*
X158920000Y-99420000D02*
X158960000Y-99460000D01*
D24*
%TO.N,Net-(U1-GND)*%
X144699000Y-101899000D02*
X144760000Y-101960000D01*
X140341000Y-101899000D02*
X144699000Y-101899000D01*
X140280000Y-101960000D02*
X140341000Y-101899000D01*
%TO.N,Net-(U1-OUT)*%
X154485000Y-100460000D02*
X150190000Y-100460000D01*
X150190000Y-100460000D02*
X149960000Y-100690000D01*
%TD*%
%TA.AperFunction,NonConductor*%
G36*
X132602121Y-88519685D02*
G01*
X132647876Y-88572489D01*
X132657820Y-88641647D01*
X132628795Y-88705203D01*
X132607970Y-88724316D01*
X132482490Y-88815483D01*
X132482488Y-88815485D01*
X132482487Y-88815485D01*
X132315484Y-88982488D01*
X132224318Y-89107967D01*
X132168987Y-89150632D01*
X132099374Y-89156611D01*
X132037579Y-89124005D01*
X132003222Y-89063166D01*
X132000000Y-89035081D01*
X132000000Y-88624000D01*
X132019685Y-88556961D01*
X132072489Y-88511206D01*
X132124000Y-88500000D01*
X132535082Y-88500000D01*
X132602121Y-88519685D01*
G37*
%TD.AperFunction*%
%TA.AperFunction,NonConductor*%
G36*
X162402539Y-88519685D02*
G01*
X162448294Y-88572489D01*
X162459500Y-88624000D01*
X162459500Y-89089448D01*
X162439815Y-89156487D01*
X162387011Y-89202242D01*
X162317853Y-89212186D01*
X162254297Y-89183161D01*
X162235182Y-89162334D01*
X162207334Y-89124005D01*
X162104517Y-88982490D01*
X161937510Y-88815483D01*
X161812031Y-88724317D01*
X161769367Y-88668988D01*
X161763388Y-88599374D01*
X161795994Y-88537579D01*
X161856833Y-88503222D01*
X161884918Y-88500000D01*
X162335500Y-88500000D01*
X162402539Y-88519685D01*
G37*
%TD.AperFunction*%
%TA.AperFunction,NonConductor*%
G36*
X162421920Y-111741627D02*
G01*
X162456278Y-111802466D01*
X162459500Y-111830551D01*
X162459500Y-112335500D01*
X162439815Y-112402539D01*
X162387011Y-112448294D01*
X162335500Y-112459500D01*
X161830551Y-112459500D01*
X161763512Y-112439815D01*
X161717757Y-112387011D01*
X161707813Y-112317853D01*
X161736838Y-112254297D01*
X161757662Y-112235184D01*
X161937510Y-112104517D01*
X162104517Y-111937510D01*
X162235183Y-111757664D01*
X162290512Y-111715000D01*
X162360126Y-111709021D01*
X162421920Y-111741627D01*
G37*
%TD.AperFunction*%
%TA.AperFunction,NonConductor*%
G36*
X160102121Y-88519685D02*
G01*
X160147876Y-88572489D01*
X160157820Y-88641647D01*
X160128795Y-88705203D01*
X160107970Y-88724316D01*
X159982490Y-88815483D01*
X159982488Y-88815485D01*
X159982487Y-88815485D01*
X159815485Y-88982487D01*
X159815485Y-88982488D01*
X159815483Y-88982490D01*
X159777273Y-89035081D01*
X159676657Y-89173566D01*
X159569433Y-89384003D01*
X159496446Y-89608631D01*
X159459500Y-89841902D01*
X159459500Y-90078097D01*
X159496446Y-90311368D01*
X159569433Y-90535996D01*
X159658855Y-90711494D01*
X159676657Y-90746433D01*
X159815483Y-90937510D01*
X159982490Y-91104517D01*
X160173567Y-91243343D01*
X160272991Y-91294002D01*
X160384003Y-91350566D01*
X160384005Y-91350566D01*
X160384008Y-91350568D01*
X160504412Y-91389689D01*
X160608631Y-91423553D01*
X160841903Y-91460500D01*
X160841908Y-91460500D01*
X161078097Y-91460500D01*
X161311368Y-91423553D01*
X161535992Y-91350568D01*
X161746433Y-91243343D01*
X161937510Y-91104517D01*
X162104517Y-90937510D01*
X162235183Y-90757664D01*
X162290512Y-90715000D01*
X162360126Y-90709021D01*
X162421920Y-90741627D01*
X162456278Y-90802466D01*
X162459500Y-90830551D01*
X162459500Y-110089448D01*
X162439815Y-110156487D01*
X162387011Y-110202242D01*
X162317853Y-110212186D01*
X162254297Y-110183161D01*
X162235182Y-110162334D01*
X162207334Y-110124005D01*
X162104517Y-109982490D01*
X161937510Y-109815483D01*
X161746433Y-109676657D01*
X161535996Y-109569433D01*
X161311368Y-109496446D01*
X161078097Y-109459500D01*
X161078092Y-109459500D01*
X160841908Y-109459500D01*
X160841903Y-109459500D01*
X160608631Y-109496446D01*
X160384003Y-109569433D01*
X160173566Y-109676657D01*
X160064550Y-109755862D01*
X159982490Y-109815483D01*
X159982488Y-109815485D01*
X159982487Y-109815485D01*
X159815485Y-109982487D01*
X159815485Y-109982488D01*
X159815483Y-109982490D01*
X159777273Y-110035081D01*
X159676657Y-110173566D01*
X159569433Y-110384003D01*
X159496446Y-110608631D01*
X159459500Y-110841902D01*
X159459500Y-111078097D01*
X159496446Y-111311368D01*
X159569433Y-111535996D01*
X159660641Y-111715000D01*
X159676657Y-111746433D01*
X159815483Y-111937510D01*
X159982490Y-112104517D01*
X160162335Y-112235183D01*
X160205000Y-112290512D01*
X160210979Y-112360126D01*
X160178373Y-112421920D01*
X160117534Y-112456278D01*
X160089449Y-112459500D01*
X134330551Y-112459500D01*
X134263512Y-112439815D01*
X134217757Y-112387011D01*
X134207813Y-112317853D01*
X134236838Y-112254297D01*
X134257662Y-112235184D01*
X134437510Y-112104517D01*
X134604517Y-111937510D01*
X134743343Y-111746433D01*
X134850568Y-111535992D01*
X134923553Y-111311368D01*
X134960500Y-111078097D01*
X134960500Y-110841902D01*
X134923553Y-110608631D01*
X134850566Y-110384003D01*
X134763020Y-110212186D01*
X134743343Y-110173567D01*
X134604517Y-109982490D01*
X134437510Y-109815483D01*
X134246433Y-109676657D01*
X134035996Y-109569433D01*
X133811368Y-109496446D01*
X133578097Y-109459500D01*
X133578092Y-109459500D01*
X133341908Y-109459500D01*
X133341903Y-109459500D01*
X133108631Y-109496446D01*
X132884003Y-109569433D01*
X132673566Y-109676657D01*
X132564550Y-109755862D01*
X132482490Y-109815483D01*
X132482488Y-109815485D01*
X132482487Y-109815485D01*
X132315484Y-109982488D01*
X132224318Y-110107967D01*
X132168987Y-110150632D01*
X132099374Y-110156611D01*
X132037579Y-110124005D01*
X132003222Y-110063166D01*
X132000000Y-110035081D01*
X132000000Y-98371304D01*
X134059500Y-98371304D01*
X134059500Y-98548695D01*
X134094103Y-98722658D01*
X134094106Y-98722667D01*
X134161983Y-98886540D01*
X134161990Y-98886553D01*
X134165037Y-98891113D01*
X134185912Y-98957792D01*
X134167425Y-99025171D01*
X134165037Y-99028887D01*
X134161990Y-99033446D01*
X134161983Y-99033459D01*
X134094106Y-99197332D01*
X134094103Y-99197341D01*
X134059500Y-99371304D01*
X134059500Y-99548695D01*
X134094103Y-99722658D01*
X134094106Y-99722667D01*
X134161983Y-99886540D01*
X134161990Y-99886553D01*
X134165037Y-99891113D01*
X134185912Y-99957792D01*
X134167425Y-100025171D01*
X134165037Y-100028887D01*
X134161990Y-100033446D01*
X134161983Y-100033459D01*
X134094106Y-100197332D01*
X134094103Y-100197341D01*
X134059500Y-100371304D01*
X134059500Y-100548695D01*
X134094103Y-100722658D01*
X134094106Y-100722667D01*
X134161983Y-100886540D01*
X134161990Y-100886553D01*
X134165037Y-100891113D01*
X134185912Y-100957792D01*
X134167425Y-101025171D01*
X134165037Y-101028887D01*
X134161990Y-101033446D01*
X134161983Y-101033459D01*
X134094106Y-101197332D01*
X134094103Y-101197341D01*
X134059500Y-101371304D01*
X134059500Y-101548695D01*
X134094103Y-101722658D01*
X134094106Y-101722667D01*
X134161983Y-101886540D01*
X134161990Y-101886553D01*
X134260535Y-102034034D01*
X134260538Y-102034038D01*
X134385961Y-102159461D01*
X134385965Y-102159464D01*
X134533446Y-102258009D01*
X134533459Y-102258016D01*
X134653805Y-102307864D01*
X134697334Y-102325894D01*
X134697336Y-102325894D01*
X134697341Y-102325896D01*
X134871304Y-102360499D01*
X134871307Y-102360500D01*
X134871309Y-102360500D01*
X135048693Y-102360500D01*
X135048694Y-102360499D01*
X135106682Y-102348964D01*
X135222658Y-102325896D01*
X135222661Y-102325894D01*
X135222666Y-102325894D01*
X135386547Y-102258013D01*
X135534035Y-102159464D01*
X135534039Y-102159459D01*
X135538745Y-102155599D01*
X135540083Y-102157230D01*
X135593004Y-102128334D01*
X135619362Y-102125500D01*
X138632978Y-102125500D01*
X138700017Y-102145185D01*
X138720659Y-102161819D01*
X138938181Y-102379340D01*
X138971666Y-102440663D01*
X138974500Y-102467021D01*
X138974500Y-103192726D01*
X138954815Y-103259765D01*
X138902011Y-103305520D01*
X138874694Y-103314343D01*
X138845884Y-103320074D01*
X138845882Y-103320074D01*
X138845881Y-103320075D01*
X138760240Y-103355548D01*
X138760238Y-103355549D01*
X138760237Y-103355548D01*
X138724766Y-103370242D01*
X138724764Y-103370243D01*
X138680980Y-103399499D01*
X138680980Y-103399500D01*
X138619592Y-103440518D01*
X138619590Y-103440519D01*
X138619589Y-103440518D01*
X138615773Y-103443068D01*
X138615766Y-103443074D01*
X137173076Y-104885762D01*
X137173075Y-104885763D01*
X137100241Y-104994769D01*
X137050075Y-105115880D01*
X137050073Y-105115886D01*
X137024500Y-105244451D01*
X137024500Y-106435500D01*
X137004815Y-106502539D01*
X136952011Y-106548294D01*
X136900501Y-106559500D01*
X136742130Y-106559500D01*
X136742123Y-106559501D01*
X136682516Y-106565908D01*
X136547671Y-106616202D01*
X136547664Y-106616206D01*
X136432455Y-106702452D01*
X136432452Y-106702455D01*
X136346206Y-106817664D01*
X136346202Y-106817671D01*
X136295908Y-106952517D01*
X136289501Y-107012116D01*
X136289500Y-107012135D01*
X136289500Y-108907870D01*
X136289501Y-108907876D01*
X136295908Y-108967483D01*
X136346202Y-109102328D01*
X136346206Y-109102335D01*
X136432452Y-109217544D01*
X136432455Y-109217547D01*
X136547664Y-109303793D01*
X136547671Y-109303797D01*
X136682517Y-109354091D01*
X136682516Y-109354091D01*
X136689444Y-109354835D01*
X136742127Y-109360500D01*
X138637872Y-109360499D01*
X138697483Y-109354091D01*
X138832331Y-109303796D01*
X138947546Y-109217546D01*
X139033796Y-109102331D01*
X139061429Y-109028243D01*
X139063601Y-109022420D01*
X139105471Y-108966486D01*
X139170936Y-108942068D01*
X139239209Y-108956919D01*
X139267464Y-108978071D01*
X139317636Y-109028243D01*
X139317641Y-109028247D01*
X139366930Y-109064057D01*
X139495978Y-109157815D01*
X139624375Y-109223237D01*
X139692393Y-109257895D01*
X139692396Y-109257896D01*
X139797221Y-109291955D01*
X139902049Y-109326015D01*
X140119778Y-109360500D01*
X140119779Y-109360500D01*
X140340221Y-109360500D01*
X140340222Y-109360500D01*
X140557951Y-109326015D01*
X140767606Y-109257895D01*
X140964022Y-109157815D01*
X141142365Y-109028242D01*
X141298242Y-108872365D01*
X141427815Y-108694022D01*
X141461352Y-108628204D01*
X141509326Y-108577409D01*
X141571836Y-108560500D01*
X144159903Y-108560500D01*
X144226942Y-108580185D01*
X144247583Y-108596818D01*
X145091284Y-109440520D01*
X145091286Y-109440521D01*
X145091290Y-109440524D01*
X145188153Y-109496447D01*
X145228216Y-109519577D01*
X145380943Y-109560501D01*
X145380945Y-109560501D01*
X145546654Y-109560501D01*
X145546670Y-109560500D01*
X147229809Y-109560500D01*
X147277260Y-109569938D01*
X147399001Y-109620365D01*
X147513960Y-109635500D01*
X147513967Y-109635500D01*
X147766033Y-109635500D01*
X147766040Y-109635500D01*
X147880999Y-109620365D01*
X147912547Y-109607296D01*
X147982015Y-109599828D01*
X148007449Y-109607295D01*
X148039001Y-109620365D01*
X148153960Y-109635500D01*
X148153967Y-109635500D01*
X148406033Y-109635500D01*
X148406040Y-109635500D01*
X148520999Y-109620365D01*
X148642739Y-109569938D01*
X148690191Y-109560500D01*
X149296317Y-109560500D01*
X149328406Y-109564724D01*
X149333838Y-109566179D01*
X149365019Y-109574534D01*
X149405942Y-109585500D01*
X149405943Y-109585500D01*
X149405944Y-109585500D01*
X149564055Y-109585500D01*
X149564057Y-109585500D01*
X149716784Y-109544577D01*
X149853716Y-109465520D01*
X149965520Y-109353716D01*
X150044577Y-109216784D01*
X150085500Y-109064057D01*
X150085500Y-108234500D01*
X150105185Y-108167461D01*
X150157989Y-108121706D01*
X150209500Y-108110500D01*
X150237713Y-108110500D01*
X150237720Y-108110500D01*
X150350236Y-108095687D01*
X150490233Y-108037698D01*
X150610451Y-107945451D01*
X150702698Y-107825233D01*
X150759514Y-107688066D01*
X150764145Y-107681136D01*
X150765242Y-107676094D01*
X150786390Y-107647843D01*
X150918506Y-107515728D01*
X150918511Y-107515724D01*
X150928714Y-107505520D01*
X150928716Y-107505520D01*
X151040520Y-107393716D01*
X151114325Y-107265881D01*
X151119577Y-107256785D01*
X151160501Y-107104057D01*
X151160501Y-106945943D01*
X151160501Y-106938348D01*
X151160500Y-106938330D01*
X151160500Y-104079765D01*
X151180185Y-104012726D01*
X151181398Y-104010874D01*
X151212654Y-103964097D01*
X151269394Y-103879179D01*
X151270539Y-103876416D01*
X151307334Y-103787583D01*
X151329737Y-103733497D01*
X151360500Y-103578842D01*
X151360500Y-103421158D01*
X151360500Y-103421155D01*
X151360499Y-103421153D01*
X151348856Y-103362621D01*
X151329737Y-103266503D01*
X151326946Y-103259765D01*
X151269397Y-103120827D01*
X151269390Y-103120814D01*
X151181789Y-102989711D01*
X151181786Y-102989707D01*
X151142726Y-102950647D01*
X151109241Y-102889324D01*
X151114225Y-102819632D01*
X151156097Y-102763699D01*
X151187074Y-102746784D01*
X151302328Y-102703797D01*
X151302327Y-102703797D01*
X151302331Y-102703796D01*
X151417546Y-102617546D01*
X151423052Y-102610191D01*
X151478985Y-102568319D01*
X151522320Y-102560500D01*
X152582152Y-102560500D01*
X152649191Y-102580185D01*
X152694946Y-102632989D01*
X152703769Y-102660308D01*
X152730261Y-102793491D01*
X152730264Y-102793501D01*
X152790603Y-102939174D01*
X152790604Y-102939175D01*
X152790606Y-102939179D01*
X152798269Y-102950647D01*
X152813602Y-102973594D01*
X152834480Y-103040271D01*
X152834500Y-103042485D01*
X152834500Y-106041534D01*
X152814815Y-106108573D01*
X152784812Y-106140800D01*
X152702452Y-106202455D01*
X152616206Y-106317664D01*
X152616202Y-106317671D01*
X152565908Y-106452517D01*
X152559501Y-106512116D01*
X152559500Y-106512135D01*
X152559500Y-108407870D01*
X152559501Y-108407876D01*
X152565908Y-108467483D01*
X152616202Y-108602328D01*
X152616206Y-108602335D01*
X152702452Y-108717544D01*
X152702455Y-108717547D01*
X152817664Y-108803793D01*
X152817671Y-108803797D01*
X152952517Y-108854091D01*
X152952516Y-108854091D01*
X152959444Y-108854835D01*
X153012127Y-108860500D01*
X154907872Y-108860499D01*
X154967483Y-108854091D01*
X155102331Y-108803796D01*
X155217546Y-108717546D01*
X155303796Y-108602331D01*
X155331429Y-108528243D01*
X155333601Y-108522420D01*
X155375471Y-108466486D01*
X155440936Y-108442068D01*
X155509209Y-108456919D01*
X155537464Y-108478071D01*
X155587636Y-108528243D01*
X155587641Y-108528247D01*
X155689603Y-108602326D01*
X155765978Y-108657815D01*
X155894375Y-108723237D01*
X155962393Y-108757895D01*
X155962396Y-108757896D01*
X156012841Y-108774286D01*
X156172049Y-108826015D01*
X156389778Y-108860500D01*
X156389779Y-108860500D01*
X156610221Y-108860500D01*
X156610222Y-108860500D01*
X156827951Y-108826015D01*
X157037606Y-108757895D01*
X157234022Y-108657815D01*
X157412365Y-108528242D01*
X157568242Y-108372365D01*
X157697815Y-108194022D01*
X157797895Y-107997606D01*
X157866015Y-107787951D01*
X157900500Y-107570222D01*
X157900500Y-107349778D01*
X157866015Y-107132049D01*
X157807882Y-106953132D01*
X157797896Y-106922396D01*
X157797895Y-106922393D01*
X157744532Y-106817664D01*
X157697815Y-106725978D01*
X157651408Y-106662104D01*
X157568247Y-106547641D01*
X157568243Y-106547636D01*
X157412363Y-106391756D01*
X157412358Y-106391752D01*
X157234023Y-106262185D01*
X157168204Y-106228648D01*
X157117409Y-106180674D01*
X157100500Y-106118164D01*
X157100500Y-104920945D01*
X157100500Y-104920943D01*
X157059577Y-104768216D01*
X157059573Y-104768209D01*
X156980524Y-104631290D01*
X156980521Y-104631286D01*
X156980520Y-104631284D01*
X156868716Y-104519480D01*
X156868715Y-104519479D01*
X156864385Y-104515149D01*
X156864374Y-104515139D01*
X155775083Y-103425848D01*
X155741598Y-103364525D01*
X155746582Y-103294833D01*
X155748183Y-103290762D01*
X155785365Y-103200999D01*
X155800500Y-103086040D01*
X155800500Y-102833960D01*
X155791561Y-102766062D01*
X155790500Y-102749876D01*
X155790500Y-102702021D01*
X155810185Y-102634982D01*
X155826819Y-102614340D01*
X156279340Y-102161819D01*
X156340663Y-102128334D01*
X156367021Y-102125500D01*
X158300638Y-102125500D01*
X158367677Y-102145185D01*
X158380994Y-102155916D01*
X158381255Y-102155599D01*
X158385965Y-102159464D01*
X158533446Y-102258009D01*
X158533459Y-102258016D01*
X158653805Y-102307864D01*
X158697334Y-102325894D01*
X158697336Y-102325894D01*
X158697341Y-102325896D01*
X158871304Y-102360499D01*
X158871307Y-102360500D01*
X158871309Y-102360500D01*
X159048693Y-102360500D01*
X159048694Y-102360499D01*
X159106682Y-102348964D01*
X159222658Y-102325896D01*
X159222661Y-102325894D01*
X159222666Y-102325894D01*
X159386547Y-102258013D01*
X159534035Y-102159464D01*
X159659464Y-102034035D01*
X159758013Y-101886547D01*
X159825894Y-101722666D01*
X159833426Y-101684803D01*
X159860499Y-101548695D01*
X159860500Y-101548693D01*
X159860500Y-101371306D01*
X159860499Y-101371304D01*
X159825896Y-101197341D01*
X159825893Y-101197332D01*
X159818535Y-101179569D01*
X159800281Y-101135499D01*
X159758015Y-101033457D01*
X159758014Y-101033455D01*
X159758013Y-101033453D01*
X159754965Y-101028892D01*
X159734086Y-100962217D01*
X159752569Y-100894837D01*
X159754962Y-100891113D01*
X159758013Y-100886547D01*
X159825894Y-100722666D01*
X159860500Y-100548691D01*
X159860500Y-100371309D01*
X159860500Y-100371306D01*
X159860499Y-100371304D01*
X159825896Y-100197341D01*
X159825893Y-100197332D01*
X159758015Y-100033457D01*
X159758014Y-100033455D01*
X159758013Y-100033453D01*
X159754965Y-100028892D01*
X159734086Y-99962217D01*
X159752569Y-99894837D01*
X159754962Y-99891113D01*
X159758013Y-99886547D01*
X159825894Y-99722666D01*
X159860500Y-99548691D01*
X159860500Y-99371309D01*
X159860500Y-99371306D01*
X159860499Y-99371304D01*
X159825896Y-99197341D01*
X159825893Y-99197332D01*
X159758015Y-99033457D01*
X159758014Y-99033455D01*
X159758013Y-99033453D01*
X159754965Y-99028892D01*
X159734086Y-98962217D01*
X159752569Y-98894837D01*
X159754962Y-98891113D01*
X159758013Y-98886547D01*
X159825894Y-98722666D01*
X159826852Y-98717853D01*
X159860499Y-98548695D01*
X159860500Y-98548693D01*
X159860500Y-98371306D01*
X159860499Y-98371304D01*
X159825896Y-98197341D01*
X159825893Y-98197332D01*
X159758016Y-98033459D01*
X159758009Y-98033446D01*
X159659464Y-97885965D01*
X159659461Y-97885961D01*
X159534038Y-97760538D01*
X159534034Y-97760535D01*
X159386553Y-97661990D01*
X159386540Y-97661983D01*
X159222667Y-97594106D01*
X159222658Y-97594103D01*
X159048694Y-97559500D01*
X159048691Y-97559500D01*
X158960097Y-97559500D01*
X158893058Y-97539815D01*
X158872416Y-97523181D01*
X158868718Y-97519483D01*
X158868716Y-97519481D01*
X158731785Y-97440423D01*
X158579057Y-97399499D01*
X158420943Y-97399499D01*
X158323908Y-97425500D01*
X158268214Y-97440423D01*
X158131284Y-97519481D01*
X158125560Y-97523874D01*
X158060392Y-97549070D01*
X158050071Y-97549500D01*
X157424500Y-97549500D01*
X157357461Y-97529815D01*
X157311706Y-97477011D01*
X157300500Y-97425500D01*
X157300500Y-97421155D01*
X157300499Y-97421153D01*
X157295312Y-97395076D01*
X157269737Y-97266503D01*
X157239460Y-97193407D01*
X157209397Y-97120827D01*
X157209390Y-97120814D01*
X157121398Y-96989125D01*
X157115747Y-96971078D01*
X157105523Y-96955169D01*
X157101071Y-96924207D01*
X157100520Y-96922447D01*
X157100500Y-96920234D01*
X157100500Y-96801835D01*
X157120185Y-96734796D01*
X157168206Y-96691350D01*
X157217267Y-96666352D01*
X157234022Y-96657815D01*
X157412365Y-96528242D01*
X157568242Y-96372365D01*
X157697815Y-96194022D01*
X157797895Y-95997606D01*
X157866015Y-95787951D01*
X157900500Y-95570222D01*
X157900500Y-95349778D01*
X157866015Y-95132049D01*
X157840655Y-95053997D01*
X157797896Y-94922395D01*
X157797895Y-94922393D01*
X157748133Y-94824732D01*
X157697815Y-94725978D01*
X157639116Y-94645185D01*
X157568247Y-94547641D01*
X157568243Y-94547636D01*
X157412363Y-94391756D01*
X157412358Y-94391752D01*
X157234025Y-94262187D01*
X157234024Y-94262186D01*
X157234022Y-94262185D01*
X157116791Y-94202452D01*
X157037606Y-94162104D01*
X157037603Y-94162103D01*
X156827952Y-94093985D01*
X156719086Y-94076742D01*
X156610222Y-94059500D01*
X156389778Y-94059500D01*
X156317201Y-94070995D01*
X156172047Y-94093985D01*
X155962396Y-94162103D01*
X155962393Y-94162104D01*
X155765974Y-94262187D01*
X155587641Y-94391752D01*
X155587636Y-94391756D01*
X155537463Y-94441929D01*
X155476140Y-94475413D01*
X155406448Y-94470428D01*
X155350515Y-94428557D01*
X155333601Y-94397580D01*
X155303797Y-94317671D01*
X155303793Y-94317664D01*
X155217547Y-94202455D01*
X155217544Y-94202452D01*
X155102335Y-94116206D01*
X155102328Y-94116202D01*
X154967482Y-94065908D01*
X154967483Y-94065908D01*
X154907883Y-94059501D01*
X154907881Y-94059500D01*
X154907873Y-94059500D01*
X154907865Y-94059500D01*
X154552021Y-94059500D01*
X154484982Y-94039815D01*
X154464340Y-94023181D01*
X153884237Y-93443076D01*
X153884236Y-93443075D01*
X153833304Y-93409044D01*
X153775232Y-93370242D01*
X153654119Y-93320075D01*
X153654113Y-93320073D01*
X153525549Y-93294500D01*
X153525547Y-93294500D01*
X153525546Y-93294500D01*
X149908697Y-93294500D01*
X149841658Y-93274815D01*
X149795903Y-93222011D01*
X149785959Y-93152853D01*
X149787080Y-93146308D01*
X149800500Y-93078844D01*
X149800500Y-92921155D01*
X149800499Y-92921153D01*
X149769738Y-92766510D01*
X149769737Y-92766503D01*
X149769735Y-92766498D01*
X149709397Y-92620827D01*
X149709390Y-92620814D01*
X149621789Y-92489711D01*
X149621786Y-92489707D01*
X149510292Y-92378213D01*
X149510288Y-92378210D01*
X149379185Y-92290609D01*
X149379172Y-92290602D01*
X149233501Y-92230264D01*
X149233489Y-92230261D01*
X149078845Y-92199500D01*
X149078842Y-92199500D01*
X149075901Y-92199500D01*
X149074415Y-92199063D01*
X149072782Y-92198903D01*
X149072812Y-92198593D01*
X149008862Y-92179815D01*
X148963107Y-92127011D01*
X148952543Y-92062898D01*
X148960499Y-91985018D01*
X148960500Y-91985009D01*
X148960499Y-90934992D01*
X148949999Y-90832203D01*
X148894814Y-90665666D01*
X148802712Y-90516344D01*
X148678656Y-90392288D01*
X148529334Y-90300186D01*
X148362797Y-90245001D01*
X148362795Y-90245000D01*
X148260010Y-90234500D01*
X147659998Y-90234500D01*
X147659980Y-90234501D01*
X147557203Y-90245000D01*
X147557200Y-90245001D01*
X147390668Y-90300185D01*
X147390663Y-90300187D01*
X147241342Y-90392289D01*
X147117285Y-90516346D01*
X147115537Y-90519182D01*
X147113829Y-90520717D01*
X147112807Y-90522011D01*
X147112585Y-90521836D01*
X147063589Y-90565905D01*
X146994626Y-90577126D01*
X146930544Y-90549282D01*
X146904463Y-90519182D01*
X146902714Y-90516346D01*
X146778657Y-90392289D01*
X146778656Y-90392288D01*
X146629334Y-90300186D01*
X146462797Y-90245001D01*
X146462795Y-90245000D01*
X146360010Y-90234500D01*
X145759998Y-90234500D01*
X145759980Y-90234501D01*
X145657203Y-90245000D01*
X145657200Y-90245001D01*
X145490668Y-90300185D01*
X145490663Y-90300187D01*
X145341342Y-90392289D01*
X145217289Y-90516342D01*
X145125187Y-90665663D01*
X145125185Y-90665668D01*
X145110000Y-90711494D01*
X145070001Y-90832203D01*
X145070001Y-90832204D01*
X145070000Y-90832204D01*
X145059500Y-90934983D01*
X145059500Y-91985001D01*
X145059501Y-91985019D01*
X145070000Y-92087796D01*
X145070001Y-92087799D01*
X145082995Y-92127011D01*
X145125186Y-92254334D01*
X145217288Y-92403656D01*
X145341344Y-92527712D01*
X145400596Y-92564258D01*
X145447321Y-92616204D01*
X145459500Y-92669797D01*
X145459500Y-93203687D01*
X145439815Y-93270726D01*
X145387011Y-93316481D01*
X145317853Y-93326425D01*
X145266610Y-93306790D01*
X145240599Y-93289410D01*
X145240588Y-93289404D01*
X145094917Y-93229066D01*
X145094905Y-93229063D01*
X144940261Y-93198302D01*
X144940258Y-93198302D01*
X144782574Y-93198302D01*
X144782571Y-93198302D01*
X144627926Y-93229063D01*
X144627914Y-93229066D01*
X144482243Y-93289404D01*
X144482228Y-93289412D01*
X144447822Y-93312403D01*
X144381145Y-93333282D01*
X144378930Y-93333302D01*
X139565255Y-93333302D01*
X139436690Y-93358875D01*
X139436682Y-93358877D01*
X139315570Y-93409043D01*
X139315567Y-93409044D01*
X139206572Y-93481873D01*
X139206568Y-93481876D01*
X138625897Y-94062546D01*
X138564574Y-94096031D01*
X138494883Y-94091047D01*
X138427482Y-94065908D01*
X138427483Y-94065908D01*
X138367883Y-94059501D01*
X138367881Y-94059500D01*
X138367873Y-94059500D01*
X138367864Y-94059500D01*
X136472129Y-94059500D01*
X136472123Y-94059501D01*
X136412516Y-94065908D01*
X136277671Y-94116202D01*
X136277664Y-94116206D01*
X136162455Y-94202452D01*
X136162452Y-94202455D01*
X136076206Y-94317664D01*
X136076202Y-94317671D01*
X136025908Y-94452517D01*
X136019501Y-94512116D01*
X136019500Y-94512135D01*
X136019500Y-96407870D01*
X136019501Y-96407876D01*
X136025908Y-96467483D01*
X136076202Y-96602328D01*
X136076206Y-96602335D01*
X136162452Y-96717544D01*
X136162455Y-96717547D01*
X136277664Y-96803793D01*
X136277671Y-96803797D01*
X136412517Y-96854091D01*
X136412516Y-96854091D01*
X136419444Y-96854835D01*
X136472127Y-96860500D01*
X137467977Y-96860499D01*
X137535016Y-96880183D01*
X137555658Y-96896818D01*
X137779667Y-97120827D01*
X137846660Y-97187819D01*
X137880145Y-97249142D01*
X137875161Y-97318833D01*
X137833290Y-97374767D01*
X137767825Y-97399184D01*
X137758979Y-97399500D01*
X135499057Y-97399500D01*
X135340942Y-97399500D01*
X135188215Y-97440423D01*
X135188214Y-97440423D01*
X135188212Y-97440424D01*
X135188209Y-97440425D01*
X135146778Y-97464346D01*
X135146762Y-97464356D01*
X135144701Y-97465546D01*
X135051284Y-97519480D01*
X135037749Y-97533014D01*
X135025985Y-97540424D01*
X135005210Y-97546318D01*
X134986260Y-97556666D01*
X134959902Y-97559500D01*
X134871306Y-97559500D01*
X134697341Y-97594103D01*
X134697332Y-97594106D01*
X134533459Y-97661983D01*
X134533446Y-97661990D01*
X134385965Y-97760535D01*
X134385961Y-97760538D01*
X134260538Y-97885961D01*
X134260535Y-97885965D01*
X134161990Y-98033446D01*
X134161983Y-98033459D01*
X134094106Y-98197332D01*
X134094103Y-98197341D01*
X134059500Y-98371304D01*
X132000000Y-98371304D01*
X132000000Y-90884918D01*
X132019685Y-90817879D01*
X132072489Y-90772124D01*
X132141647Y-90762180D01*
X132205203Y-90791205D01*
X132224316Y-90812029D01*
X132315483Y-90937510D01*
X132482490Y-91104517D01*
X132673567Y-91243343D01*
X132772991Y-91294002D01*
X132884003Y-91350566D01*
X132884005Y-91350566D01*
X132884008Y-91350568D01*
X133004412Y-91389689D01*
X133108631Y-91423553D01*
X133341903Y-91460500D01*
X133341908Y-91460500D01*
X133578097Y-91460500D01*
X133811368Y-91423553D01*
X134035992Y-91350568D01*
X134246433Y-91243343D01*
X134437510Y-91104517D01*
X134604517Y-90937510D01*
X134743343Y-90746433D01*
X134850568Y-90535992D01*
X134923553Y-90311368D01*
X134925324Y-90300185D01*
X134960500Y-90078097D01*
X134960500Y-89841902D01*
X134923553Y-89608631D01*
X134850566Y-89384003D01*
X134763020Y-89212186D01*
X134743343Y-89173567D01*
X134604517Y-88982490D01*
X134437510Y-88815483D01*
X134312031Y-88724317D01*
X134269367Y-88668988D01*
X134263388Y-88599374D01*
X134295994Y-88537579D01*
X134356833Y-88503222D01*
X134384918Y-88500000D01*
X160035082Y-88500000D01*
X160102121Y-88519685D01*
G37*
%TD.AperFunction*%
%TA.AperFunction,NonConductor*%
G36*
X147013816Y-92344752D02*
G01*
X147025368Y-92342872D01*
X147047259Y-92352382D01*
X147070528Y-92357692D01*
X147085067Y-92368808D01*
X147089451Y-92370713D01*
X147093166Y-92375000D01*
X147098566Y-92379129D01*
X147108264Y-92389025D01*
X147117288Y-92403656D01*
X147241344Y-92527712D01*
X147248473Y-92532109D01*
X147259066Y-92542919D01*
X147291927Y-92604578D01*
X147294500Y-92629706D01*
X147294500Y-93107976D01*
X147274815Y-93175015D01*
X147258181Y-93195658D01*
X147178168Y-93275670D01*
X147116844Y-93309154D01*
X147047153Y-93304169D01*
X147043036Y-93302550D01*
X147035999Y-93299635D01*
X147021629Y-93297743D01*
X146921047Y-93284500D01*
X146921040Y-93284500D01*
X146784500Y-93284500D01*
X146717461Y-93264815D01*
X146671706Y-93212011D01*
X146660500Y-93160500D01*
X146660500Y-92669797D01*
X146680185Y-92602758D01*
X146719403Y-92564258D01*
X146778656Y-92527712D01*
X146902712Y-92403656D01*
X146904461Y-92400819D01*
X146906169Y-92399283D01*
X146907193Y-92397989D01*
X146907414Y-92398163D01*
X146922204Y-92384860D01*
X146936700Y-92365900D01*
X146947705Y-92361921D01*
X146956406Y-92354096D01*
X146979964Y-92350261D01*
X147002409Y-92342149D01*
X147013816Y-92344752D01*
G37*
%TD.AperFunction*%
%TA.AperFunction,NonConductor*%
G36*
X144397075Y-94669630D02*
G01*
X144415984Y-94669968D01*
X144444197Y-94683466D01*
X144445969Y-94683987D01*
X144447822Y-94685201D01*
X144482228Y-94708191D01*
X144482243Y-94708199D01*
X144581954Y-94749500D01*
X144627919Y-94768539D01*
X144740893Y-94791011D01*
X144747614Y-94792348D01*
X144809525Y-94824732D01*
X144844099Y-94885448D01*
X144840360Y-94955218D01*
X144837984Y-94961417D01*
X144799636Y-95053997D01*
X144799635Y-95054002D01*
X144784500Y-95168952D01*
X144784500Y-95421047D01*
X144799635Y-95535997D01*
X144799636Y-95536002D01*
X144812703Y-95567550D01*
X144820170Y-95637019D01*
X144812703Y-95662450D01*
X144799636Y-95693997D01*
X144799635Y-95694002D01*
X144784500Y-95808952D01*
X144784500Y-96061047D01*
X144793748Y-96131284D01*
X144799635Y-96175999D01*
X144839838Y-96273059D01*
X144850061Y-96297738D01*
X144851687Y-96305915D01*
X144854477Y-96310256D01*
X144859500Y-96345191D01*
X144859500Y-96480099D01*
X144839815Y-96547138D01*
X144838602Y-96548990D01*
X144790609Y-96620815D01*
X144790602Y-96620828D01*
X144730264Y-96766498D01*
X144730261Y-96766510D01*
X144699500Y-96921153D01*
X144699500Y-97078846D01*
X144723859Y-97201309D01*
X144717632Y-97270901D01*
X144674768Y-97326078D01*
X144608879Y-97349322D01*
X144602242Y-97349500D01*
X143612129Y-97349500D01*
X143612123Y-97349501D01*
X143552514Y-97355909D01*
X143460863Y-97390092D01*
X143391171Y-97395076D01*
X143329848Y-97361590D01*
X143296364Y-97300266D01*
X143295914Y-97298101D01*
X143276621Y-97201113D01*
X143269737Y-97166503D01*
X143250085Y-97119058D01*
X143209397Y-97020827D01*
X143209390Y-97020814D01*
X143121398Y-96889125D01*
X143100520Y-96822447D01*
X143100500Y-96820234D01*
X143100500Y-96420944D01*
X143100500Y-96420943D01*
X143088055Y-96374499D01*
X143059577Y-96268215D01*
X143019904Y-96199500D01*
X142990583Y-96148713D01*
X142980521Y-96131285D01*
X142864385Y-96015149D01*
X142864374Y-96015139D01*
X141947590Y-95098355D01*
X141947588Y-95098352D01*
X141828717Y-94979481D01*
X141828716Y-94979480D01*
X141729839Y-94922394D01*
X141729838Y-94922393D01*
X141715523Y-94914128D01*
X141691785Y-94900423D01*
X141691782Y-94900422D01*
X141684748Y-94896361D01*
X141686290Y-94893689D01*
X141643272Y-94859023D01*
X141621206Y-94792730D01*
X141638484Y-94725030D01*
X141689621Y-94677419D01*
X141745127Y-94664302D01*
X144378930Y-94664302D01*
X144397075Y-94669630D01*
G37*
%TD.AperFunction*%
%TA.AperFunction,NonConductor*%
G36*
X141337895Y-96187147D02*
G01*
X141339156Y-96188391D01*
X141863181Y-96712416D01*
X141877884Y-96739343D01*
X141894477Y-96765162D01*
X141895368Y-96771362D01*
X141896666Y-96773739D01*
X141899500Y-96800097D01*
X141899500Y-96820234D01*
X141879815Y-96887273D01*
X141878602Y-96889125D01*
X141790609Y-97020814D01*
X141790602Y-97020827D01*
X141730264Y-97166498D01*
X141730261Y-97166508D01*
X141703769Y-97299692D01*
X141671384Y-97361603D01*
X141610668Y-97396177D01*
X141582152Y-97399500D01*
X139917848Y-97399500D01*
X139850809Y-97379815D01*
X139805054Y-97327011D01*
X139796231Y-97299692D01*
X139769738Y-97166508D01*
X139769737Y-97166507D01*
X139769737Y-97166503D01*
X139713199Y-97030009D01*
X139705731Y-96960541D01*
X139737006Y-96898062D01*
X139797095Y-96862410D01*
X139844921Y-96860188D01*
X139844927Y-96860118D01*
X139845491Y-96860162D01*
X139847158Y-96860085D01*
X139849778Y-96860500D01*
X139849780Y-96860500D01*
X140070221Y-96860500D01*
X140070222Y-96860500D01*
X140287951Y-96826015D01*
X140497606Y-96757895D01*
X140694022Y-96657815D01*
X140872365Y-96528242D01*
X141028242Y-96372365D01*
X141066987Y-96319037D01*
X141151157Y-96203187D01*
X141206486Y-96160521D01*
X141276100Y-96154542D01*
X141337895Y-96187147D01*
G37*
%TD.AperFunction*%
%TA.AperFunction,NonConductor*%
G36*
X155509209Y-96456919D02*
G01*
X155537464Y-96478071D01*
X155587636Y-96528243D01*
X155587641Y-96528247D01*
X155765976Y-96657814D01*
X155831794Y-96691350D01*
X155842858Y-96701799D01*
X155856703Y-96708122D01*
X155867743Y-96725301D01*
X155882591Y-96739324D01*
X155886832Y-96755005D01*
X155894477Y-96766900D01*
X155899500Y-96801835D01*
X155899500Y-96920234D01*
X155879815Y-96987273D01*
X155878602Y-96989125D01*
X155790609Y-97120814D01*
X155790602Y-97120827D01*
X155730264Y-97266498D01*
X155730261Y-97266510D01*
X155699500Y-97421153D01*
X155699500Y-97425500D01*
X155679815Y-97492539D01*
X155627011Y-97538294D01*
X155575500Y-97549500D01*
X154424500Y-97549500D01*
X154357461Y-97529815D01*
X154311706Y-97477011D01*
X154300500Y-97425500D01*
X154300500Y-97421155D01*
X154300499Y-97421153D01*
X154295312Y-97395076D01*
X154269737Y-97266503D01*
X154239460Y-97193407D01*
X154209397Y-97120827D01*
X154209390Y-97120814D01*
X154186398Y-97086404D01*
X154180747Y-97068357D01*
X154170523Y-97052448D01*
X154166071Y-97021486D01*
X154165520Y-97019726D01*
X154165500Y-97017513D01*
X154165500Y-96984499D01*
X154185185Y-96917460D01*
X154237989Y-96871705D01*
X154289500Y-96860499D01*
X154907871Y-96860499D01*
X154907872Y-96860499D01*
X154967483Y-96854091D01*
X155102331Y-96803796D01*
X155217546Y-96717546D01*
X155303796Y-96602331D01*
X155331429Y-96528243D01*
X155333601Y-96522420D01*
X155375471Y-96466486D01*
X155440936Y-96442068D01*
X155509209Y-96456919D01*
G37*
%TD.AperFunction*%
%TA.AperFunction,NonConductor*%
G36*
X152502539Y-94645185D02*
G01*
X152548294Y-94697989D01*
X152559500Y-94749500D01*
X152559500Y-96407870D01*
X152559501Y-96407876D01*
X152565908Y-96467483D01*
X152616202Y-96602328D01*
X152616206Y-96602335D01*
X152702452Y-96717544D01*
X152702453Y-96717545D01*
X152702454Y-96717546D01*
X152784811Y-96779198D01*
X152787546Y-96782852D01*
X152791703Y-96784751D01*
X152808295Y-96810570D01*
X152826682Y-96835131D01*
X152827697Y-96840760D01*
X152829477Y-96843529D01*
X152834500Y-96878464D01*
X152834500Y-97017513D01*
X152814815Y-97084552D01*
X152813602Y-97086404D01*
X152790609Y-97120814D01*
X152790602Y-97120827D01*
X152730264Y-97266498D01*
X152730261Y-97266510D01*
X152699500Y-97421153D01*
X152699500Y-97425500D01*
X152679815Y-97492539D01*
X152627011Y-97538294D01*
X152575500Y-97549500D01*
X151522320Y-97549500D01*
X151455281Y-97529815D01*
X151423052Y-97499809D01*
X151423051Y-97499808D01*
X151417546Y-97492454D01*
X151379999Y-97464346D01*
X151302335Y-97406206D01*
X151302328Y-97406202D01*
X151167482Y-97355908D01*
X151167483Y-97355908D01*
X151107883Y-97349501D01*
X151107881Y-97349500D01*
X151107873Y-97349500D01*
X151107865Y-97349500D01*
X149660353Y-97349500D01*
X149593314Y-97329815D01*
X149547559Y-97277011D01*
X149537615Y-97207853D01*
X149540578Y-97193407D01*
X149560500Y-97119058D01*
X149560500Y-96960943D01*
X149560500Y-96340098D01*
X149569144Y-96310658D01*
X149575667Y-96280673D01*
X149579422Y-96275656D01*
X149580185Y-96273059D01*
X149596818Y-96252418D01*
X149700520Y-96148716D01*
X149700521Y-96148713D01*
X150480520Y-95368716D01*
X150559577Y-95231784D01*
X150600501Y-95079057D01*
X150600501Y-94920942D01*
X150600501Y-94913347D01*
X150600500Y-94913329D01*
X150600500Y-94749500D01*
X150620185Y-94682461D01*
X150672989Y-94636706D01*
X150724500Y-94625500D01*
X152435500Y-94625500D01*
X152502539Y-94645185D01*
G37*
%TD.AperFunction*%
%TA.AperFunction,NonConductor*%
G36*
X146204926Y-94565114D02*
G01*
X146207969Y-94564824D01*
X146236502Y-94579534D01*
X146265703Y-94592870D01*
X146268174Y-94595863D01*
X146270071Y-94596841D01*
X146291885Y-94624581D01*
X146298886Y-94636706D01*
X146314479Y-94663715D01*
X146443720Y-94792956D01*
X146443725Y-94792960D01*
X146631284Y-94980520D01*
X146631286Y-94980521D01*
X146631290Y-94980524D01*
X146758551Y-95053997D01*
X146768216Y-95059577D01*
X146920943Y-95100501D01*
X146920945Y-95100501D01*
X147086654Y-95100501D01*
X147086670Y-95100500D01*
X147815892Y-95100500D01*
X147882931Y-95120185D01*
X147928686Y-95172989D01*
X147938630Y-95242147D01*
X147923279Y-95286500D01*
X147906874Y-95314913D01*
X147906873Y-95314917D01*
X147865949Y-95467645D01*
X147865949Y-95467647D01*
X147865949Y-95635748D01*
X147865950Y-95635761D01*
X147865950Y-96666352D01*
X147846265Y-96733391D01*
X147829631Y-96754033D01*
X147519481Y-97064182D01*
X147519479Y-97064184D01*
X147506651Y-97086404D01*
X147487799Y-97119058D01*
X147450435Y-97183772D01*
X147448100Y-97187819D01*
X147440423Y-97201115D01*
X147399499Y-97353843D01*
X147399499Y-97353845D01*
X147399499Y-97425500D01*
X147379814Y-97492539D01*
X147327010Y-97538294D01*
X147275499Y-97549500D01*
X146324424Y-97549500D01*
X146257385Y-97529815D01*
X146211630Y-97477011D01*
X146201686Y-97407853D01*
X146209863Y-97378048D01*
X146256063Y-97266510D01*
X146269737Y-97233497D01*
X146300500Y-97078842D01*
X146300500Y-96921158D01*
X146300500Y-96921155D01*
X146300499Y-96921153D01*
X146293760Y-96887273D01*
X146269737Y-96766503D01*
X146266172Y-96757896D01*
X146209397Y-96620827D01*
X146209390Y-96620814D01*
X146121789Y-96489711D01*
X146121786Y-96489707D01*
X146096819Y-96464740D01*
X146082115Y-96437812D01*
X146065523Y-96411994D01*
X146064631Y-96405793D01*
X146063334Y-96403417D01*
X146060500Y-96377059D01*
X146060500Y-96345191D01*
X146069939Y-96297738D01*
X146120365Y-96175999D01*
X146135500Y-96061040D01*
X146135500Y-95808960D01*
X146120365Y-95694001D01*
X146107296Y-95662452D01*
X146099828Y-95592985D01*
X146107295Y-95567550D01*
X146120365Y-95535999D01*
X146135500Y-95421040D01*
X146135500Y-95168960D01*
X146120365Y-95054001D01*
X146069938Y-94932260D01*
X146060500Y-94884809D01*
X146060500Y-94686583D01*
X146061361Y-94683650D01*
X146060641Y-94680681D01*
X146071139Y-94650348D01*
X146080185Y-94619544D01*
X146082494Y-94617542D01*
X146083494Y-94614655D01*
X146108732Y-94594807D01*
X146132989Y-94573789D01*
X146136012Y-94573354D01*
X146138415Y-94571465D01*
X146170373Y-94568413D01*
X146202147Y-94563845D01*
X146204926Y-94565114D01*
G37*
%TD.AperFunction*%
%TA.AperFunction,NonConductor*%
G36*
X143162898Y-98620185D02*
G01*
X143208653Y-98672989D01*
X143212043Y-98681174D01*
X143216145Y-98692174D01*
X143221126Y-98761866D01*
X143187637Y-98823187D01*
X143126311Y-98856668D01*
X143099961Y-98859500D01*
X135949770Y-98859500D01*
X135882731Y-98839815D01*
X135836976Y-98787011D01*
X135827032Y-98717853D01*
X135828153Y-98711309D01*
X135830341Y-98700309D01*
X135862725Y-98638398D01*
X135923441Y-98603824D01*
X135951958Y-98600500D01*
X143095859Y-98600500D01*
X143162898Y-98620185D01*
G37*
%TD.AperFunction*%
%TA.AperFunction,NonConductor*%
G36*
X154082985Y-101062126D02*
G01*
X154088064Y-101061210D01*
X154122261Y-101069939D01*
X154245387Y-101120939D01*
X154299791Y-101164780D01*
X154321856Y-101231074D01*
X154304577Y-101298773D01*
X154253440Y-101346384D01*
X154197935Y-101359500D01*
X151634959Y-101359500D01*
X151567920Y-101339815D01*
X151522165Y-101287011D01*
X151512221Y-101217853D01*
X151518776Y-101192168D01*
X151531964Y-101156809D01*
X151537798Y-101141166D01*
X151579668Y-101085234D01*
X151645132Y-101060816D01*
X151653980Y-101060500D01*
X154074809Y-101060500D01*
X154082985Y-101062126D01*
G37*
%TD.AperFunction*%
%TA.AperFunction,NonConductor*%
G36*
X154852449Y-101107295D02*
G01*
X154884001Y-101120365D01*
X154998960Y-101135500D01*
X154998967Y-101135500D01*
X155123978Y-101135500D01*
X155191017Y-101155185D01*
X155236772Y-101207989D01*
X155246716Y-101277147D01*
X155217691Y-101340703D01*
X155211659Y-101347181D01*
X154961718Y-101597121D01*
X154900395Y-101630606D01*
X154830703Y-101625622D01*
X154786356Y-101597121D01*
X154668716Y-101479481D01*
X154668715Y-101479480D01*
X154563059Y-101418480D01*
X154531784Y-101400423D01*
X154447404Y-101377813D01*
X154442103Y-101375861D01*
X154418401Y-101358272D01*
X154393198Y-101342910D01*
X154390660Y-101337686D01*
X154385995Y-101334224D01*
X154375563Y-101306608D01*
X154362669Y-101280063D01*
X154363358Y-101274295D01*
X154361306Y-101268862D01*
X154367459Y-101239993D01*
X154370964Y-101210687D01*
X154374661Y-101206208D01*
X154375873Y-101200527D01*
X154396656Y-101179569D01*
X154415449Y-101156809D01*
X154420981Y-101155040D01*
X154425072Y-101150916D01*
X154453887Y-101144521D01*
X154482001Y-101135535D01*
X154484952Y-101135500D01*
X154611033Y-101135500D01*
X154611040Y-101135500D01*
X154725999Y-101120365D01*
X154757547Y-101107296D01*
X154827015Y-101099828D01*
X154852449Y-101107295D01*
G37*
%TD.AperFunction*%
%TA.AperFunction,NonConductor*%
G36*
X154293814Y-103843275D02*
G01*
X154307147Y-103841359D01*
X154327290Y-103850558D01*
X154348927Y-103855265D01*
X154366652Y-103868533D01*
X154370703Y-103870384D01*
X154377181Y-103876416D01*
X154481285Y-103980520D01*
X154481287Y-103980521D01*
X154481291Y-103980524D01*
X154618210Y-104059573D01*
X154618217Y-104059577D01*
X154711968Y-104084697D01*
X154767556Y-104116791D01*
X155863181Y-105212416D01*
X155896666Y-105273739D01*
X155899500Y-105300097D01*
X155899500Y-106118164D01*
X155879815Y-106185203D01*
X155831796Y-106228648D01*
X155765976Y-106262185D01*
X155587641Y-106391752D01*
X155587636Y-106391756D01*
X155537463Y-106441929D01*
X155476140Y-106475413D01*
X155406448Y-106470428D01*
X155350515Y-106428557D01*
X155333601Y-106397580D01*
X155303797Y-106317671D01*
X155303793Y-106317664D01*
X155217547Y-106202455D01*
X155217544Y-106202452D01*
X155102335Y-106116206D01*
X155102328Y-106116202D01*
X154967482Y-106065908D01*
X154967483Y-106065908D01*
X154907883Y-106059501D01*
X154907881Y-106059500D01*
X154907873Y-106059500D01*
X154907865Y-106059500D01*
X154289500Y-106059500D01*
X154222461Y-106039815D01*
X154176706Y-105987011D01*
X154165500Y-105935500D01*
X154165500Y-103964097D01*
X154171738Y-103942851D01*
X154173318Y-103920763D01*
X154181390Y-103909979D01*
X154185185Y-103897058D01*
X154201918Y-103882558D01*
X154215190Y-103864830D01*
X154227810Y-103860122D01*
X154237989Y-103851303D01*
X154259906Y-103848151D01*
X154280654Y-103840413D01*
X154293814Y-103843275D01*
G37*
%TD.AperFunction*%
%TA.AperFunction,NonConductor*%
G36*
X141648993Y-102519185D02*
G01*
X141694748Y-102571989D01*
X141703571Y-102599309D01*
X141730261Y-102733489D01*
X141730264Y-102733501D01*
X141790602Y-102879172D01*
X141790609Y-102879185D01*
X141878602Y-103010874D01*
X141899480Y-103077551D01*
X141899500Y-103079765D01*
X141899500Y-103913330D01*
X141899499Y-103913348D01*
X141899499Y-104079054D01*
X141899498Y-104079054D01*
X141940422Y-104231783D01*
X141962334Y-104269735D01*
X141962336Y-104269738D01*
X142019479Y-104368714D01*
X142019481Y-104368717D01*
X142138349Y-104487585D01*
X142138355Y-104487590D01*
X144366819Y-106716055D01*
X144400304Y-106777378D01*
X144395320Y-106847070D01*
X144354625Y-106902111D01*
X144288133Y-106953132D01*
X144193882Y-107075963D01*
X144134636Y-107218997D01*
X144134635Y-107219001D01*
X144130332Y-107251686D01*
X144102065Y-107315582D01*
X144043741Y-107354053D01*
X144007393Y-107359500D01*
X141571836Y-107359500D01*
X141504797Y-107339815D01*
X141461352Y-107291796D01*
X141427814Y-107225976D01*
X141298247Y-107047641D01*
X141298243Y-107047636D01*
X141142363Y-106891756D01*
X141142358Y-106891752D01*
X140964025Y-106762187D01*
X140964024Y-106762186D01*
X140964022Y-106762185D01*
X140873488Y-106716055D01*
X140767606Y-106662104D01*
X140767603Y-106662103D01*
X140557952Y-106593985D01*
X140383035Y-106566281D01*
X140340222Y-106559500D01*
X140119778Y-106559500D01*
X140076965Y-106566281D01*
X139902047Y-106593985D01*
X139692396Y-106662103D01*
X139692393Y-106662104D01*
X139495974Y-106762187D01*
X139317641Y-106891752D01*
X139317636Y-106891756D01*
X139267463Y-106941929D01*
X139206140Y-106975413D01*
X139136448Y-106970428D01*
X139080515Y-106928557D01*
X139063601Y-106897580D01*
X139033797Y-106817671D01*
X139033793Y-106817664D01*
X138947547Y-106702455D01*
X138947544Y-106702452D01*
X138832335Y-106616206D01*
X138832328Y-106616202D01*
X138697482Y-106565908D01*
X138697483Y-106565908D01*
X138637883Y-106559501D01*
X138637881Y-106559500D01*
X138637873Y-106559500D01*
X138637865Y-106559500D01*
X138479500Y-106559500D01*
X138412461Y-106539815D01*
X138366706Y-106487011D01*
X138355500Y-106435500D01*
X138355500Y-105637021D01*
X138375185Y-105569982D01*
X138391819Y-105549340D01*
X139279340Y-104661819D01*
X139306267Y-104647115D01*
X139332086Y-104630523D01*
X139338286Y-104629631D01*
X139340663Y-104628334D01*
X139367021Y-104625500D01*
X139429877Y-104625500D01*
X139446063Y-104626561D01*
X139481982Y-104631290D01*
X139513960Y-104635500D01*
X139513967Y-104635500D01*
X139766033Y-104635500D01*
X139766040Y-104635500D01*
X139833937Y-104626560D01*
X139850123Y-104625500D01*
X140069877Y-104625500D01*
X140086063Y-104626561D01*
X140121982Y-104631290D01*
X140153960Y-104635500D01*
X140153967Y-104635500D01*
X140406033Y-104635500D01*
X140406040Y-104635500D01*
X140520999Y-104620365D01*
X140664037Y-104561117D01*
X140786867Y-104466867D01*
X140881117Y-104344037D01*
X140940365Y-104200999D01*
X140955500Y-104086040D01*
X140955500Y-103833960D01*
X140940365Y-103719001D01*
X140881117Y-103575963D01*
X140786867Y-103453133D01*
X140678842Y-103370243D01*
X140664036Y-103358882D01*
X140664037Y-103358882D01*
X140521002Y-103299636D01*
X140521000Y-103299635D01*
X140520999Y-103299635D01*
X140499616Y-103296819D01*
X140413313Y-103285457D01*
X140349417Y-103257190D01*
X140310947Y-103198865D01*
X140305500Y-103162518D01*
X140305500Y-102757481D01*
X140325185Y-102690442D01*
X140377989Y-102644687D01*
X140413311Y-102634542D01*
X140520999Y-102620365D01*
X140664037Y-102561117D01*
X140710945Y-102525123D01*
X140776112Y-102499930D01*
X140786430Y-102499500D01*
X141581954Y-102499500D01*
X141648993Y-102519185D01*
G37*
%TD.AperFunction*%
%TA.AperFunction,NonConductor*%
G36*
X147858363Y-99911190D02*
G01*
X147895082Y-99970634D01*
X147899500Y-100003439D01*
X147899500Y-101413330D01*
X147899499Y-101413348D01*
X147899499Y-101579054D01*
X147899498Y-101579054D01*
X147940423Y-101731785D01*
X147960107Y-101765877D01*
X147960108Y-101765881D01*
X148019475Y-101868709D01*
X148019481Y-101868717D01*
X148138349Y-101987585D01*
X148138355Y-101987590D01*
X148323181Y-102172416D01*
X148356666Y-102233739D01*
X148359500Y-102260095D01*
X148359500Y-102307868D01*
X148359501Y-102307876D01*
X148365908Y-102367483D01*
X148416202Y-102502328D01*
X148416206Y-102502335D01*
X148502452Y-102617544D01*
X148502455Y-102617547D01*
X148617664Y-102703793D01*
X148617671Y-102703797D01*
X148650709Y-102716119D01*
X148752517Y-102754091D01*
X148812127Y-102760500D01*
X149235500Y-102760499D01*
X149302539Y-102780183D01*
X149348294Y-102832987D01*
X149359500Y-102884499D01*
X149359500Y-106239902D01*
X149339815Y-106306941D01*
X149323181Y-106327583D01*
X149004481Y-106646282D01*
X149004479Y-106646285D01*
X148971612Y-106703214D01*
X148971611Y-106703216D01*
X148925423Y-106783214D01*
X148925423Y-106783215D01*
X148884499Y-106935943D01*
X148884499Y-106935945D01*
X148884499Y-107104046D01*
X148884500Y-107104059D01*
X148884500Y-107125149D01*
X148875061Y-107172601D01*
X148849314Y-107234760D01*
X148849313Y-107234764D01*
X148834500Y-107347272D01*
X148834500Y-107572727D01*
X148844390Y-107647840D01*
X148849313Y-107685236D01*
X148855841Y-107700997D01*
X148875061Y-107747396D01*
X148884500Y-107794849D01*
X148884500Y-108235500D01*
X148881949Y-108244185D01*
X148883238Y-108253147D01*
X148872259Y-108277187D01*
X148864815Y-108302539D01*
X148857974Y-108308466D01*
X148854213Y-108316703D01*
X148831978Y-108330992D01*
X148812011Y-108348294D01*
X148801496Y-108350581D01*
X148795435Y-108354477D01*
X148760500Y-108359500D01*
X148690192Y-108359500D01*
X148642739Y-108350061D01*
X148603051Y-108333621D01*
X148562825Y-108306742D01*
X148378438Y-108122355D01*
X148378436Y-108122352D01*
X148259565Y-108003481D01*
X148259564Y-108003480D01*
X148159054Y-107945451D01*
X148122633Y-107924423D01*
X147969905Y-107883499D01*
X147811791Y-107883499D01*
X147804195Y-107883499D01*
X147804179Y-107883500D01*
X146595057Y-107883500D01*
X146436942Y-107883500D01*
X146400849Y-107893170D01*
X146396015Y-107894466D01*
X146396014Y-107894465D01*
X146393005Y-107895272D01*
X146360902Y-107899500D01*
X146198722Y-107899500D01*
X146131683Y-107879815D01*
X146085928Y-107827011D01*
X146075984Y-107757853D01*
X146084161Y-107728047D01*
X146095365Y-107700999D01*
X146110500Y-107586040D01*
X146110500Y-107333960D01*
X146095365Y-107219001D01*
X146044938Y-107097260D01*
X146043312Y-107089084D01*
X146040523Y-107084744D01*
X146035500Y-107049809D01*
X146035500Y-107024060D01*
X146035501Y-107024047D01*
X146035501Y-106855945D01*
X146035501Y-106855943D01*
X145994577Y-106703215D01*
X145915520Y-106566284D01*
X143136819Y-103787583D01*
X143103334Y-103726260D01*
X143100500Y-103699902D01*
X143100500Y-103079765D01*
X143120185Y-103012726D01*
X143121398Y-103010874D01*
X143161641Y-102950647D01*
X143209394Y-102879179D01*
X143254401Y-102770519D01*
X143298240Y-102716119D01*
X143364533Y-102694053D01*
X143412294Y-102701792D01*
X143552517Y-102754091D01*
X143552516Y-102754091D01*
X143559444Y-102754835D01*
X143612127Y-102760500D01*
X145907872Y-102760499D01*
X145967483Y-102754091D01*
X146102331Y-102703796D01*
X146217546Y-102617546D01*
X146303796Y-102502331D01*
X146354091Y-102367483D01*
X146360500Y-102307873D01*
X146360499Y-101612128D01*
X146354091Y-101552517D01*
X146354091Y-101552516D01*
X146303797Y-101417670D01*
X146303796Y-101417669D01*
X146290885Y-101400423D01*
X146290053Y-101399311D01*
X146265635Y-101333850D01*
X146280485Y-101265576D01*
X146290050Y-101250691D01*
X146303796Y-101232331D01*
X146354091Y-101097483D01*
X146360500Y-101037873D01*
X146360499Y-100342128D01*
X146354091Y-100282517D01*
X146354090Y-100282516D01*
X146353329Y-100275428D01*
X146365736Y-100206669D01*
X146413347Y-100155532D01*
X146481046Y-100138254D01*
X146545510Y-100159073D01*
X146620814Y-100209390D01*
X146620827Y-100209397D01*
X146766498Y-100269735D01*
X146766503Y-100269737D01*
X146921153Y-100300499D01*
X146921156Y-100300500D01*
X146921158Y-100300500D01*
X147078844Y-100300500D01*
X147078845Y-100300499D01*
X147233497Y-100269737D01*
X147379179Y-100209394D01*
X147510289Y-100121789D01*
X147621789Y-100010289D01*
X147655391Y-99960000D01*
X147672398Y-99934548D01*
X147726010Y-99889743D01*
X147795335Y-99881036D01*
X147858363Y-99911190D01*
G37*
%TD.AperFunction*%
%TA.AperFunction,NonConductor*%
G36*
X132205203Y-111791205D02*
G01*
X132224316Y-111812029D01*
X132315483Y-111937510D01*
X132482490Y-112104517D01*
X132662335Y-112235183D01*
X132705000Y-112290512D01*
X132710979Y-112360126D01*
X132678373Y-112421920D01*
X132617534Y-112456278D01*
X132589449Y-112459500D01*
X132124000Y-112459500D01*
X132056961Y-112439815D01*
X132011206Y-112387011D01*
X132000000Y-112335500D01*
X132000000Y-111884918D01*
X132019685Y-111817879D01*
X132072489Y-111772124D01*
X132141647Y-111762180D01*
X132205203Y-111791205D01*
G37*
%TD.AperFunction*%
M02*
