%TF.GenerationSoftware,KiCad,Pcbnew,9.0.0*%
%TF.CreationDate,2025-04-29T21:45:17-04:00*%
%TF.ProjectId,Sensor_TCS3200,53656e73-6f72-45f5-9443-53333230302e,Ing. Alan C.*%
%TF.SameCoordinates,Original*%
%TF.FileFunction,Soldermask,Top*%
%TF.FilePolarity,Negative*%
%FSLAX46Y46*%
G04 Gerber Fmt 4.6, Leading zero omitted, Abs format (unit mm)*
G04 Created by KiCad (PCBNEW 9.0.0) date 2025-04-29 21:45:17*
%MOMM*%
%LPD*%
G01*
G04 APERTURE LIST*
G04 Aperture macros list*
%AMRoundRect*
0 Rectangle with rounded corners*
0 $1 Rounding radius*
0 $2 $3 $4 $5 $6 $7 $8 $9 X,Y pos of 4 corners*
0 Add a 4 corners polygon primitive as box body*
4,1,4,$2,$3,$4,$5,$6,$7,$8,$9,$2,$3,0*
0 Add four circle primitives for the rounded corners*
1,1,$1+$1,$2,$3*
1,1,$1+$1,$4,$5*
1,1,$1+$1,$6,$7*
1,1,$1+$1,$8,$9*
0 Add four rect primitives between the rounded corners*
20,1,$1+$1,$2,$3,$4,$5,0*
20,1,$1+$1,$4,$5,$6,$7,0*
20,1,$1+$1,$6,$7,$8,$9,0*
20,1,$1+$1,$8,$9,$2,$3,0*%
G04 Aperture macros list end*
%ADD10RoundRect,0.102000X-1.100000X-0.300000X1.100000X-0.300000X1.100000X0.300000X-1.100000X0.300000X0*%
%ADD11RoundRect,0.087500X0.087500X-0.087500X0.087500X0.087500X-0.087500X0.087500X-0.087500X-0.087500X0*%
%ADD12RoundRect,0.075000X-0.075000X-0.075000X0.075000X-0.075000X0.075000X0.075000X-0.075000X0.075000X0*%
%ADD13RoundRect,0.087500X-0.087500X0.087500X-0.087500X-0.087500X0.087500X-0.087500X0.087500X0.087500X0*%
%ADD14R,1.800000X1.800000*%
%ADD15C,1.800000*%
%ADD16RoundRect,0.087500X0.087500X0.087500X-0.087500X0.087500X-0.087500X-0.087500X0.087500X-0.087500X0*%
%ADD17RoundRect,0.087500X-0.087500X-0.087500X0.087500X-0.087500X0.087500X0.087500X-0.087500X0.087500X0*%
%ADD18RoundRect,0.250000X-0.250000X-0.475000X0.250000X-0.475000X0.250000X0.475000X-0.250000X0.475000X0*%
%ADD19C,0.800000*%
G04 APERTURE END LIST*
D10*
%TO.C,U1*%
X144760000Y-98150000D03*
X144760000Y-99420000D03*
X144760000Y-100690000D03*
X144760000Y-101960000D03*
X149960000Y-101960000D03*
X149960000Y-100690000D03*
X149960000Y-99420000D03*
X149960000Y-98150000D03*
%TD*%
D11*
%TO.C,R1*%
X148960000Y-95780000D03*
X148960000Y-95140000D03*
%TD*%
D12*
%TO.C,R4*%
X149485000Y-107460000D03*
X150125000Y-107460000D03*
%TD*%
D13*
%TO.C,R2*%
X145460000Y-95295000D03*
X145460000Y-95935000D03*
%TD*%
D14*
%TO.C,D1*%
X137420000Y-95460000D03*
D15*
X139960000Y-95460000D03*
%TD*%
D16*
%TO.C,R9*%
X155125000Y-100460000D03*
X154485000Y-100460000D03*
%TD*%
%TO.C,R8*%
X140280000Y-101960000D03*
X139640000Y-101960000D03*
%TD*%
D17*
%TO.C,C1*%
X146795000Y-93960000D03*
X147435000Y-93960000D03*
%TD*%
D16*
%TO.C,R6*%
X155125000Y-102960000D03*
X154485000Y-102960000D03*
%TD*%
%TO.C,R7*%
X140280000Y-103960000D03*
X139640000Y-103960000D03*
%TD*%
D14*
%TO.C,D2*%
X153960000Y-95460000D03*
D15*
X156500000Y-95460000D03*
%TD*%
D18*
%TO.C,C2*%
X146060000Y-91460000D03*
X147960000Y-91460000D03*
%TD*%
D16*
%TO.C,R5*%
X148280000Y-108960000D03*
X147640000Y-108960000D03*
%TD*%
D17*
%TO.C,R3*%
X144795000Y-107460000D03*
X145435000Y-107460000D03*
%TD*%
D14*
%TO.C,D4*%
X153960000Y-107460000D03*
D15*
X156500000Y-107460000D03*
%TD*%
D14*
%TO.C,D3*%
X137690000Y-107960000D03*
D15*
X140230000Y-107960000D03*
%TD*%
D19*
%TO.C,J2*%
X158960000Y-101460000D03*
X158960000Y-100460000D03*
X158960000Y-99460000D03*
X158960000Y-98460000D03*
%TD*%
%TO.C,J1*%
X134960000Y-98460000D03*
X134960000Y-99460000D03*
X134960000Y-100460000D03*
X134960000Y-101460000D03*
%TD*%
M02*
